<?xml version="1.0" encoding="utf-8"?>
<!-- Generator: Adobe Illustrator 28.2.0, SVG Export Plug-In . SVG Version: 6.00 Build 0)  -->
<svg version="1.1" id="Layer_1" xmlns="http://www.w3.org/2000/svg" xmlns:xlink="http://www.w3.org/1999/xlink" x="0px" y="0px"
	 viewBox="0 0 500 500" style="enable-background:new 0 0 500 500;" xml:space="preserve">
<style type="text/css">
	.st0{fill:#FAFAFA;}
	.st1{fill:#E0E0E0;}
	.st2{fill:#37474F;}
	.st3{fill:#263238;}
	.st4{fill:#455A64;}
	.st5{fill:#AC6AFF;}
	.st6{opacity:0.3;enable-background:new    ;}
	.st7{opacity:0.2;enable-background:new    ;}
	.st8{opacity:0.3;fill:#FFFFFF;enable-background:new    ;}
	.st9{opacity:0.8;fill:#FFFFFF;enable-background:new    ;}
	.st10{opacity:0.2;fill:#AC6AFF;enable-background:new    ;}
	.st11{opacity:0.6;fill:#FFFFFF;enable-background:new    ;}
	.st12{opacity:0.3;fill:#AC6AFF;enable-background:new    ;}
	.st13{opacity:0.1;enable-background:new    ;}
	.st14{opacity:0.1;}
	.st15{fill:#FFFFFF;}
	.st16{opacity:0.3;}
	.st17{opacity:5.000000e-02;fill:#FFFFFF;enable-background:new    ;}
	.st18{fill:#F28F8F;}
	.st19{opacity:0.4;enable-background:new    ;}
	.st20{fill:#EBEBEB;}
	.st21{fill:#F0F0F0;}
	.st22{opacity:0.55;fill:#FFFFFF;enable-background:new    ;}
	.st23{opacity:0.35;fill:#FFFFFF;enable-background:new    ;}
	.st24{fill:#B16668;}
	.st25{fill:#FFA8A7;}
	.st26{opacity:0.35;fill:#AC6AFF;enable-background:new    ;}
	.st27{opacity:0.2;}
	.st28{opacity:0.25;enable-background:new    ;}
	.st29{opacity:0.45;fill:#FFFFFF;enable-background:new    ;}
	.st30{fill:#E6E6E6;}
	.st31{opacity:0.2;fill:#FFFFFF;enable-background:new    ;}
	.st32{opacity:0.7;fill:#FFFFFF;enable-background:new    ;}
	.st33{opacity:0.55;}
	.st34{opacity:0.6;}
</style>
<g id="freepik--Floor--inject-61">
	<ellipse id="freepik--floor--inject-61" class="st0" cx="250" cy="349.8" rx="243" ry="141.7"/>
</g>
<g id="freepik--Shadows--inject-61">
	<path id="freepik--Shadow--inject-61" class="st1" d="M180.1,360.7L20.9,452.6c-1.8,1-1.8,2.6,0,3.7l23.4,13.5c2,1,4.3,1,6.3,0
		l159.3-91.9c1.8-1,1.8-2.6,0-3.7l-23.4-13.5C184.5,359.7,182.1,359.7,180.1,360.7z"/>
	<ellipse id="freepik--shadow--inject-61" class="st1" cx="379.6" cy="400.6" rx="70.6" ry="40.8"/>
</g>
<g id="freepik--Device--inject-61">
	<g id="freepik--Mobile--inject-61">
		<path class="st2" d="M197.6,366.4V47.9c0-8.2-4.1-10.5-7.7-12.5s-9.6-3.3-14.7-0.3L43.7,110.9c-5.1,3-9.3,10.2-9.3,16.1v318.5
			c0,5.9,3.7,9.4,7.3,11.5s9.9,4.4,15.1,1.4l131.5-76C194.2,379.4,197.8,373.1,197.6,366.4z"/>
		<path class="st3" d="M189.2,369.4L54,447.5V127.6l-16.9-9.8c-1.7,2.8-2.6,5.9-2.7,9.2v318.5c0,5.9,3.7,9.4,7.3,11.5
			s9.9,4.4,15.1,1.4l131.5-76c3.7-2,6.5-5.2,8.1-9l-0.5-0.3L189.2,369.4z"/>
		<path class="st4" d="M188.1,45.1L56.2,121.3c-3.9,2.5-6.3,6.7-6.5,11.3v315.9c0,6.4,4.5,9,10,5.8l128.5-74.1
			c4.4-2.9,7.1-7.6,7.4-12.8v-318C195.5,44.7,192.1,42.8,188.1,45.1z"/>
		<path d="M189,64.5v295.3c-0.3,4.9-2.9,9.4-7,12.2L63.1,440.7c-3.9,2.2-7,0.4-7-4V139.1c0.2-4,2-7.8,4.9-10.6l0.7-0.6
			c0.4-0.4,0.9-0.7,1.4-1l33.4-19.3l2.2-1.2c1.2-0.7,2.2-0.1,2.2,1.2s1,1.9,2.3,1.2l39-22.5c1.3-0.8,2.2-2.3,2.3-3.9
			c0.1-1.5,0.8-2.8,2-3.7l0.2-0.1l32.7-18.9l0.7-0.4C185,56.5,189,58.8,189,64.5z"/>
		<path class="st3" d="M171.8,364.1c4.1-2.7,6.7-7.2,7-12.2V60.1l-32.1,18.5l-0.2,0.1c-1.2,0.9-1.9,2.2-2,3.7c-0.1,1.6-1,3-2.3,3.9
			l-39,22.5c-1.3,0.8-2.3,0.2-2.3-1.2s-1-2-2.2-1.2l-2.2,1.2L63.1,127c-0.5,0.3-1,0.6-1.4,1l-0.7,0.6c-2.9,2.8-4.7,6.6-4.9,10.6V431
			L171.8,364.1z"/>
		<path class="st3" d="M109.1,96.9L127,86.6c1.1-0.6,1.9-0.2,1.9,1c-0.1,1.3-0.8,2.5-1.9,3.2l-17.9,10.3c-1.1,0.6-1.9,0.2-1.9-1
			C107.3,98.8,108,97.6,109.1,96.9z"/>
		<path class="st3" d="M136.2,80.5c1.2-0.7,2.2-0.1,2.2,1.2c-0.1,1.5-0.9,2.9-2.2,3.8c-1.2,0.7-2.2,0.1-2.2-1.3
			C134.1,82.7,134.9,81.3,136.2,80.5z"/>
		<path class="st4" d="M46.6,165.2c-0.1-2.5-1.4-4.8-3.4-6.2c-0.7-0.5-1.6-0.6-2.4-0.2c-0.4,0.3-2.1,1.2-2.6,1.5
			c-0.8,0.6-1.2,1.5-1.1,2.4v26c0.1,2.5,1.4,4.8,3.4,6.2c0.7,0.5,1.5,0.6,2.3,0.2c0.5-0.2,2.2-1.2,2.7-1.5c0.8-0.6,1.2-1.5,1.1-2.4
			L46.6,165.2z"/>
		<path class="st2" d="M44,166.7v26c0,2.3-1.5,3.4-3.4,2.2c-2.1-1.4-3.4-3.7-3.4-6.2v-26c0-2.3,1.5-3.3,3.4-2.2
			C42.6,161.9,43.9,164.2,44,166.7z"/>
		<path class="st4" d="M46.6,210.6c-0.1-2.5-1.4-4.8-3.4-6.2c-0.7-0.5-1.6-0.6-2.4-0.2c-0.4,0.3-2.1,1.2-2.6,1.5
			c-0.8,0.6-1.2,1.5-1.1,2.4v26c0.1,2.5,1.4,4.8,3.4,6.2c0.7,0.5,1.5,0.6,2.3,0.2c0.5-0.2,2.2-1.2,2.7-1.5c0.8-0.6,1.2-1.5,1.1-2.4
			L46.6,210.6z"/>
		<path class="st2" d="M44,212.1v26c0,2.3-1.5,3.4-3.4,2.2c-2.1-1.4-3.3-3.7-3.4-6.2v-26c0-2.3,1.5-3.4,3.4-2.2
			C42.6,207.3,43.9,209.6,44,212.1z"/>
	</g>
</g>
<g id="freepik--Screen--inject-61">
	<g id="freepik--Window--inject-61">
		<path class="st5" d="M212,74.4c-1.6-0.9-3.9-0.8-6.4,0.6l-0.7,0.4l-33.2,19.2c-0.1,0-0.2,0.1-0.2,0.1c-1.2,0.9-1.9,2.2-2,3.7
			c-0.1,1.6-1,3.1-2.4,3.9l-39.6,22.8h-0.1c0-0.5-0.2-1-0.7-1.3l-2.3-1.3c-0.5-0.2-1.1-0.2-1.6,0.2l-2.2,1.3l-33.9,19.6
			c-0.5,0.3-1,0.6-1.4,1l-0.7,0.6c-3,2.8-4.8,6.7-5,10.8v302c0,2.3,0.8,3.9,2.1,4.6l2.3,1.3c1.3,0.8,3.1,0.6,5-0.5l120.7-69.7
			c4.2-2.7,6.9-7.3,7.2-12.3V81.6c0-2.9-1-4.9-2.6-5.8L212,74.4z"/>
		<path class="st6" d="M89.8,462.5v0.6l-0.7,0.4c-2,1.1-3.7,1.2-5,0.5l-2.3-1.3c-1.3-0.8-2.1-2.3-2.1-4.6V156c0.1-2.7,1-5.4,2.5-7.6
			l2.7,1.6c-1.5,2.2-2.3,4.7-2.4,7.4v302c-0.1,1.2,0.3,2.4,1,3.4c0.6,0.8,1.5,1.2,2.4,1.2c1,0,2.1-0.4,2.9-0.9L89.8,462.5z"/>
		<path class="st6" d="M173.1,97.5c-0.5,0.7-0.8,1.5-0.8,2.3c0,0.9-0.3,1.9-0.9,2.7l-2.7-1.6c0.5-0.7,0.8-1.5,0.8-2.4
			c0-0.9,0.4-1.8,0.9-2.6L173.1,97.5z"/>
		<path class="st0" d="M85.9,463.9c-1,0-1.9-0.4-2.4-1.1c-0.7-1-1.1-2.2-1-3.4v-302c0.2-3.9,2-7.7,4.9-10.4l0.2-0.2l0.4-0.4
			c0.4-0.4,0.9-0.7,1.4-0.9l34-19.6l2.2-1.3c0.2-0.1,0.5-0.2,0.7-0.2c0.6,0,0.7,0.8,0.7,1.1c-0.1,1,0.6,1.9,1.6,2c0.1,0,0.1,0,0.2,0
			c0.5,0,1-0.2,1.4-0.4l39.6-22.8c1.5-0.9,2.5-2.6,2.6-4.4c0.1-1.3,0.7-2.5,1.8-3.3c0.1,0,0.1-0.1,0.2-0.1l33.2-19.2l0.7-0.4
			c1.1-0.7,2.4-1.1,3.8-1.2c2.8,0,4.5,2.3,4.5,5.9v299.8c-0.3,4.8-2.8,9.3-6.9,11.9L88.8,463C88,463.6,87,463.9,85.9,463.9z"/>
		<path class="st5" d="M211.9,76.2L211.9,76.2c2.5,0,4,2,4,5.4v299.8c-0.3,4.7-2.7,8.9-6.6,11.5L88.6,462.6
			c-0.8,0.5-1.7,0.8-2.7,0.9c-1.8,0-2.9-1.5-2.9-4.1v-302c0.2-3.8,1.9-7.4,4.7-10l0.2-0.2l0.4-0.4c0.4-0.3,0.9-0.6,1.3-0.9l34-19.6
			l2.2-1.3c0.1-0.1,0.3-0.2,0.5-0.2c0.2,0,0.2,0.5,0.2,0.6c-0.1,1.3,0.8,2.4,2.1,2.5c0.1,0,0.1,0,0.2,0c0.6,0,1.1-0.2,1.6-0.5
			l39.6-22.8c1.7-1,2.8-2.8,2.9-4.8c0.1-1.1,0.6-2.2,1.6-2.9l0.1-0.1l33.2-19.2l0.7-0.4C209.5,76.6,210.7,76.2,211.9,76.2 M212,75.2
			c-1.4,0.1-2.8,0.5-4,1.2l-0.7,0.4L174,96c-0.1,0-0.2,0.1-0.2,0.1c-1.2,0.9-1.9,2.2-2,3.7c-0.1,1.6-1,3.1-2.4,3.9l-39.6,22.8
			c-0.3,0.2-0.7,0.3-1.1,0.3c-0.8,0-1.2-0.6-1.2-1.5s-0.5-1.6-1.2-1.6c-0.4,0-0.7,0.1-1,0.3l-2.2,1.3L89.1,145c-0.5,0.3-1,0.6-1.5,1
			l-0.7,0.6c-3,2.8-4.8,6.7-5,10.8v302c0,3.2,1.6,5.1,3.9,5.1c1.1-0.1,2.2-0.4,3.2-1l120.7-69.7c4.2-2.7,6.9-7.3,7.2-12.4V81.6
			C217,77.5,214.9,75.2,212,75.2L212,75.2z"/>
	</g>
</g>
<g id="freepik--Robot--inject-61">
	<g id="freepik--robot--inject-61">
		<path class="st3" d="M230.8,259c-0.6-0.1-1.2-0.2-1.8-0.1c-3.3,0.6-6.1,2.7-7.6,5.7c-0.8,1.9-0.4,3.4,0.9,4.1
			c0.1,0.1,0.2,0.1,0.3,0.1c16.1,6.8,41.2,6.1,64.4-16.7l-8.4-8.6C261.3,260.5,243.2,262.7,230.8,259z"/>
		<path class="st3" d="M305.1,249.4c0.1,0.8-0.2,1.7-0.9,2.2c-4.8,4.1-11.7,4.7-17.2,1.4c-1.2-0.7-1.6-2.2-0.9-3.4
			c0.7-1.2,2.2-1.6,3.4-0.9c3.6,2.2,8.2,1.8,11.5-0.9c1.1-0.9,2.7-0.7,3.5,0.4C304.9,248.4,305,248.9,305.1,249.4L305.1,249.4z"/>
		<circle class="st5" cx="282.9" cy="247.8" r="11.5"/>
		<path class="st7" d="M289.2,238.1c1.7,1.3,3.9,7.2-1,11.8c-5.7,5.4-15.9,2.3-16.7-4c-1,6.3,3.3,12.2,9.6,13.2
			c6.3,1,12.2-3.3,13.2-9.6C295.1,245.1,293.1,240.6,289.2,238.1L289.2,238.1z"/>
		<path class="st8" d="M274.4,241.8c-0.1,0.1-0.2,0.2-0.2,0.3c-0.4,0.6-0.7,1.2-0.9,1.9c-0.3,0.8-0.3,1.6-0.1,2.4
			c0.3,0.8,1.1,1.3,1.9,1.2c0.8-0.2,1.1-1.1,1.4-1.9c0.7-2,1.5-3.9,2.5-5.6c0.1-0.2,0.2-0.4,0.1-0.6c-0.1-0.3-0.4-0.3-0.7-0.3
			C276.8,239.3,275.5,240.6,274.4,241.8z"/>
		<path class="st3" d="M295.1,229.3c0.2,1.3-0.7,2.4-1.9,2.7c-4.1,0.9-7.2,4.3-7.7,8.5c-0.2,1.4-1.4,2.4-2.8,2.2s-2.4-1.4-2.2-2.8
			l0,0c0.7-6.3,5.4-11.4,11.5-12.8c1.3-0.3,2.6,0.5,2.9,1.8C295,229,295,229.1,295.1,229.3L295.1,229.3z"/>
		<path class="st5" d="M114.8,247.7c0,43,18.9,132.8,63.6,132.8S242,290.7,242,247.7H114.8z"/>
		<path class="st9" d="M114.8,247.7c0,43,18.9,132.8,63.6,132.8S242,290.7,242,247.7H114.8z"/>
		<path class="st5" d="M242,247.7c-1.8,25.9-8.9,43.5-20.1,49.7c-4.7,2.6-11.3,2.6-17,0c-9.6-4.4-16.1-15.1-17.1-20.2l-2.4,0.5
			c1.1,5.7,8.1,17.2,18.5,22c3.4,1.4,7,2.2,10.7,2.2c3,0,6-0.8,8.6-2.2c7.7-4.3,13.6-13.3,17.3-26.4
			C241.4,264.8,242,256.3,242,247.7L242,247.7z"/>
		<path class="st5" d="M222.4,272c0,44.9-7.4,78.5-22.1,100.4c1.9-1.5,3.7-3.1,5.3-4.9c12.4-22.2,18.7-54.1,18.7-95.5L222.4,272z"/>
		<path class="st10" d="M174.2,362.4c-19.4-17.6-23.1-69-17.6-80.2v-34.5h-41.8c0,43,18.9,132.8,63.6,132.8
			c15,0,27.1-10.1,36.6-25.2C215,355.3,193.6,380,174.2,362.4z"/>
		<path class="st5" d="M223.4,273.7c-24.8,14.3-65.1,14.3-89.9,0c-12.4-7.2-18.6-16.6-18.6-26s6.2-18.8,18.6-26
			c24.8-14.4,65.1-14.3,89.9,0c12.4,7.2,18.6,16.6,18.6,26S235.8,266.5,223.4,273.7z"/>
		<path class="st11" d="M223.4,273.7c-24.8,14.3-65.1,14.3-89.9,0c-12.4-7.2-18.6-16.6-18.6-26s6.2-18.8,18.6-26
			c24.8-14.4,65.1-14.3,89.9,0c12.4,7.2,18.6,16.6,18.6,26S235.8,266.5,223.4,273.7z"/>
		<path class="st12" d="M224.1,255.7c7.2-6.8,10.6-16.7,9.3-26.5c-3-2.9-6.4-5.4-10-7.4c-24.8-14.3-65.1-14.3-89.9,0
			c-12.4,7.2-18.6,16.6-18.6,26s6.2,18.8,18.6,26c21.2,12.2,53.5,14,78,5.4c-25,7.7-57.4,0.8-60.2-12.7
			C166.2,272.7,204.5,275.3,224.1,255.7z"/>
		<path class="st4" d="M116.3,275.3c-10.8,6.8-14,21-7.2,31.7c6.4,10.2,19.6,13.7,30.2,8.1c2.9-1.7,4.8-5.3,4.8-10.5
			c0-10.4-7.3-23-16.2-28.1C123.3,273.8,119.2,273.6,116.3,275.3z"/>
		<path class="st2" d="M126.6,312.4c-11.8,1.1-20.2-8.4-21.6-20.1c-1.6,12.6,7.4,24.1,20,25.7c5,0.6,10-0.4,14.3-2.9
			c2.9-1.7,4.8-5.3,4.8-10.5c0-2.2-0.3-4.4-0.9-6.5C143.2,304.6,139.2,311.2,126.6,312.4z"/>
		<path class="st3" d="M114.4,295.4c-3.6-2.1-6.5-0.4-6.5,3.8c0.2,4.6,2.7,8.8,6.5,11.3c3.6,2.1,6.5,0.4,6.5-3.8
			C120.7,302.1,118.3,297.9,114.4,295.4z"/>
		<path class="st5" d="M110.3,297.8c0.3,4.6,2.7,8.8,6.5,11.3c1,0.6,2.1,0.9,3.3,0.9c0.6-1,0.9-2.1,0.9-3.3
			c-0.2-4.6-2.7-8.8-6.5-11.3c-1-0.6-2.1-0.9-3.3-0.9C110.5,295.5,110.2,296.6,110.3,297.8z"/>
		<path class="st13" d="M110.6,300.1c0.8,3.7,3.1,6.9,6.2,8.9c1,0.6,2.1,0.9,3.3,0.9c0.6-1,0.9-2.1,0.9-3.3c0-1.1-0.2-2.2-0.5-3.3
			C118.4,307,111.6,303.7,110.6,300.1z"/>
		<path class="st3" d="M118.9,307.7c0.2-0.6,0.3-1.1,0.3-1.7c-0.2-3.3-1.9-6.4-4.8-8.2c-1.8-1-3.3-0.8-4.2,0.4
			c-0.1,0.1-0.1,0.2-0.2,0.3c-8.6,15.1-11,40.1,8.9,66l9.5-7.3C113.7,337.9,113.7,319.6,118.9,307.7z"/>
		<path class="st3" d="M119.5,382.7c-0.9,0-1.6-0.4-2.1-1.1c-3.5-5.3-3.2-12.2,0.7-17.2c0.8-1.1,2.4-1.3,3.5-0.5s1.3,2.4,0.5,3.5
			c-2.6,3.3-2.8,8-0.4,11.5c0.7,1.2,0.4,2.7-0.8,3.5C120.5,382.5,120,382.7,119.5,382.7L119.5,382.7z"/>
		
			<ellipse transform="matrix(0.7071 -0.7071 0.7071 0.7071 -218.8958 193.208)" class="st5" cx="123.8" cy="360.8" rx="11.5" ry="11.5"/>
		<path class="st7" d="M132.6,368.3c-1.5,1.5-7.6,3-11.6-2.5c-4.7-6.3-0.3-16.1,6-16.1c-6.1-1.7-12.5,1.8-14.3,7.9
			c-1.7,6.1,1.8,12.5,7.9,14.3C125,373.2,129.7,371.8,132.6,368.3L132.6,368.3z"/>
		<path class="st8" d="M130.7,353.1c-0.1-0.1-0.2-0.2-0.3-0.3c-0.5-0.5-1.1-0.8-1.8-1.1c-0.7-0.4-1.5-0.5-2.3-0.4
			c-0.8,0.2-1.4,0.9-1.4,1.8c0.2,0.8,1,1.2,1.7,1.6c1.9,0.9,3.7,2,5.3,3.2c0.2,0.1,0.4,0.2,0.6,0.2c0.3-0.1,0.4-0.4,0.4-0.7
			C132.9,355.8,131.8,354.4,130.7,353.1z"/>
		<path class="st3" d="M140.7,375.2c-1.3,0-2.3-0.9-2.5-2.2c-0.4-4.2-3.4-7.7-7.6-8.7c-1.3-0.3-2.2-1.7-1.8-3s1.7-2.2,3-1.8
			c6.2,1.5,10.7,6.7,11.3,13c0.2,1.4-0.8,2.6-2.2,2.7c0,0,0,0,0,0L140.7,375.2z"/>
		<path class="st2" d="M229.7,228.2c0-7.6-5-15.2-15-20.9c-20-11.6-52.5-11.6-72.6,0c-10,5.8-15,13.4-15,20.9v9.4
			c0,7.6,5,15.2,15,20.9c20,11.6,52.5,11.6,72.6,0c10-5.8,15-13.4,15-20.9V228.2z"/>
		<path class="st3" d="M186.5,266.8c-12.3,0.2-28.4-5.4-24.3-19.9v-46.9c-7,1.3-13.8,3.7-20,7.1c-10,5.8-15,13.4-15,20.9v9.4
			c0,7.6,5,15.2,15,20.9C154.2,265.5,170.8,268.2,186.5,266.8z"/>
		<path class="st3" d="M214.7,249.1c-20,11.6-52.5,11.6-72.6,0c-10-5.8-15-13.4-15-21s5-15.2,15-20.9c20-11.6,52.5-11.6,72.6,0
			c10,5.8,15,13.4,15,20.9S224.7,243.3,214.7,249.1z"/>
		<path class="st3" d="M247.4,242l-2.2-2c2.1-2.4,4.6-6,4.1-10c-0.3-2.9-2.3-5.7-5.8-8.1c-4-2.8-8.4-5-13-6.7c-0.3-1.2-0.9-3-1-3.5
			c5.6,1.8,10.9,4.4,15.7,7.7c4.2,2.9,6.6,6.4,7.1,10.2C252.9,234.7,250,239.2,247.4,242z"/>
		<path class="st5" d="M248.4,238.2c-2.9-2.3-4.8-1-8.7,3.7s-2.8,6.6-0.4,8.5s5,0.7,8.1-3.2C250.7,242.8,251.8,240.9,248.4,238.2z"
			/>
		<path class="st8" d="M241.7,241.4c-1,1-1.9,2.1-2.6,3.3c-0.5,0.8-0.6,1.8-0.3,2.7c0.2,0.4,0.5,0.7,0.8,1c0.6,0.6,1.5,1,2.4,1.1
			c0.2,0,0.3,0,0.4-0.1c0.2-0.1,0.3-0.3,0.3-0.6c0.1-0.9-0.1-1.9,0-2.8c0.3-2.4,2.8-4.1,2.8-6.5c0-0.1,0-0.3-0.1-0.4
			c-0.3-0.5-1-0.2-1.4,0c-0.2,0.1-0.3,0.3-0.5,0.4c-0.3,0.3-0.5,0.5-0.8,0.8L241.7,241.4z"/>
		<path class="st5" d="M235.9,225.8c0.4-31.7-25-57.8-56.7-58.2c-31.7-0.4-57.8,25-58.2,56.7c0,0.5,0,1,0,1.5
			c0,8.5,5.6,17,16.8,23.4c22.4,13,58.8,13,81.2,0C230.3,242.8,235.9,234.3,235.9,225.8z"/>
		<path class="st9" d="M235.9,225.8c0.4-31.7-25-57.8-56.7-58.2c-31.7-0.4-57.8,25-58.2,56.7c0,0.5,0,1,0,1.5
			c0,8.5,5.6,17,16.8,23.4c22.4,13,58.8,13,81.2,0C230.3,242.8,235.9,234.3,235.9,225.8z"/>
		<path class="st12" d="M228.3,242.2c-29.9,18.4-69.3,16.5-70.2-3.1c-0.6-13.3-7.5-24.5-16.5-29.6c0.9-21,14.9-37.6,29.9-40.7l0,0
			c-28.9,3.5-50.6,27.9-50.6,57c0,8.5,5.6,17,16.8,23.4c22.4,13,58.8,13,81.2,0c2.4-1.4,4.7-3,6.9-4.8L228.3,242.2L228.3,242.2z"/>
		<path class="st4" d="M234.1,211.8c-2.5-10.1-7.8-19.4-15.2-26.7c0,6-3.9,12-11.8,16.5c-9.3,5.4-22,7.6-34.2,6.6
			c-5.5-0.5-10.4,3.4-11.3,8.8c-0.9,5.4-1.4,10.7-1.7,15.4c-0.4,5.6,3.7,10.5,9.3,11.1c17.2,1.7,35.4-1.3,48.6-9
			C228.7,228.2,234.1,220,234.1,211.8z"/>
		<path class="st5" d="M183.6,229.6c-0.2,0-0.3,0-0.5,0c-1.4-0.3-2.3-1.6-2-2.9c0,0,0,0,0,0c1.2-6.2,7.2-10.2,13.3-9
			c3,0.6,5.6,2.3,7.2,4.8c0.8,1.1,0.5,2.7-0.7,3.5c-1.1,0.8-2.7,0.5-3.5-0.7c-2-2.9-5.9-3.7-8.8-1.7c-1.4,0.9-2.3,2.4-2.7,4
			C185.8,228.7,184.8,229.5,183.6,229.6z"/>
		<path class="st8" d="M183.6,229.6c-0.2,0-0.3,0-0.5,0c-1.4-0.3-2.3-1.6-2-2.9c0,0,0,0,0,0c1.2-6.2,7.2-10.2,13.3-9
			c3,0.6,5.6,2.3,7.2,4.8c0.8,1.1,0.5,2.7-0.7,3.5c-1.1,0.8-2.7,0.5-3.5-0.7c-2-2.9-5.9-3.7-8.8-1.7c-1.4,0.9-2.3,2.4-2.7,4
			C185.8,228.7,184.8,229.5,183.6,229.6z"/>
		<path class="st5" d="M229.6,199.8c-3.8,1.6-6.4,5.2-6.8,9.3c-0.1,1.4,0.9,2.6,2.2,2.7c0.2,0,0.3,0,0.5,0c1.2-0.1,2.1-1.1,2.2-2.2
			c0.2-2.3,1.8-4.4,3.9-5.2C231.1,202.8,230.4,201.3,229.6,199.8z"/>
		<path class="st8" d="M229.6,199.8c-3.8,1.6-6.4,5.2-6.8,9.3c-0.1,1.4,0.9,2.6,2.2,2.7c0.2,0,0.3,0,0.5,0c1.2-0.1,2.1-1.1,2.2-2.2
			c0.2-2.3,1.8-4.4,3.9-5.2C231.1,202.8,230.4,201.3,229.6,199.8z"/>
		<g class="st14">
			<path class="st15" d="M207.4,201.4c5.4,10.2,9.4,21,11.7,32.3c2.2-1.4,4.4-2.9,6.3-4.7c-2.3-8.8-6.3-20.6-12.9-31.4
				C211,199,209.2,200.3,207.4,201.4z"/>
			<path class="st15" d="M202.8,203.7c-3.6,1.6-7.5,2.7-11.4,3.5c2.2,11.6,3.5,23.4,4,35.2c5.7-1,11.2-2.7,16.5-4.9
				C209.8,226,206.7,214.7,202.8,203.7z"/>
		</g>
		<path class="st5" d="M106.5,199.5c1.9,1.9,1.9,5.1,0,7c-1.9,1.9-5.1,1.9-7,0s-1.9-5.1,0-7c0,0,0,0,0,0
			C101.4,197.6,104.5,197.6,106.5,199.5z"/>
		<path class="st6" d="M106.5,199.5c1.9,1.9,1.9,5.1,0,7c-1.9,1.9-5.1,1.9-7,0c-1.5-1.5-1.9-3.7-1-5.6c0,0.1,0,0.2,0.1,0.4
			c0.5,1.4,2.5,2.1,4.5,1.4s3.2-2.3,2.8-3.7C106.1,199.2,106.3,199.3,106.5,199.5z"/>
		<path class="st3" d="M105.8,204.1c-0.8,0.3-1.5,0.9-1.7,1.8c-0.1,0.3-0.1,0.6,0.1,0.9l21,21l2.5-2.5l-21-21
			C106.4,204,106.1,204,105.8,204.1z"/>
		<path class="st8" d="M99.8,199.8c-0.2,0.2-0.3,0.5-0.2,0.8c0.2,0.3,0.7,0.2,1,0.1c1.2-0.3,2.5-0.4,3.8-0.4c0.3,0,0.5,0,0.7-0.1
			c0.2-0.2,0.3-0.5,0.1-0.7c0,0,0,0,0,0c-0.2-0.2-0.4-0.4-0.7-0.6c-0.6-0.4-1.4-0.5-2.1-0.4c-0.6,0-1.3,0.2-1.8,0.6
			C100.4,199.2,100.1,199.5,99.8,199.8z"/>
		<path class="st4" d="M126.3,210.6c-10.8,6.8-14,21-7.2,31.7c6.4,10.2,19.6,13.7,30.2,8.1c2.9-1.7,4.8-5.3,4.8-10.5
			c0-10.4-7.3-23-16.2-28.1C133.3,209.2,129.2,208.9,126.3,210.6z"/>
		<path class="st2" d="M136.6,247.7c-11.8,1.1-20.2-8.4-21.6-20.1c-1.6,12.6,7.4,24.1,20,25.7c5,0.6,10-0.4,14.3-2.9
			c2.9-1.7,4.8-5.3,4.8-10.5c0-2.2-0.3-4.4-0.9-6.5C153.1,239.9,149.2,246.6,136.6,247.7z"/>
		<path class="st3" d="M124.4,230.7c-3.6-2.1-6.5-0.4-6.5,3.8c0.2,4.6,2.7,8.8,6.5,11.3c3.6,2.1,6.5,0.4,6.5-3.8
			C130.7,237.4,128.3,233.2,124.4,230.7z"/>
		<path class="st5" d="M120.3,233.1c0.3,4.6,2.7,8.8,6.5,11.3c1,0.6,2.1,0.9,3.3,0.9c0.6-1,0.9-2.1,0.9-3.3
			c-0.2-4.6-2.7-8.8-6.5-11.3c-1-0.6-2.1-0.9-3.3-0.9C120.5,230.8,120.2,232,120.3,233.1z"/>
		<path class="st13" d="M120.6,235.5c0.8,3.7,3.1,6.9,6.2,8.9c1,0.6,2.1,0.9,3.3,0.9c0.6-1,0.9-2.1,0.9-3.3c0-1.1-0.2-2.2-0.5-3.3
			C128.4,242.3,121.6,239,120.6,235.5z"/>
		<path class="st3" d="M196.3,154.2c-7.3-4.2-16.3-4.2-23.5,0l-12.4,7.2c-18.2,10.5-29.4,30-29.4,51l0,0c0,0.4,0.3,0.7,0.6,0.8
			c0.9,0.4,1.9,0.4,2.8,0c0.3-0.1,0.5-0.5,0.6-0.8l0,0c0-19.6,10.5-37.7,27.4-47.5l12.4-7.2c9.4-5.4,21.3-2.2,26.7,7.2
			c1.5,2.6,2.4,5.6,2.6,8.6c0,0,0,0.9,0,0.9c1.9,0.9,4,2.2,4,2.2v-2C208.1,166.2,203.6,158.4,196.3,154.2z"/>
		<path class="st5" d="M131.5,215.1c-2.5-1.6-5.5-2.4-8.5-2.2c-0.5,0.4-1,0.8-1.4,1.3c0.8-0.2,1.6-0.3,2.4-0.3
			c2.5,0.1,4.9,0.8,7,2.1c8.8,5.1,16,17.5,16,27.7c0,3.9-1.1,7-3,8.9c0.6-0.2,1.2-0.4,1.8-0.6c1.6-2.5,2.4-5.4,2.2-8.4
			C148,233.2,140.6,220.4,131.5,215.1z"/>
		<g class="st16">
			<path class="st15" d="M131.5,215.1c-2.5-1.6-5.5-2.4-8.5-2.2c-0.5,0.4-1,0.8-1.4,1.3c0.8-0.2,1.6-0.3,2.4-0.3
				c2.5,0.1,4.9,0.8,7,2.1c8.8,5.1,16,17.5,16,27.7c0,3.9-1.1,7-3,8.9c0.6-0.2,1.2-0.4,1.8-0.6c1.6-2.5,2.4-5.4,2.2-8.4
				C148,233.2,140.6,220.4,131.5,215.1z"/>
		</g>
	</g>
</g>
<g id="freepik--Character--inject-61">
	<g id="freepik--Cushion--inject-61">
		<path class="st5" d="M417.3,302.7c4.7-1.7,10.1,2.8,19.2,4.7c16.9,3.5,25.4,8.5,34.5,14.8s11.4,4.3,14.8,8.8s-1.9,8.2-2.9,16.2
			c-1.6,13.4-5.5,23-10.3,29.7c-8.6,11.7-5.3,17.5-10.3,18.7c-5.3,1.3-6-3.3-15.1-4.4c-21.5-2.6-31.2-7.3-43.7-18.4
			c-4.9-4.3-9.2-2.7-11.4-7.5c-1.1-2.4,2.2-4.7,3.5-13.5c2.1-14.5,7.8-29.1,14.7-37.7C413.3,310.4,412.5,304.5,417.3,302.7z"/>
		<path class="st7" d="M482.6,340.9c-2.6,6.9-0.6,12.6-6.3,25.5c-5.5,12.4-10.7,16.8-11.9,22.1c-1,4.4-3.4,6.9-5.2,2.5
			s-1.6-18.1,3.8-31.3c6.2-15.1,11-21.5,14.6-24.5C483.3,330.8,484.7,335.5,482.6,340.9z"/>
		<path class="st7" d="M423.8,386c6.3,2.5,13.6,4.1,23.4,5.3c3.3,0.4,6.6,1.5,9.4,3.3c-3.7-3-5.1-7.7-11-8.2
			C441.4,386,431.6,387.9,423.8,386z M392.7,366.5c2.3,3.5,6.3,2.5,10.8,6.4c3.9,3.5,8.1,6.7,12.6,9.4c-5.4-4.3-6.5-9.8-10.6-12
			C400.5,367.5,396.6,369.4,392.7,366.5L392.7,366.5z"/>
		<path class="st17" d="M427,312.7c12.1-0.8,25.1,2.2,35.3,9c2,1.5,3.4,3.7,3.8,6.1c0.6,3.1-0.5,6.3-2.8,8.5
			c-2.3,2.2-6.3,3.2-9.2,3.6c-6.2,0.8-10.1,0.1-17.8,2c-2.8,0.8-5.4,2.2-7.6,4.1c-3.3,3.1-5.5,6.2-8.4,8.8c-4,3.6-12.4,4.6-15.9,2.5
			c-3.8-2.2-5.6-6.6-4.4-13C402.8,330.1,410.9,315,427,312.7z"/>
	</g>
	<g id="freepik--cushion--inject-61">
		<path class="st5" d="M358.5,292.2c-3.8-1.5-8.2,2.1-15.5,3.4c-13.6,2.5-24,7.1-31.4,12s-9.2,3.2-12.1,6.8s1.4,6.6,2,13
			c1,10.8,3.9,18.6,7.7,24c6.6,9.6,3.9,14.2,7.9,15.2c4.2,1.1,4.9-2.5,12.2-3.2c17.3-1.6,28.7-6,38.9-14.6c4-3.4,7.5-2,9.3-5.8
			c0.9-1.9-1.7-3.8-2.6-10.9c-1.4-11.8-5.6-23.6-11-30.6C361.5,298.4,362.3,293.7,358.5,292.2z"/>
		<path class="st6" d="M358.5,292.2c-3.8-1.5-8.2,2.1-15.5,3.4c-13.6,2.5-24,7.1-31.4,12s-9.2,3.2-12.1,6.8s1.4,6.6,2,13
			c1,10.8,3.9,18.6,7.7,24c6.6,9.6,3.9,14.2,7.9,15.2c4.2,1.1,4.9-2.5,12.2-3.2c17.3-1.6,28.7-6,38.9-14.6c4-3.4,7.5-2,9.3-5.8
			c0.9-1.9-1.7-3.8-2.6-10.9c-1.4-11.8-5.6-23.6-11-30.6C361.5,298.4,362.3,293.7,358.5,292.2z"/>
		<path class="st7" d="M301.8,322.4c2,5.6,0.2,10.1,4.6,20.7c4.2,10.1,8.2,13.7,9.1,18c0.8,3.5,2.6,5.6,4.1,2.1s1.6-14.5-2.4-25.2
			c-4.7-12.3-8.4-17.5-11.3-19.9C301.5,314.2,300.2,318,301.8,322.4z"/>
		<path class="st7" d="M330.6,359.6c-4.7,0.3-6,4-9,6.4c2.3-1.4,4.9-2.2,7.6-2.5c7.9-0.8,13.8-1.9,18.9-3.8
			C341.9,361.1,334.1,359.4,330.6,359.6z M366.6,346.7c-3.4,1.7-4.3,6.1-8.8,9.5c3.7-2.1,7.1-4.5,10.3-7.3c3.6-3.1,6.9-2.2,8.8-5
			C373.8,346.2,370.7,344.6,366.6,346.7L366.6,346.7z"/>
		<path class="st12" d="M350.5,300c-9.7-0.9-22.2,1.1-30.5,6.4c-1.6,1.1-4.3,3.8-4.7,5.8c-0.5,2.5,0.3,5.1,2.1,6.8
			c1.8,1.8,5,2.7,7.3,3.1c4.9,0.7,9.6-0.5,16.1,0.7c2.8,0.7,5.4,2.1,7.6,3.9c2.6,2.5,4.3,5.1,6.5,7.3c3.1,3,9.9,3.9,12.8,2.3
			c3.1-1.7,4.7-5.2,3.8-10.4C369.6,314.5,363.4,302.2,350.5,300z"/>
	</g>
	<g id="freepik--character--inject-61">
		<g id="freepik--Bottom--inject-61">
			<path class="st18" d="M359.9,413.5l-9.7-17.5l-20.3,12.2l22,25.7c0,0,12.2-0.7,14.2-6.5S362.9,415.5,359.9,413.5z"/>
			<path class="st3" d="M371.1,422c1,0.8,1.8,1.8,2.4,2.9c0.7,1.1,0.2,6.4,0.8,8.9s1.1,3.2,2.1,6.3c1.1,3.5,3.4,6.7,0.3,15.4
				s-7.7,12.7-11.5,14.7c-1.4,0.6-3,0.9-4.5,0.9c0,0-4.8-2-3.9-4.9S371.1,422,371.1,422z"/>
			<path class="st5" d="M349.4,430.7c0.1,0.9,1.3,2.4,1.8,3.1c1.6,2.6,2.3,6,2.7,9c2.2,14.1-3.7,20.9,3.6,26.5
				c2.1,1.5,6.6,1.3,13.9-7.2c3.7-4.3,6.1-13.5,5-17.7s-2.9-7-3.6-10.3s0-9.2-1.6-12.1c-1.1-1.6-2.5-3-4.2-4c-1.3-0.9-2.7-3-4.1-3.8
				s-2-1.8-2.9-0.8l1.5,2c2.3,3.5,0.2,4.9,0,6.6c0,1.9,0.2,3.9,0.6,5.8c-1.6-2.3-2.3-4.2-4.2-4s-2.1,0.1-5,2.6
				S349.4,429.9,349.4,430.7z"/>
			<path class="st19" d="M349.4,430.7c0.1,0.9,1.3,2.4,1.8,3.1c1.6,2.6,2.3,6,2.7,9c2.2,14.1-3.7,20.9,3.6,26.5
				c2.1,1.5,6.6,1.3,13.9-7.2c3.7-4.3,6.1-13.5,5-17.7s-2.9-7-3.6-10.3s0-9.2-1.6-12.1c-1.1-1.6-2.5-3-4.2-4c-1.3-0.9-2.7-3-4.1-3.8
				s-2-1.8-2.9-0.8l1.5,2c2.3,3.5,0.2,4.9,0,6.6c0,1.9,0.2,3.9,0.6,5.8c-1.6-2.3-2.3-4.2-4.2-4s-2.1,0.1-5,2.6
				S349.4,429.9,349.4,430.7z"/>
			<path class="st6" d="M371.4,462.1c3.7-4.3,6.1-13.5,5-17.7c-0.4-1.4-0.9-2.8-1.4-4.1c0,0.3,0.1,0.6,0.1,0.8
				c0.1,0.5,0.1,1.1,0.1,1.6c0.2,2.2-0.1,4.3-1,6.3c-0.9,1.7-2.9,6-5.2,6c-1.3,0-2.4-1.4-2.8-2.9c-0.2-0.6-0.5-2.3-0.5-2.3
				c-2.2,0.4-4.3,1.1-6.2,2.2c-3.5,2.1-3.4,2.6-3.4,2.6c0.2,1,0.2,2,0,3c-0.2,1.1-0.7,2.1-1.4,2.9c-0.3,0.3-0.6,0.5-0.9,0.6
				c0,3.2,0.7,5.8,3.8,8.1C359.6,470.7,364.2,470.5,371.4,462.1z"/>
			<path class="st2" d="M353.9,442.8c0.6,3.7,0.7,7.5,0.4,11.2c1.1,3.6,2.2,3.6,2.5,1.7s-1.9-9.6-3.4-16.1
				C353.6,440.7,353.8,441.7,353.9,442.8z"/>
			<path class="st2" d="M363.5,420.8c0.3-1.7,1.2-4.4,0.3-6c-0.3-0.2-0.6-0.3-0.9-0.5c-1.4-0.9-2-1.8-2.9-0.8l1.5,2
				c2.3,3.5,0.2,4.9,0,6.6c0,1.9,0.2,3.9,0.6,5.8c1.1,6.1,2.3,8.2,2.7,14s-0.9,9.5-0.1,9.9s2.5-0.2,3-4.8s-1.2-12.4-2.4-16.1
				S363.1,423.2,363.5,420.8z"/>
			<path class="st20" d="M366.1,450.2c-0.1,0.1-0.2,0.1-0.3,0.1c-4,0.6-6.2,1.5-9.4,4.9c-0.2,0.2-0.6,0.2-0.8,0
				c-0.2-0.2-0.2-0.6,0-0.8c3.3-3.6,5.7-4.6,10-5.3c0.3,0,0.6,0.2,0.6,0.5c0,0,0,0,0,0C366.4,449.8,366.3,450,366.1,450.2z"/>
			<path class="st20" d="M365.6,445.4c-0.1,0.1-0.2,0.1-0.3,0.1c-3.9,0.5-7.4,2.4-9.9,5.4c-0.2,0.2-0.6,0.2-0.8,0c0,0,0,0,0,0
				c-0.2-0.2-0.2-0.6,0-0.8c3.5-3.7,6.1-4.9,10.5-5.7c0.3-0.1,0.6,0.2,0.7,0.5C365.8,445,365.8,445.2,365.6,445.4L365.6,445.4z"/>
			<path class="st20" d="M366,440.1c-0.1,0.1-0.2,0.1-0.3,0.2c-4.6,0.9-7.4,2.1-11.1,6.1c-0.2,0.3-0.7,0.3-0.9,0c0,0,0,0,0,0
				c-0.2-0.3-0.2-0.7,0-0.9c3.9-4.1,6.9-5.5,11.8-6.5c0.3-0.1,0.7,0.1,0.8,0.5C366.3,439.7,366.2,439.9,366,440.1L366,440.1z"/>
			<path class="st20" d="M365.4,435.6c-0.1,0.1-0.2,0.1-0.3,0.1c-4.5,0.8-7.2,2.1-10.8,5.9c-0.3,0.2-0.6,0.2-0.9,0
				c-0.2-0.2-0.2-0.7,0-0.9c3.8-4,6.7-5.4,11.5-6.3c0.3-0.1,0.7,0.1,0.7,0.5c0,0,0,0,0,0C365.7,435.2,365.6,435.4,365.4,435.6z"/>
			<path class="st20" d="M364,431.1c-0.1,0.1-0.2,0.1-0.3,0.2c-4.5,0.8-7.2,2.1-10.8,5.9c-0.2,0.2-0.7,0.2-0.9,0
				c-0.2-0.2-0.3-0.6,0-0.9c0,0,0,0,0,0c3.8-4,6.7-5.4,11.5-6.3c0.3-0.1,0.7,0.2,0.7,0.5C364.2,430.8,364.2,431,364,431.1L364,431.1
				z"/>
			<path class="st4" d="M377.1,351.6c0,0-32.2-6.4-57.9-1.9c-18.6,3.2-16.9,18.4-13.6,27.7c6.6,18.4,36.9,47.4,36.9,47.4
				s14-6.1,17-15.3l-7.7-16.2l23.1,6.6l2.5-3.3L377.1,351.6z"/>
			<path class="st2" d="M337.1,419.2c3.3,3.4,5.5,5.5,5.5,5.5s14-6.1,17-15.3l-3.1-6.6L337.1,419.2z"/>
			<path class="st2" d="M347.7,379.2c3.6,5,7,10.2,10,15.6l-5.8-1.7c-7-15.3-8.5-19.8-19.1-26.7C332.8,366.4,340.4,369,347.7,379.2z
				"/>
			<polygon class="st18" points="350.9,416.1 339,425.8 332.3,430.1 339.2,444.9 361.6,434.2 			"/>
			<path class="st3" d="M305,437.6c-5.1,2-8.2,4-10.6,7.1s-3.1,6.2-0.8,9.9s6.3,8.1,11.2,7.8s7.9-1.5,12.4-4L305,437.6z"/>
			<path class="st5" d="M345.7,441.9c0.1,1.5-6.4,4.6-13,7.8c-7.2,3.4-8.9,5.6-14.8,8.5c-6.7,3.3-9.2,3.5-14.4,2s-11.6-8.9-7.1-15.7
				c3.6-5.6,8.3-7.1,15.5-9c5.7-1.4,11.3-3.2,16.7-5.4c5.2-2,9.4-5.6,10.5-4.4c-1.8,1.4-3.5,2.9-5.1,4.6c-0.3,0.5-0.8,1.4,0.5,0.9
				c0.7-0.3,1.4-0.4,2.1-0.2c0.6,0.3,2.7,3.5,3.4,5.1c0.4,0.9,1.8,4.1,1,5.4c-0.3,0.5-2.2,1.9-1.6,2.3c0.7,0.1,1.4,0,2-0.3
				c0.5-0.2,1-0.3,1.5-0.5S344.5,442.5,345.7,441.9z"/>
			<path class="st19" d="M345.7,441.9c0.1,1.5-6.4,4.6-13,7.8c-7.2,3.4-8.9,5.6-14.8,8.5c-6.7,3.3-9.2,3.5-14.4,2
				s-11.6-8.9-7.1-15.7c3.6-5.6,8.3-7.1,15.5-9c5.7-1.4,11.3-3.2,16.7-5.4c5.2-2,9.4-5.6,10.5-4.4c-1.8,1.4-3.5,2.9-5.1,4.6
				c-0.3,0.5-0.8,1.4,0.5,0.9c0.7-0.3,1.4-0.4,2.1-0.2c0.6,0.3,2.7,3.5,3.4,5.1c0.4,0.9,1.8,4.1,1,5.4c-0.3,0.5-2.2,1.9-1.6,2.3
				c0.7,0.1,1.4,0,2-0.3c0.5-0.2,1-0.3,1.5-0.5S344.5,442.5,345.7,441.9z"/>
			<path class="st6" d="M320.2,457.1c-1,0.5-7,3.3-8.9,1.6c-2.1-1.8,2.8-4.8,2.8-4.8s0.7-4.6-4.8-11.3c-1,0.7-4.9,0.7-4.9-1.6
				s6.7-5.2,6.8-5.3c-6.8,1.8-11.3,3.4-14.9,8.8c-4.5,6.8,1.9,14.2,7.1,15.7s7.7,1.2,14.4-2C318.5,457.9,319.6,457.5,320.2,457.1z"
				/>
			<path class="st2" d="M313.4,453.5c-2.5,0.9-0.8,3.1,2.9,2.4c5.5-1.1,10.2-4.3,16.3-6.2c6.7-3.2,13.5-6.1,13-7.8
				c-1.2,0.5-3.8,1.5-3.8,1.5c-0.5,0.2-1.8,0.7-1.8,0.7c-5.1,2.2-10.7,5.7-16.1,7.2C319.2,452.5,315.9,452.7,313.4,453.5z"/>
			<path class="st2" d="M309.6,443.5c2.3-1.3,2.7-2.5,7.3-4.6s12.2-6.5,17-9.3c1.8-1.2,3.5-2.5,5.1-3.8c-0.8-0.9-3.7-0.1-6.6,1.8
				s-4.7,3-7.5,4.5c-5.6,3.4-11.9,5.6-15.1,7.7S307.3,444.9,309.6,443.5z"/>
			<path class="st21" d="M309.3,442.9c0,0.1,0.1,0.1,0.1,0.2c2.5,3.2,4.1,7.1,4.3,11.2c0,0.3,0.3,0.6,0.6,0.6c0.3,0,0.5-0.3,0.5-0.6
				c0,0,0,0,0-0.1c-0.7-7.7-4.5-11.8-4.7-12.1c-0.2-0.2-0.5-0.3-0.7-0.1c0,0,0,0-0.1,0.1C309.2,442.4,309.2,442.7,309.3,442.9z"/>
			<path class="st21" d="M313.8,439.6c0,0.1,0.1,0.1,0.1,0.2c2.9,3.9,4.8,8.4,5.4,13.2c0,0.3,0.3,0.6,0.6,0.6c0.3,0,0.5-0.3,0.5-0.6
				c0,0,0,0,0-0.1c-0.6-5.1-2.6-9.9-5.7-14c-0.2-0.2-0.5-0.3-0.8-0.1c0,0,0,0,0,0C313.7,439.1,313.7,439.4,313.8,439.6z"/>
			<path class="st21" d="M323.7,452.6c0.1,0.2,0.3,0.4,0.5,0.4c0.3,0,0.6-0.2,0.6-0.6c0,0,0,0,0-0.1c-0.3-8.1-5.5-15.7-5.7-16
				c-0.2-0.2-0.5-0.3-0.7-0.1c0,0,0,0-0.1,0.1c-0.2,0.3-0.2,0.7,0,0.9c0,0.1,5.1,7.5,5.3,15C323.6,452.4,323.6,452.5,323.7,452.6z"
				/>
			<path class="st21" d="M327.8,449.9c0.1,0.2,0.3,0.4,0.5,0.4c0.3,0,0.6-0.2,0.6-0.5c0,0,0-0.1,0-0.1c-0.2-5.6-2.3-11-6-15.2
				c-0.2-0.2-0.5-0.2-0.8,0c0,0,0,0,0,0c-0.2,0.3-0.1,0.7,0.1,0.9c3.4,3.9,5.4,8.9,5.6,14.1C327.8,449.7,327.8,449.8,327.8,449.9z"
				/>
			<path class="st20" d="M333.2,447.7c0.1,0.2,0.3,0.4,0.5,0.4c0.3,0,0.6-0.2,0.6-0.5c0,0,0,0,0-0.1c0-8.4-6-15-6.2-15.2
				c-0.2-0.2-0.5-0.3-0.7-0.1c0,0,0,0-0.1,0.1c-0.2,0.3-0.2,0.7,0.1,0.9c0.1,0.1,5.8,6.4,5.8,14.2
				C333.1,447.5,333.2,447.6,333.2,447.7z"/>
			<path class="st4" d="M375.1,351.2l66.8,12.2c0,0,6.6,25,0.9,39.8s-20.6,19.5-27.7,20c-10.2,0.8-22-2.4-22-2.4
				c-3.6,2.8-7.6,5.2-11.8,7c-6,2.4-32.1,13.3-32.1,13.3s-10.6-3.4-9.9-16.4l30.9-32.2L375.1,351.2z"/>
			<path class="st2" d="M398.6,412.2c0,0-3.9,5.7-16.7,11.1c-6.8,2.9-28.5,13.2-36.6,15.7c1.2,0.9,2.5,1.7,3.9,2.2
				c0,0,26.1-10.9,32.1-13.3c4.2-1.8,8.2-4.2,11.8-7C398.6,416,398.6,412.2,398.6,412.2z"/>
			<path class="st2" d="M406.7,418.5c6.4,1,23.6-2.1,29.2-14.3c5.5-11.9,3.6-26,2.4-38.2l2.1,0.5l2.4,0.5c1.6,7.5,4.5,24.8,0.1,36.2
				c-5.7,14.8-20.6,19.5-27.7,20c-10.2,0.8-22-2.4-22-2.4l3.4-5.2C399.8,417,403.2,417.9,406.7,418.5z"/>
			<path class="st2" d="M365.9,397.1c0,0,2.5-2.7,5-5.7s6.6-8.6,17.1-8.2s30.6,2.2,30.6,2.2s-21-3.6-28.3-4.8s-12.1-0.4-16.2,3.3
				s-11.5,12.2-11.5,12.2L365.9,397.1z"/>
			<path class="st2" d="M381.2,382.4c-3.4-4-5.2-9.2-4.9-14.5c0,0-2.5,9.6,1.5,16.5L381.2,382.4z"/>
		</g>
		<g id="freepik--Top--inject-61">
			<path class="st5" d="M386.6,279.6c-8,1.5-14.6,3.5-19.4,11.9c-4.6,7.9-23.6,41.2-23.6,41.2l22.1,11.6l16.2-27.8L386.6,279.6z"/>
			<path class="st22" d="M386.6,279.6c-8,1.5-14.6,3.5-19.4,11.9c-4.6,7.9-23.6,41.2-23.6,41.2l22.1,11.6l16.2-27.8L386.6,279.6z"/>
			<g id="freepik--Chest--inject-61">
				<path class="st3" d="M375.3,308.9c2.8-22.8,11-28.6,15.2-29.9l16.5-1.8c4.9,1,25.4,9.3,31.1,11.2c3.6,1.3,5.2,9,6,21.2
					c0.6,9.9,0.7,18.2,0.4,31.8c-0.3,11.5-0.5,24.5-4,40.4c-26.4,5.5-55.5-6.6-68.9-32.4c0.7-3.2,1.1-7.1,1.6-15
					S374.6,315.1,375.3,308.9z"/>
				<path class="st5" d="M440.1,289.1l-17.6-8c0,0-2.2,5.2-7,15.1s-5,14.5-5.4,31.8s0,54.9-2,61.9c7.6,1.1,33-0.8,37.6-3.6
					c0,0,0.4-28.4,1.1-46.1S448.8,294.1,440.1,289.1z"/>
				<path class="st23" d="M440.1,289.1l-17.6-8c0,0-2.2,5.2-7,15.1s-5,14.5-5.4,31.8s0,54.9-2,61.9c7.6,1.1,33-0.8,37.6-3.6
					c0,0,0.4-28.4,1.1-46.1S448.8,294.1,440.1,289.1z"/>
				<path class="st5" d="M399.5,279.6c-7,2.7-12.2,10.5-13.8,21.3s-3.3,32.8-4.5,40.9s-5.7,20.2-5.7,20.2c-3.2-2-6.6-9-6.7-14
					c1.7-5,2-7.4,2.7-14.2s2.5-22.5,3.5-30.7s4-18.6,11.5-23.5c4.2-1,8.5-1.6,12.9-1.9L399.5,279.6z"/>
				<path class="st23" d="M399.5,279.6c-7,2.7-12.2,10.5-13.8,21.3s-3.3,32.8-4.5,40.9s-5.7,20.2-5.7,20.2c-3.2-2-6.6-9-6.7-14
					c1.7-5,2-7.4,2.7-14.2s2.5-22.5,3.5-30.7s4-18.6,11.5-23.5c4.2-1,8.5-1.6,12.9-1.9L399.5,279.6z"/>
				<path class="st5" d="M384.9,307.1c1-7.9,5.5-22.1,14.1-25c0.3-0.8,0.5-1.7,0.5-2.5l-0.1-4.1c-2.6,0.9-5,2.1-7.3,3.6
					c-3.7,2.4-10.1,10.1-11.8,16.2C384.1,292.1,385.5,297.3,384.9,307.1z"/>
				<path class="st22" d="M384.9,307.1c1-7.9,5.5-22.1,14.1-25c0.3-0.8,0.5-1.7,0.5-2.5l-0.1-4.1c-2.6,0.9-5,2.1-7.3,3.6
					c-3.7,2.4-10.1,10.1-11.8,16.2C384.1,292.1,385.5,297.3,384.9,307.1z"/>
				<g id="freepik--Head--inject-61">
					<path class="st3" d="M421.6,271.6c1.5-5.4,7.5-10.7,10.5-15.3c2.8-4.4,4.6-7.9,4.7-12.3c0.1-2.6-1.2-6.3-3.1-7.2
						c3.1-9.4-3.7-14.6-7.4-15.8c-1.8-0.6-3.5-1.2-5.2-2c-2-1.1-2.3-2.8-3.9-4.4c-2.7-2.7-7.5-3.2-9.7,0.3c-1.7-2.7-4.3-2.9-7.4-2.4
						c-2.7,0.4-4.7,2.7-4.5,5.4c-3.8-2.6-7.8-0.1-8.4,2.2c-0.4,1.7-0.2,3.2-1.5,4.7c-1.5,1.6-3.9,1.4-4.5-0.1
						c-0.6,2.4,0.1,4.4,2.9,4.6c-1.1,1.3-1.5,3-1.1,4.7c0.5,2.1,2.2,3.7,4.3,4c0,1.3,0.3,2.7,0.8,3.9c0.7,1.3,1.7,2.4,2.9,3.2
						c3.9,2.3,8.4,3.4,12.7,4.7l5.1,1.6c0.3,0.1,1.9,0.3,2,0.6L421.6,271.6z"/>
					<path class="st18" d="M428.9,265.1c-4.1,2-6.5-0.8-6.5-0.8l-0.6,11.2v9.1c0,0-11,11.8-26,11.1c-0.8-3.4,0.3-9.3,2.8-12.2
						l0.4-8.6c-2.2-0.2-4.4-0.5-6.6-0.9c-4.5-1.2-7.8-5-8.4-9.6c-0.8-6.3-0.4-12.7,1.2-18.9c0.4-1.5,0.7-3,0.7-4.5
						c0-4.1,0.9-6.4,2.3-9.6c5.1-3.4,16.7-3.5,26.4,3.7c-1.8,6,0.1,11.1,4.4,13.9c-0.4,1.6-1,5.8,1.8,6c2,0.1,2.3-2.3,4.5-4.3
						s7-2.1,8.5,1.3C435.8,256.6,433.4,263,428.9,265.1z"/>
					<path class="st24" d="M398.9,274.9c7-0.2,12.2-0.4,16.3-5.1c1.9-2.4,3.6-5,4.9-7.8c0,0-1.3,6-3.9,10c-2,3-6.5,5.3-17.4,5.2
						L398.9,274.9z"/>
					<path class="st3" d="M403.4,247.9c-0.1,1.1,0.7,2,1.8,2.1s2-0.7,2.1-1.8c0.1-1-0.7-2-1.7-2.1
						C404.5,246,403.6,246.8,403.4,247.9z"/>
					<path class="st3" d="M405.6,242.1l3.7,3c0.8-1.1,0.6-2.6-0.4-3.4C407.9,240.8,406.4,241,405.6,242.1
						C405.6,242,405.6,242,405.6,242.1z"/>
					<path class="st3" d="M387.6,240.8l4.7-0.6c-0.1-1.3-1.2-2.2-2.5-2.1c0,0-0.1,0-0.1,0C388.4,238.2,387.5,239.4,387.6,240.8z"/>
					<path class="st3" d="M387.7,245.4c-0.1,1.1,0.7,2,1.8,2.1c1.1,0.1,2-0.7,2.1-1.8c0.1-1-0.7-2-1.7-2.1
						C388.8,243.6,387.8,244.4,387.7,245.4z"/>
					<path class="st24" d="M389.4,253.1l6.3,3.9l3.9-12.8C397.2,242.9,393.1,248.5,389.4,253.1z"/>
					<path class="st24" d="M403.2,261.2l-8.3,0.6c0,2.3,1.9,4,4.2,4c0.1,0,0.1,0,0.2,0C401.5,265.6,403.3,263.5,403.2,261.2z"/>
					<path class="st25" d="M402,262.4c0.3,0,0.7,0.1,1,0.2c-0.5,1.8-2,3.1-3.8,3.2c-0.4,0-0.9,0-1.3-0.1
						C398.2,263.6,400,262.2,402,262.4z"/>
				</g>
				<path class="st5" d="M410.8,312.5c1.9-15.6,8.5-16.4,10-11.3c5.7-8.5,5.9-15.8,5.8-18.7c-1.5-2.7-2.8-4.9-3.3-5.9
					c-0.7-1.3-1.5-1.1-1.5-1.1v4c0,0-0.9,4.5-5.6,10.3C412.8,293.9,411.6,299.3,410.8,312.5z"/>
				<path class="st22" d="M410.8,312.5c1.9-15.6,8.5-16.4,10-11.3c5.7-8.5,5.9-15.8,5.8-18.7c-1.5-2.7-2.8-4.9-3.3-5.9
					c-0.7-1.3-1.5-1.1-1.5-1.1v4c0,0-0.9,4.5-5.6,10.3C412.8,293.9,411.6,299.3,410.8,312.5z"/>
			</g>
			<g id="freepik--Tablet--inject-61">
				<path class="st4" d="M333,316.8L333,316.8l1.5-1.5l0,0c0.5-0.3,1.1-0.4,1.6-0.2l19.2,4.5c1.8,0.5,3.3,1.8,4.1,3.5l14,35.8
					c0.3,0.6,0.3,1.3-0.2,1.9l0,0l-1.6,1.5l0,0c-0.5,0.4-1.1,0.5-1.7,0.3l-19.2-4.5c-1.8-0.5-3.3-1.8-4.1-3.5l-14-35.8
					C332.4,318.1,332.5,317.3,333,316.8z"/>
				<path class="st4" d="M355.8,322c0.9,0.7,1.7,1.5,2.1,2.6l14,35.8c0.3,0.6,0.3,1.3-0.1,1.8l1.5-1.4l0,0c0.4-0.5,0.5-1.3,0.2-1.9
					l-14-35.8c-0.4-1-1.1-1.8-2-2.5L355.8,322z"/>
				<path class="st3" d="M371.9,360.4l-14-35.8c-0.8-1.7-2.3-3-4.1-3.5l-19.2-4.5c-1.6-0.4-2.5,0.6-1.9,2.2l14,35.8
					c0.8,1.7,2.3,3,4.1,3.5l19.2,4.5C371.7,362.9,372.5,361.9,371.9,360.4z"/>
				<path class="st4" d="M358.2,332.1l-2.6-6.7c-0.1-0.3-0.4-0.6-0.8-0.7l-3.3-0.8c-0.3-0.1-0.5,0.1-0.4,0.4l2.6,6.7
					c0.1,0.3,0.4,0.6,0.8,0.7l3.3,0.8C358.1,332.6,358.3,332.5,358.2,332.1z"/>
				<path class="st3" d="M355.5,327.1c-0.4-0.8-1.1-1.4-2-1.6c-0.8-0.2-1.2,0.2-0.9,1c0.4,0.8,1.1,1.4,1.9,1.6
					C355.3,328.2,355.7,327.8,355.5,327.1z"/>
				<path class="st3" d="M356.7,330.5c-0.4-0.8-1.1-1.4-1.9-1.6c-0.8-0.2-1.2,0.2-0.9,1c0.4,0.8,1.1,1.4,1.9,1.6
					C356.6,331.6,357,331.2,356.7,330.5z"/>
				<path class="st18" d="M337.4,339.6c-1.9-2.1-1.7-2.4-1-3.6c1.1-2,3.2-3.3,5.5-3.6c2-0.2,4-0.4,5.1,0s0.4,2.7-2.1,3.5
					c-4,1.4-3.8,2.5-3.8,2.5c1.7-0.6,3.4-1.1,5.2-1.5c1.5-0.2,4.3,0.2,6.1,0.2s2.3,2.3-0.5,3.4l3.2,0.2c2.2,0.1,3.1,1.2,1.5,2.8
					c-0.5,0.5-1.2,0.9-1.9,1c0,0,2.4-0.3,2.5,0.5c0.4,2.2-1,3-5.6,4.9c-4.4,1.8-5,4.4-4,5.9c0,0-1.9-0.9-3.7-1.8
					c-1.3-0.7-2.4-1.5-2.1-3.4c0,0-2.6,0.3-2.9-1.2c-0.2-1.2-0.1-2.4,0.2-3.5c-1-0.4-1.7-1.4-1.7-2.5c-0.1-1,0.1-2,0.6-2.9
					L337.4,339.6z"/>
				<path class="st24" d="M351.7,340.5c-1-0.1-1.9-0.1-2.9,0c-0.9,0.3-1.9,0.6-2.7,1.2c-1.7,0.9-3.2,2-4.7,3.2
					c1.8-0.7,3.5-1.5,5.1-2.5c0.8-0.5,1.6-0.9,2.4-1.3C349.8,340.9,350.8,340.7,351.7,340.5z"/>
				<path class="st24" d="M354.5,344.3c-1-0.2-2.1-0.1-3.1,0.2c-1,0.3-1.9,0.7-2.8,1.2c-1.8,1-3.5,2.1-5.1,3.5
					c1.9-0.8,3.7-1.7,5.5-2.7C350.7,345.5,352.6,344.7,354.5,344.3z"/>
			</g>
			<path class="st18" d="M385,364.2c-6.2-1.4-9.2-1.3-16.3-4.8c-2.5-1.1-4.8-2.4-7-3.9c-1.9-1.4-3.5-3.3-4.6-5.4
				c-0.2-0.4-0.4-0.8-0.6-1.1c-0.3-0.3-0.6-0.6-0.9-0.9c-0.7-0.5-1.2-1.1-1.7-1.7c-0.4-0.8-0.8-1.6-1.1-2.4
				c-0.1-0.4-0.3-0.8-0.5-1.1c-0.2-0.4-0.5-0.7-0.7-1c-0.8-0.8-1.4-1.7-1.9-2.7c-0.2-0.5-0.2-1.1,0.2-1.6c0,0-1-0.9-1.4-1.3
				c-0.5-0.5-0.9-1-1.3-1.5c-0.2-0.2-0.3-0.5-0.3-0.7c0-0.1,0.1-0.3,0.2-0.4c1.7-1.6,3.9-0.7,5.9,0.2c5,2.4,10.5,5.9,12.8,7.1
				s4.7,1.8,4.5,0.5s-3.1-5-3.5-9.3c-0.2-2.1,1.6-4.5,3.4-2.1c3.3,4.7,3.4,3.7,7.5,8c2.7,2.8,4.4,6.7,8.8,7.8s32,3.5,32,3.5
				l8.8-33.6c0,0,4.2-20.8,12.8-26.7c8.9,4,13.7,10.6,14.2,15.1c1,7.9-0.9,14.9-5.6,33.2c-4,15.5-7.9,25.2-10.9,30.7
				c-3.6,6.8-6,6-20.8,3.7C406.2,370.1,391.3,365.6,385,364.2z"/>
			<path class="st24" d="M418.6,349.4c5.8-0.8,12.5,2,12.5,2c-3.6-2.3-7.7-3.7-12-3.8L418.6,349.4z"/>
			<path class="st24" d="M350,337.8c1,1,2.1,1.9,3.2,2.8s2.2,1.7,3.3,2.6c0.5,0.4,1.1,0.9,1.7,1.3s1.1,0.8,1.7,1.1
				c1.2,0.7,2.4,1.4,3.6,2l-1.7-1.2c-0.6-0.4-1.1-0.8-1.7-1.2s-1.1-0.8-1.7-1.2s-1.1-0.9-1.6-1.3c-1.1-0.9-2.2-1.7-3.4-2.5
				L350,337.8z"/>
			<path class="st24" d="M352.2,342.7c0.6,0.9,1.4,1.8,2.1,2.5c0.8,0.8,1.6,1.5,2.4,2.2s1.7,1.4,2.5,2c0.9,0.6,1.8,1.2,2.7,1.7
				c-0.8-0.7-1.6-1.4-2.5-2.1l-2.5-2.1l-2.5-2.1C353.8,344.2,353,343.5,352.2,342.7z"/>
			<path class="st5" d="M406,348.3c2.7,3.2,1.9,18.3,0,21.9c8.7,2.6,17.6,4,26.7,4.4c3.3,0.1,5-2.1,8-9.1s9.3-24.8,12-37.8
				s4.2-22.3,1.4-28.1s-8-8.2-13.9-10.5c-3.8,2.2-9.8,8.6-13.6,24.7l-8.4,35L406,348.3z"/>
			<path class="st22" d="M406,348.3c2.7,3.2,1.9,18.3,0,21.9c8.7,2.6,17.6,4,26.7,4.4c3.3,0.1,5-2.1,8-9.1s9.3-24.8,12-37.8
				s4.2-22.3,1.4-28.1s-8-8.2-13.9-10.5c-3.8,2.2-9.8,8.6-13.6,24.7l-8.4,35L406,348.3z"/>
			<path class="st26" d="M418.1,348.8c4.2,0.8,8.3,2.4,12,4.6c0,0-2.6-5.5-11.5-7L418.1,348.8z"/>
		</g>
	</g>
</g>
<g id="freepik--speech-bubble-2--inject-61">
	<g id="freepik--speech-bubble--inject-61_00000129172133573974323810000017656346085882201763_">
		<g id="freepik--shadow--inject-61_00000025410670365462084340000008093728187880286347_" class="st27">
			<path d="M434,146.2c0,3.4-2.4,5.6-5.3,7.2L366,189.7c-2.9,1.7-5.3,0.3-5.3-3.1V160l0,0c0-3.8,2-7.3,5.3-9.2l62.8-36.3
				c1.7-1,3.9-0.4,4.9,1.3c0.3,0.5,0.5,1.2,0.5,1.8l0,0L434,146.2z"/>
		</g>
		<g id="freepik--speech-bubble--inject-61">
			<path class="st5" d="M446.7,125.7c-0.2-2.2-1.4-4.2-3.2-5.4l-1.2-0.7c-2.1-1-4.5-1-6.5,0l-61.9,35.8c-1.9,1.3-3.1,3.4-3.3,5.7
				v30.4c0.1,2.3,1.3,4.4,3.3,5.7l1.2,0.7c2.1,1.1,4.5,1.1,6.5,0l-0.3,0.1l27.1-15.6c0.5-0.3,0.9-0.5,1.5-0.6l5,4.4l0.4,0.3l2.7,1.6
				l5,2.9l0,0c1.2,0.6,2.6,0.5,3.8-0.2c1.4-0.8,2.6-3.2,2.6-5.3v-11.4c0.1-2.3,1.3-4.4,3.3-5.7l10.9-6.2c1.9-1.3,3.1-3.4,3.3-5.7
				v-30.4C446.7,125.8,446.7,125.7,446.7,125.7z"/>
			<path class="st28" d="M446.7,125.7c-0.2-2.2-1.4-4.2-3.2-5.4l-1.2-0.7c-2.1-1-4.5-1-6.5,0l-61.9,35.8c-1.9,1.3-3.1,3.4-3.3,5.7
				v30.4c0.1,2.3,1.3,4.4,3.3,5.7l1.2,0.7c2.1,1.1,4.5,1.1,6.5,0l-0.3,0.1l27.1-15.6c0.5-0.3,0.9-0.5,1.5-0.6l5,4.4l0.4,0.3l2.7,1.6
				l5,2.9l0,0c1.2,0.6,2.6,0.5,3.8-0.2c1.4-0.8,2.6-3.2,2.6-5.3v-11.4c0.1-2.3,1.3-4.4,3.3-5.7l10.9-6.2c1.9-1.3,3.1-3.4,3.3-5.7
				v-30.4C446.7,125.8,446.7,125.7,446.7,125.7z"/>
			<path class="st5" d="M446.7,125.9c0-2.1-1.5-2.9-3.3-1.9l-61.9,35.8c-0.8,0.5-1.5,1.2-2,2l-7.7-4.5c0.5-0.8,1.2-1.5,2-2
				l61.9-35.8c2.1-1,4.5-1,6.5,0l1.2,0.7C445.4,121.5,446.6,123.6,446.7,125.9z"/>
			<path class="st29" d="M446.7,125.9c0-2.1-1.5-2.9-3.3-1.9l-61.9,35.8c-0.8,0.5-1.5,1.2-2,2l-7.7-4.5c0.5-0.8,1.2-1.5,2-2
				l61.9-35.8c2.1-1,4.5-1,6.5,0l1.2,0.7C445.4,121.5,446.6,123.6,446.7,125.9z"/>
			<path class="st0" d="M380.1,197.5c-1.1,0-1.2-1.2-1.2-1.7v-30.4c0.1-2.1,1.2-4,3-5.1l61.9-35.7c0.3-0.2,0.7-0.3,1.1-0.4
				c1.1,0,1.2,1.2,1.2,1.7v30.4c-0.1,2.1-1.3,4-3,5.1l-10.9,6.3c-2.1,1.4-3.5,3.7-3.6,6.2v11.4c0,1.9-1,4-2.2,4.7
				c-0.6,0.3-1.2,0.5-1.9,0.5l0,0c-0.5,0-1.1-0.1-1.5-0.5l-9.3-8.6c-0.6-0.5-1.4-0.8-2.2-0.7c-1.2,0-2.4,0.4-3.4,1l-26.9,15.4
				C380.9,197.4,380.5,197.5,380.1,197.5z"/>
			<path class="st30" d="M444.9,124.9c0.5,0,0.5,0.7,0.5,1v30.4c-0.1,1.8-1.1,3.5-2.6,4.6l-10.8,6.3c-2.3,1.5-3.8,4-3.9,6.8v11.4
				c0,1.6-0.7,3.1-1.9,4.1c-0.5,0.3-1,0.4-1.6,0.4c-0.4,0-0.8-0.1-1.1-0.3l-9.3-8.6c-0.7-0.6-1.7-1-2.7-0.9c-1.3,0-2.6,0.4-3.8,1.1
				L381,196.6c-0.2,0.2-0.5,0.3-0.8,0.3c-0.5,0-0.5-0.7-0.5-1v-30.4c0.1-1.8,1.1-3.5,2.6-4.6l61.9-35.7
				C444.4,125,444.7,124.9,444.9,124.9 M445,123.6c-0.5,0-1,0.2-1.5,0.4l-61.9,35.7c-1.9,1.3-3.1,3.4-3.3,5.7v30.4
				c0,1.5,0.7,2.3,1.8,2.3c0.5,0,1-0.2,1.5-0.4l26.9-15.4c0.9-0.6,2-0.9,3.1-0.9c0.6,0,1.3,0.2,1.8,0.6l9.3,8.6
				c0.6,0.5,1.3,0.7,2,0.7c0.8,0,1.5-0.2,2.2-0.6c1.4-0.8,2.6-3.2,2.6-5.3v-11.4c0.1-2.3,1.3-4.4,3.3-5.7l10.8-6.2
				c1.9-1.3,3.1-3.4,3.3-5.7v-30.4C446.7,124.4,446,123.6,445,123.6L445,123.6z"/>
		</g>
		<path class="st4" d="M427.5,148.4c2.1-1.2,3.8-0.2,3.8,2.2c-0.1,2.6-1.5,5.1-3.8,6.5c-2.1,1.2-3.8,0.2-3.8-2.2
			C423.8,152.3,425.2,149.9,427.5,148.4z"/>
		<path class="st4" d="M412.4,157.1c2.1-1.2,3.8-0.2,3.8,2.2c-0.1,2.6-1.5,5.1-3.8,6.5c-2.1,1.2-3.8,0.2-3.8-2.2
			C408.8,161,410.2,158.6,412.4,157.1z"/>
		<path class="st4" d="M397.4,165.8c2.1-1.2,3.8-0.2,3.8,2.2c-0.1,2.6-1.5,5.1-3.8,6.5c-2.1,1.2-3.8,0.2-3.8-2.2
			C393.8,169.7,395.2,167.3,397.4,165.8z"/>
	</g>
</g>
<g id="freepik--speech-bubble-1--inject-61">
	<g id="freepik--speech-bubble--inject-61_00000174568569174599518190000012950390340771289257_">
		<g id="freepik--shadow--inject-61_00000051350361197085760590000010819972568467965329_" class="st27">
			<path d="M412.2,88.7c0,3.4-2.4,5.6-5.3,7.2l-157.4,90.9c-2.9,1.7-5.3,0.3-5.3-3.1v-59l0,0c0-3.8,2-7.3,5.3-9.2l157.4-90.9
				c1.7-1,3.9-0.4,4.9,1.3c0.3,0.5,0.5,1.2,0.5,1.8l0,0V88.7z"/>
		</g>
		<g id="freepik--speech-bubble--inject-61_00000072965899728343602570000013858439078438338728_">
			<path class="st5" d="M258.6,194.8l-1.2-0.7c-1.9-1.3-3.2-3.4-3.3-5.7v-62.7c0.1-2.3,1.3-4.4,3.3-5.7l156.5-90.4
				c2.1-1,4.5-1,6.5,0l1.2,0.7c1.9,1.3,3.1,3.3,3.3,5.6v62.7c-0.1,2.3-1.3,4.4-3.3,5.7l-105.3,60.8c-2.1,1.3-3.7,3.1-4.9,5.3
				l-12.1,25.7c-1,2-2.4,3.6-4.2,4.9c-1.4,0.8-4,0.6-5.8-0.4l-0.8-0.5c-1.9-1.3-3.1-3.4-3.3-5.7V187c0-2.1-1.5-2.9-3.3-1.9
				l-16.8,9.7C263.1,195.8,260.6,195.8,258.6,194.8z"/>
			<path class="st28" d="M258.6,194.8l-1.2-0.7c-1.9-1.3-3.2-3.4-3.3-5.7v-62.7c0.1-2.3,1.3-4.4,3.3-5.7l156.5-90.4
				c2.1-1,4.5-1,6.5,0l1.2,0.7c1.9,1.3,3.1,3.3,3.3,5.6v62.7c-0.1,2.3-1.3,4.4-3.3,5.7l-105.3,60.8c-2.1,1.3-3.7,3.1-4.9,5.3
				l-12.1,25.7c-1,2-2.4,3.6-4.2,4.9c-1.4,0.8-4,0.6-5.8-0.4l-0.8-0.5c-1.9-1.3-3.1-3.4-3.3-5.7V187c0-2.1-1.5-2.9-3.3-1.9
				l-16.8,9.7C263.1,195.8,260.6,195.8,258.6,194.8z"/>
			<path class="st5" d="M424.9,36c0-2.1-1.5-2.9-3.3-1.9l-156.5,90.4c-0.8,0.5-1.5,1.2-2,2l-7.8-4.5c0.5-0.8,1.2-1.5,2-2l156.5-90.4
				c2.1-1,4.5-1,6.5,0l1.2,0.7C423.6,31.6,424.8,33.7,424.9,36z"/>
			<path class="st29" d="M424.9,36c0-2.1-1.5-2.9-3.3-1.9l-156.5,90.4c-0.8,0.5-1.5,1.2-2,2l-7.8-4.5c0.5-0.8,1.2-1.5,2-2
				l156.5-90.4c2.1-1,4.5-1,6.5,0l1.2,0.7C423.6,31.6,424.8,33.7,424.9,36z"/>
			<path class="st0" d="M294.2,200.7c-0.3,0-0.5-0.2-0.6-0.4c-0.3-0.5-0.4-1-0.4-1.5v-16.1c0-1.8-1-3-2.5-3c-0.6,0-1.3,0.2-1.8,0.5
				l-24.1,13.9c-0.3,0.2-0.7,0.3-1.1,0.4c-1.1,0-1.2-1.2-1.2-1.7v-62.7c0.1-2.1,1.2-4,3-5.1L422,34.7c0.3-0.2,0.7-0.3,1.1-0.4
				c1,0,1.2,1.2,1.2,1.7v62.7c-0.1,2.1-1.2,4-3,5.1L316,164.7c-2.2,1.4-4,3.3-5.1,5.6l-12.1,25.7c-0.9,1.8-2.2,3.4-3.9,4.6
				C294.6,200.7,294.4,200.7,294.2,200.7z"/>
			<path class="st30" d="M423.1,35c0.5,0,0.5,0.7,0.5,1v62.7c-0.1,1.8-1.1,3.5-2.6,4.6l-105.3,60.8c-2.3,1.4-4.1,3.5-5.4,5.9
				l-12.1,25.7c-0.8,1.7-2.1,3.2-3.7,4.3c-0.1,0.1-0.2,0.1-0.3,0.1c-0.1-0.1-0.3-0.4-0.3-1.3v-16.1c0-2.1-1.3-3.6-3.1-3.6
				c-0.7,0-1.5,0.2-2.1,0.6l-24.2,13.9c-0.2,0.2-0.5,0.3-0.8,0.3c-0.5,0-0.5-0.7-0.5-1.1v-62.7c0.1-1.8,1.1-3.5,2.6-4.6l156.5-90.4
				C422.5,35.1,422.8,35,423.1,35 M423.1,33.7c-0.5,0-1,0.2-1.5,0.5l-156.5,90.4c-1.9,1.3-3.1,3.4-3.3,5.7v62.7
				c0,1.5,0.7,2.3,1.8,2.3c0.5,0,1-0.2,1.5-0.4l24.1-14c0.4-0.3,1-0.4,1.5-0.4c1.1,0,1.8,0.9,1.8,2.3v16.1c0,1.6,0.7,2.6,1.6,2.6
				c0.3,0,0.7-0.1,0.9-0.3c1.8-1.3,3.2-2.9,4.2-4.9l12.1-25.7c1.1-2.2,2.8-4,4.9-5.3l105.3-60.8c1.9-1.3,3.2-3.4,3.3-5.7V36
				C424.9,34.5,424.2,33.7,423.1,33.7L423.1,33.7z"/>
		</g>
	</g>
</g>
<g id="freepik--Text--inject-61">
	<path class="st4" d="M276,148.1v-17.6c0-0.6,0.4-1.2,1-1.5l0.8-0.4c0.7-0.4,1-0.3,1,0.3v6.8l3.1-1.8v-6.8c0-0.6,0.4-1.2,1-1.5
		l0.7-0.4c0.7-0.4,1-0.3,1,0.3v17.7c0,0.6-0.4,1.2-1,1.5l-0.7,0.4c-0.7,0.4-1,0.3-1-0.3v-7.2l-3.1,1.8v7.2c0,0.6-0.4,1.2-1,1.5
		l-0.8,0.4C276.4,148.8,276,148.7,276,148.1z"/>
	<path class="st4" d="M287.1,141.7v-12.8c0-0.7,0.5-1.2,1.1-1.5l0.5-0.3c0.7-0.4,1.1-0.3,1.1,0.3v12.8c0,0.7-0.5,1.2-1.1,1.5
		l-0.5,0.3C287.5,142.4,287.1,142.3,287.1,141.7z M287.3,125.6V124c0-0.6,0.4-1.1,1.2-1.6s1.3-0.4,1.3,0.2v1.7
		c0,0.6-0.4,1.1-1.2,1.6S287.3,126.2,287.3,125.6z"/>
	<path class="st4" d="M292,138.9v-2.5c0-0.6,0.4-1.2,1-1.5l0.6-0.3c0.7-0.4,1-0.3,1,0.3v2.5c0,0.6-0.4,1.2-1,1.5l-0.6,0.3
		C292.4,139.6,292,139.5,292,138.9z M292.5,133.1c-0.1-0.1-0.2-0.3-0.2-0.6V121c0-0.6,0.4-1.2,1-1.5l0.8-0.5
		c0.2-0.2,0.5-0.2,0.8-0.2c0.2,0,0.3,0.2,0.3,0.4l-0.9,12.1c0,0.3-0.1,0.6-0.2,0.8c-0.2,0.3-0.4,0.5-0.7,0.6l-0.1,0.1
		C293,133.1,292.7,133.1,292.5,133.1L292.5,133.1z"/>
	<path class="st4" d="M276,174.2v-17.6c0-0.6,0.4-1.2,1-1.5l0.8-0.4c0.7-0.4,1-0.3,1,0.3v6.8l3.1-1.8v-6.8c0-0.6,0.4-1.2,1-1.5
		l0.7-0.4c0.7-0.4,1-0.3,1,0.3v17.6c0,0.6-0.4,1.2-1,1.5l-0.7,0.4c-0.7,0.4-1,0.3-1-0.3v-7.2l-3.1,1.8v7.2c0,0.6-0.4,1.2-1,1.5
		l-0.8,0.4C276.4,174.9,276,174.8,276,174.2z"/>
	<path class="st4" d="M287.7,166.6c-0.6-0.9-0.9-2.6-0.9-5c-0.1-2,0.3-4.1,0.9-6c0.5-1.4,1.4-2.7,2.7-3.5c1.2-0.7,2.1-0.6,2.7,0.3
		s0.9,2.6,0.9,5c0.1,2.1-0.3,4.1-0.9,6.1c-0.5,1.5-1.4,2.7-2.7,3.5C289.3,167.6,288.4,167.5,287.7,166.6z M291.2,162.3
		c0.2-1.1,0.3-2.3,0.2-3.4c0-1,0-2.1-0.2-3.1c-0.1-0.5-0.4-0.7-0.7-0.5c-0.4,0.3-0.7,0.8-0.8,1.4c-0.2,1.1-0.3,2.2-0.2,3.4
		c0,1.1,0,2.1,0.2,3.1c0.1,0.6,0.4,0.7,0.8,0.5C290.9,163.3,291.2,162.8,291.2,162.3L291.2,162.3z"/>
	<path class="st4" d="M297.6,162.5c-0.1,0-0.2-0.1-0.2-0.3l-1.9-11.7c0-0.1,0-0.2,0-0.4c0-0.5,0.4-0.9,1.1-1.4s1.3-0.5,1.3-0.2
		l0.5,6.5l0.2,3h0.1c0.1-1.1,0.2-2.2,0.3-3.4l0.8-7.1c0-0.2,0.1-0.4,0.3-0.6c0.2-0.2,0.4-0.4,0.6-0.5l0.5-0.3
		c0.2-0.1,0.4-0.2,0.6-0.2c0.1,0,0.3,0.1,0.3,0.2c0,0,0,0,0,0.1l0.8,6.3c0.1,0.7,0.2,1.7,0.3,3h0.1c0-0.3,0-0.5,0.1-0.8s0-0.5,0-0.8
		l0.1-1.6l0.5-7.1c0-0.4,0.4-0.8,1.2-1.3s1.1-0.4,1.1,0.1c0,0.2,0,0.3,0,0.4l-1.9,13.9c-0.1,0.4-0.3,0.8-0.7,1l-0.6,0.3
		c-0.2,0.1-0.4,0.2-0.6,0.2c-0.1,0-0.2-0.1-0.2-0.3l-1.1-6.6c0-0.4-0.1-0.8-0.1-1c0-0.5,0-0.9-0.1-1h-0.1c0,0.5-0.1,0.9-0.1,1.1
		c0,0.6,0,1-0.1,1.1l-1.1,7.9c0,0.2-0.1,0.4-0.2,0.6c-0.1,0.2-0.3,0.3-0.5,0.4l-0.6,0.3C297.9,162.5,297.7,162.5,297.6,162.5z"/>
	<path class="st4" d="M310.2,148.1c0-5,1.3-8.2,3.9-9.7c0.4-0.2,0.8-0.4,1.2-0.5c0.3-0.1,0.7,0,1,0.1c0.3,0.2,0.4,0.4,0.4,0.7
		c0,0.5-0.1,1-0.3,1.4c-0.2,0.6-0.4,1-0.5,1.1c-0.1,0-0.2,0-0.3,0c-0.2,0-0.4-0.1-0.6-0.1c-0.2,0-0.4,0.1-0.6,0.2
		c-0.6,0.4-0.9,0.9-1.1,1.6c-0.3,1.1-0.4,2.3-0.4,3.4c-0.1,1,0.1,2,0.3,3c0.1,0.4,0.4,0.6,0.8,0.5c0.1,0,0.2-0.1,0.3-0.1
		c0.2-0.1,0.4-0.3,0.6-0.5c0.2-0.2,0.3-0.4,0.5-0.5l0.2-0.3c0.1-0.1,0.2-0.3,0.3-0.4c0.2-0.1,0.4,0.1,0.5,0.5
		c0.2,0.4,0.3,0.8,0.3,1.2c0,0.4-0.2,0.9-0.5,1.2c-0.3,0.5-0.7,0.9-1.1,1.3c-0.3,0.3-0.7,0.7-1.1,0.9
		C311.4,154.8,310.2,153,310.2,148.1z"/>
	<path class="st4" d="M318.6,149.5c-0.5-0.8-0.7-1.8-0.6-2.8c-0.2-3.1,1.4-6,4.2-7.5v-0.4c0-0.4,0-0.8-0.3-1.2
		c-0.2-0.2-0.5-0.2-0.8,0.1c-0.3,0.1-0.5,0.3-0.7,0.6c-0.2,0.2-0.4,0.5-0.7,0.8c-0.1,0.2-0.2,0.3-0.4,0.4c-0.1,0.1-0.2,0-0.4-0.2
		c-0.2-0.2-0.3-0.5-0.4-0.7c-0.1-0.2-0.1-0.5-0.2-0.8c0-0.4,0.2-0.8,0.4-1.1c0.3-0.5,0.7-0.9,1.1-1.3c0.4-0.4,0.9-0.7,1.4-1
		c1.2-0.7,2.1-0.8,2.7-0.3c0.7,0.9,1,1.9,0.8,3v5c0,0.8,0,1.5,0,1.9s0.1,0.9,0.1,1.4c0,0.2,0.1,0.4,0.1,0.6c0,0.3-0.2,0.7-0.7,1.1
		c-0.4,0.4-0.8,0.7-1.3,1c-0.2,0.1-0.3,0.1-0.4-0.1c-0.1-0.3-0.2-0.6-0.2-0.9c-0.2,0.5-0.4,1.1-0.7,1.5c-0.3,0.5-0.7,0.9-1.2,1.2
		C319.7,150,319.1,150,318.6,149.5z M321.8,145.6c0.2-0.3,0.3-0.6,0.4-0.9v-3.2c-1.2,0.7-1.9,2.1-1.8,3.5c0,0.4,0,0.8,0.2,1.1
		c0.2,0.2,0.4,0.2,0.6,0.1C321.5,146,321.7,145.8,321.8,145.6z"/>
	<path class="st4" d="M327.3,144.6v-8.8c0-1.3,0-2.2-0.1-2.7s-0.1-0.8-0.1-1c0.1-0.5,0.4-0.9,0.8-1.2c0.4-0.4,0.8-0.7,1.3-1
		c0.2-0.1,0.4-0.1,0.4,0.1c0.1,0.2,0.1,0.5,0.2,0.7c0,0.3,0,0.6,0.1,0.7c0.2-0.7,0.6-1.4,1-2.1c0.3-0.6,0.8-1,1.4-1.4
		c0.7-0.4,1.2-0.3,1.5,0.1c0.4,0.8,0.6,1.7,0.5,2.6v10c0,0.6-0.4,1.2-1,1.5l-0.6,0.4c-0.7,0.4-1,0.3-1-0.3v-9c0-0.3,0-0.7-0.1-1
		c-0.1-0.2-0.3-0.2-0.5,0c-0.4,0.4-0.8,0.8-0.9,1.4v9.5c0,0.3-0.1,0.6-0.3,0.8c-0.2,0.3-0.5,0.5-0.8,0.7l-0.6,0.4
		C327.6,145.3,327.3,145.2,327.3,144.6z"/>
	<path class="st4" d="M339.3,137.6V120c0-0.7,0.4-1.2,1-1.5l0.8-0.4c0.7-0.4,1-0.3,1,0.3V136c0,0.6-0.4,1.2-1,1.5l-0.8,0.4
		C339.6,138.4,339.3,138.2,339.3,137.6z"/>
	<path class="st4" d="M347.3,133v-19.1c0-0.6,0.4-1.2,1-1.5l0.6-0.3c0.7-0.4,1-0.3,1,0.3v7.2c0.3-0.7,0.6-1.3,1-1.9
		c0.3-0.5,0.8-1,1.3-1.3c0.7-0.4,1.2-0.3,1.5,0.1c0.4,0.8,0.6,1.7,0.5,2.6v10c0,0.6-0.4,1.2-1,1.5l-0.6,0.4c-0.7,0.4-1,0.3-1-0.3v-9
		c0-0.3,0-0.7-0.2-1c-0.1-0.2-0.3-0.2-0.5,0c-0.4,0.4-0.8,0.8-0.9,1.4v9.6c0,0.6-0.4,1.2-1,1.5l-0.6,0.4
		C347.7,133.7,347.3,133.6,347.3,133z"/>
	<path class="st4" d="M357.1,126.5c-0.7-0.9-1-2.5-1-4.9c-0.1-2.2,0.3-4.3,1-6.4c0.5-1.4,1.5-2.5,2.8-3.3c1.2-0.7,2-0.5,2.5,0.4
		c0.6,1.6,0.9,3.3,0.8,5.1c-0.1,0.4-0.2,0.8-0.4,1.2c-0.1,0.4-0.3,0.7-0.5,1l-3.4,2c-0.1,0.6,0.1,1.2,0.4,1.8c0.2,0.2,0.6,0.2,1,0
		c0.3-0.2,0.5-0.4,0.7-0.6c0.2-0.2,0.4-0.5,0.6-0.8c0.1-0.2,0.2-0.3,0.4-0.4c0.1-0.1,0.2,0,0.4,0.2c0.2,0.2,0.3,0.4,0.4,0.7
		c0.1,0.2,0.1,0.5,0.1,0.7c0,0.5-0.2,1-0.5,1.3c-0.3,0.5-0.7,0.9-1.1,1.3c-0.4,0.3-0.7,0.6-1.2,0.9
		C358.8,127.4,357.8,127.4,357.1,126.5z M360.8,118c0-0.9,0-1.8-0.2-2.7c-0.1-0.5-0.4-0.6-0.7-0.4c-0.4,0.3-0.7,0.7-0.7,1.2
		c-0.2,1-0.3,2-0.3,3L360.8,118z"/>
	<path class="st4" d="M365,119.6v-15.9c0.1-0.7,0.5-1.2,1.1-1.5l0.5-0.3c0.7-0.4,1.1-0.3,1.1,0.3v16c0,0.2,0,0.4,0.1,0.6
		c0.1,0.1,0.2,0.1,0.3,0c0.1,0,0.1-0.1,0.2-0.2c0.1-0.1,0.1-0.1,0.2-0.2c0.1-0.1,0.3,0.1,0.4,0.5c0.1,0.4,0.1,0.8,0.1,1.2
		c0,0.5-0.2,0.9-0.5,1.3c-0.3,0.4-0.7,0.7-1.2,1C365.8,123.4,365,122.4,365,119.6z"/>
	<path class="st4" d="M370.4,125.3V111c0-0.8,0-1.5,0-1.9s-0.1-0.9-0.1-1.4c0-0.2,0-0.4,0-0.6c0-0.3,0.2-0.7,0.7-1.1
		c0.4-0.4,0.8-0.7,1.3-1c0.2-0.1,0.4-0.1,0.5,0.2c0.1,0.4,0.2,0.7,0.2,1.1c0.2-0.6,0.4-1.3,0.8-1.8c0.3-0.5,0.7-0.9,1.1-1.2
		c0.4-0.3,1-0.3,1.4,0.1c0.5,0.6,0.8,1.3,1,2c0.3,1.3,0.4,2.6,0.4,3.9c0,2-0.2,4-0.8,5.9c-0.3,1.3-1.1,2.4-2.2,3.2
		c-0.4,0.3-1,0.4-1.5,0.1v5.4c0,0.7-0.5,1.2-1.1,1.5l-0.5,0.3C370.7,126,370.4,125.9,370.4,125.3z M374.5,114.1
		c0.2-1.1,0.3-2.2,0.2-3.4c0-1,0-2-0.2-3c-0.1-0.6-0.4-0.8-0.7-0.6c-0.5,0.4-0.8,1-0.9,1.6v6.8c0.2,0.1,0.5,0.1,0.7,0
		C374.2,115.2,374.5,114.7,374.5,114.1z"/>
	<path class="st4" d="M388.7,96.1c0,0.1,0,0.2,0,0.5l-3,20.2c-0.1,0.5-0.5,0.9-1,1.2l-0.4,0.2c-0.7,0.4-1,0.4-1,0
		c0-0.2,0-0.3,0.1-0.5l1-6.4c-0.1,0.1-0.3,0.1-0.4,0.1c-0.1,0-0.2-0.1-0.2-0.3l-2.1-10.3c0-0.2-0.1-0.4-0.1-0.6
		c0-0.4,0.3-0.8,0.9-1.2l0.8-0.4c0.2-0.1,0.4-0.2,0.6-0.2c0.1,0,0.2,0.1,0.3,0.3l0.7,5.2c0.1,0.6,0.2,1.6,0.3,2.9h0.1
		c0.1-0.7,0.1-1.1,0.1-1.3c0.1-0.9,0.1-1.6,0.2-2l0.7-6.1c0.1-0.5,0.5-0.9,1-1.1l0.5-0.3C388.3,95.7,388.7,95.7,388.7,96.1z"/>
	<path class="st4" d="M390.7,107.1c-0.6-0.9-0.9-2.6-0.9-5c0-2,0.3-4.1,0.9-6c0.5-1.4,1.4-2.7,2.7-3.5c1.2-0.7,2.1-0.6,2.8,0.3
		s0.9,2.6,0.9,5c0.1,2.1-0.3,4.1-0.9,6.1c-0.5,1.5-1.5,2.7-2.8,3.5C392.3,108.1,391.4,108,390.7,107.1z M394.2,102.8
		c0.2-1.1,0.2-2.3,0.2-3.4c0-1,0-2.1-0.2-3.1c-0.2-0.5-0.4-0.7-0.8-0.5c-0.4,0.3-0.7,0.8-0.8,1.4c-0.2,1.1-0.3,2.3-0.2,3.4
		c0,1.1,0,2.1,0.2,3.1c0.1,0.6,0.4,0.7,0.8,0.5C393.9,103.8,394.2,103.3,394.2,102.8L394.2,102.8z"/>
	<path class="st4" d="M399.5,103c-0.4-0.8-0.6-1.7-0.5-2.6v-10c0-0.6,0.4-1.2,1-1.5l0.6-0.3c0.7-0.4,1-0.3,1,0.3V98
		c0,0.3,0,0.7,0.1,1c0.1,0.2,0.3,0.2,0.5,0c0.4-0.4,0.8-0.8,0.9-1.4V88c0-0.3,0.1-0.6,0.3-0.8c0.2-0.3,0.5-0.5,0.8-0.7l0.6-0.4
		c0.7-0.4,1-0.3,1,0.3v8.8c0,1.3,0,2.3,0.1,2.8c0.1,0.5,0.1,0.9,0.1,1c0,0.3-0.2,0.7-0.8,1.2c-0.4,0.4-0.8,0.7-1.3,1
		c-0.2,0.1-0.4,0.1-0.5,0c-0.1-0.2-0.1-0.5-0.1-0.7c0-0.3,0-0.5-0.1-0.7c-0.3,0.7-0.6,1.4-1,2.1c-0.3,0.5-0.8,1-1.3,1.3
		C400.4,103.4,399.9,103.4,399.5,103z"/>
	<path class="st4" d="M409.2,91.8c-0.1,0-0.2-0.2-0.2-0.5c0-0.8,0.1-1.6,0.3-2.3c0.2-0.8,0.5-1.7,0.8-2.5l0.4-1
		c0.3-0.8,0.6-1.4,0.7-1.9c0.1-0.4,0.2-0.8,0.2-1.2c0-1-0.4-1.3-1.2-0.9c-0.2,0.1-0.5,0.3-0.6,0.6c-0.2,0.2-0.4,0.5-0.6,0.8
		c-0.1,0.2-0.2,0.3-0.4,0.4c-0.1,0.1-0.3,0.1-0.5-0.1c-0.2-0.2-0.3-0.5-0.5-0.7c-0.1-0.2-0.2-0.5-0.2-0.8c0-0.5,0.2-1,0.5-1.5
		c0.3-0.5,0.7-1,1.2-1.4c0.4-0.4,0.9-0.8,1.4-1.1c1.1-0.6,2-0.7,2.6-0.3s1,1.4,1,2.9c0,0.7-0.1,1.3-0.2,2c-0.1,0.6-0.3,1.1-0.5,1.7
		c-0.2,0.5-0.5,1.1-0.8,1.8c-0.4,0.7-0.7,1.4-1,2.2c-0.2,0.6-0.4,1.3-0.5,2c0,0.3-0.1,0.5-0.3,0.7c-0.2,0.2-0.4,0.4-0.7,0.6
		l-0.4,0.2C409.8,91.7,409.5,91.8,409.2,91.8z M408.8,97.5V95c0.1-0.7,0.5-1.2,1.1-1.5l0.6-0.3c0.7-0.4,1.1-0.3,1.1,0.3V96
		c0,0.7-0.5,1.2-1.1,1.5l-0.6,0.3C409.2,98.2,408.8,98.1,408.8,97.5z"/>
</g>
<g id="freepik--Gears--inject-61">
	<g id="freepik--gears--inject-61">
		<path id="freepik--shadow--inject-61_00000102519300464238796940000006418750213953914550_" class="st20" d="M204.2,473.2
			c-1.9,0-3.6-1.4-4-3.3l-0.7-3.6c-1.5-0.3-3-0.7-4.5-1.1l-6.9,3.2c-0.6,0.3-1.3,0.4-2,0.4c-0.8,0-1.6-0.2-2.4-0.6l-7.1-4.1
			c-1.7-0.9-2.3-3.1-1.4-4.8c0.3-0.5,0.6-0.9,1.1-1.2l3.7-2.7c-0.2-0.3-0.3-0.5-0.5-0.8l-8.7-0.5c-2.1-0.2-3.7-1.9-3.7-3.9v-5.3
			c0-2.1,1.6-3.8,3.7-3.9l8.7-0.5c0.2-0.3,0.3-0.5,0.5-0.8l-3.7-2.6c-1.6-1.1-2-3.3-0.9-4.9c0.3-0.5,0.7-0.9,1.2-1.1l7.1-4.1
			c0.7-0.4,1.5-0.6,2.4-0.6c0.7,0,1.4,0.1,2,0.4l6.9,3.2c1.5-0.5,3-0.8,4.5-1.1l0.7-3.6c0.4-1.9,2.1-3.3,4-3.3h10.4
			c1.9,0,3.6,1.4,4,3.3l0.7,3.6c1.5,0.3,3,0.7,4.5,1.1l6.9-3.2c0.6-0.3,1.3-0.4,2-0.4c0.8,0,1.7,0.2,2.4,0.6l7.1,4.1
			c1.7,0.9,2.3,3,1.4,4.8c-0.3,0.5-0.7,0.9-1.1,1.2l-3.7,2.7c0.2,0.2,0.4,0.5,0.5,0.8l8.6,0.6c2.1,0.2,3.7,1.9,3.7,3.9v5.3
			c-0.1,2.1-1.6,3.7-3.7,3.9l-8.7,0.5c-0.1,0.3-0.3,0.5-0.5,0.8l3.7,2.7c1.6,1.1,2,3.3,0.9,4.9c-0.3,0.5-0.7,0.8-1.2,1.1l-7.1,4.1
			c-0.7,0.4-1.5,0.6-2.4,0.6l0,0c-0.7,0-1.4-0.1-2-0.4l-6.9-3.2c-1.5,0.5-3,0.8-4.5,1.1l-0.7,3.6c-0.4,1.9-2.1,3.3-4,3.3H204.2z
			 M209.4,440.8c-3.6-0.1-7.3,0.8-10.5,2.5c-2.2,1.3-3.5,2.9-3.5,4.3s1.3,3,3.5,4.3c6.6,3.3,14.4,3.3,21,0c2.2-1.3,3.5-2.8,3.5-4.3
			s-1.3-3-3.5-4.3C216.7,441.5,213.1,440.7,209.4,440.8L209.4,440.8z"/>
		<path class="st5" d="M240.7,427.4l-7.1-4.1c-0.5-0.3-1.1-0.3-1.6-0.1l-7.2,3.3c-0.5,0.2-1.1,0.2-1.6,0.1c-1.8-0.6-3.7-1-5.6-1.3
			c-0.5-0.1-0.9-0.5-1-1l-0.9-4.7c-0.1-0.5-0.5-0.9-1.1-0.9h-10.5c-0.5,0-0.9,0.4-1.1,0.9l-0.9,4.7c-0.1,0.5-0.5,0.9-1,1
			c-1.9,0.3-3.8,0.8-5.6,1.3c-0.5,0.1-1.1,0.1-1.6-0.1l-7.2-3.3c-0.5-0.2-1.1-0.2-1.6,0.1l-7.1,4.1c-0.2,0.1-0.3,0.3-0.3,0.5l0,0
			v6.1l0,0c0,0.2,0.1,0.4,0.3,0.5l3.3,2.4c-0.2,0.2-0.5,0.3-0.8,0.3l-9.4,0.6c-0.5,0.1-0.9,0.5-0.9,0.9v4l0,0v7.4
			c0,0.5,0.4,0.9,0.9,0.9l9.4,0.6c0.3,0,0.6,0.1,0.8,0.3l-3.2,2.3c-0.2,0.1-0.3,0.3-0.3,0.5l0,0v6.2l0,0c0,0.2,0.1,0.4,0.3,0.5
			l7.1,4.1c0.5,0.3,1.1,0.3,1.6,0.1l7.2-3.3c0.5-0.2,1.1-0.2,1.6-0.1c1.8,0.6,3.7,1,5.6,1.3c0.5,0.1,0.9,0.5,1,1l0.9,4.7
			c0.1,0.5,0.5,0.8,1.1,0.9h10.4c0.5,0,0.9-0.4,1-0.9l0.9-4.7c0.1-0.5,0.5-0.9,1-1c1.9-0.3,3.8-0.8,5.6-1.3c0.5-0.1,1.1-0.1,1.6,0.1
			l7.2,3.3c0.5,0.2,1.1,0.2,1.6-0.1l7.1-4.1c0.2-0.1,0.3-0.3,0.3-0.5l0,0v-6.2l0,0c0-0.2-0.1-0.4-0.3-0.5l-3.2-2.4
			c0.2-0.2,0.5-0.3,0.8-0.3l9.4-0.6c0.5-0.1,0.9-0.5,0.9-0.9v-11.4c0-0.5-0.4-0.9-0.9-0.9l-9.4-0.6c-0.3,0-0.6-0.1-0.8-0.3l3.2-2.3
			c0.2-0.1,0.3-0.3,0.3-0.5l0,0v-6.1l0,0C241,427.7,240.9,427.5,240.7,427.4z M192.8,443.4c0.5-1.7,2-3.4,4.6-4.9
			c6.6-3.8,17.4-3.8,24,0c2,1,3.6,2.6,4.7,4.5c-0.6,1.9-2.1,3.8-4.7,5.3c-6.6,3.8-17.4,3.8-24,0
			C195.4,447.3,193.7,445.5,192.8,443.4z"/>
		<path class="st31" d="M240.7,427.4l-7.1-4.1c-0.5-0.3-1.1-0.3-1.6-0.1l-7.2,3.3c-0.5,0.2-1.1,0.2-1.6,0.1c-1.8-0.6-3.7-1-5.6-1.3
			c-0.5-0.1-0.9-0.5-1-1l-0.9-4.7c-0.1-0.5-0.5-0.9-1.1-0.9h-10.5c-0.5,0-0.9,0.4-1.1,0.9l-0.9,4.7c-0.1,0.5-0.5,0.9-1,1
			c-1.9,0.3-3.8,0.8-5.6,1.3c-0.5,0.1-1.1,0.1-1.6-0.1l-7.2-3.3c-0.5-0.2-1.1-0.2-1.6,0.1l-7.1,4.1c-0.2,0.1-0.3,0.3-0.3,0.5l0,0
			v6.1l0,0c0,0.2,0.1,0.4,0.3,0.5l3.3,2.4c-0.2,0.2-0.5,0.3-0.8,0.3l-9.4,0.6c-0.5,0.1-0.9,0.5-0.9,0.9v4l0,0v7.4
			c0,0.5,0.4,0.9,0.9,0.9l9.4,0.6c0.3,0,0.6,0.1,0.8,0.3l-3.2,2.3c-0.2,0.1-0.3,0.3-0.3,0.5l0,0v6.2l0,0c0,0.2,0.1,0.4,0.3,0.5
			l7.1,4.1c0.5,0.3,1.1,0.3,1.6,0.1l7.2-3.3c0.5-0.2,1.1-0.2,1.6-0.1c1.8,0.6,3.7,1,5.6,1.3c0.5,0.1,0.9,0.5,1,1l0.9,4.7
			c0.1,0.5,0.5,0.8,1.1,0.9h10.4c0.5,0,0.9-0.4,1-0.9l0.9-4.7c0.1-0.5,0.5-0.9,1-1c1.9-0.3,3.8-0.8,5.6-1.3c0.5-0.1,1.1-0.1,1.6,0.1
			l7.2,3.3c0.5,0.2,1.1,0.2,1.6-0.1l7.1-4.1c0.2-0.1,0.3-0.3,0.3-0.5l0,0v-6.2l0,0c0-0.2-0.1-0.4-0.3-0.5l-3.2-2.4
			c0.2-0.2,0.5-0.3,0.8-0.3l9.4-0.6c0.5-0.1,0.9-0.5,0.9-0.9v-11.4c0-0.5-0.4-0.9-0.9-0.9l-9.4-0.6c-0.3,0-0.6-0.1-0.8-0.3l3.2-2.3
			c0.2-0.1,0.3-0.3,0.3-0.5l0,0v-6.1l0,0C241,427.7,240.9,427.5,240.7,427.4z M192.8,443.4c0.5-1.7,2-3.4,4.6-4.9
			c6.6-3.8,17.4-3.8,24,0c2,1,3.6,2.6,4.7,4.5c-0.6,1.9-2.1,3.8-4.7,5.3c-6.6,3.8-17.4,3.8-24,0
			C195.4,447.3,193.7,445.5,192.8,443.4z"/>
		<path class="st13" d="M181.8,446.4c-0.3-0.5-0.7-0.8-1.3-0.9l-9.4-0.6c-0.5-0.1-0.9-0.5-0.9-0.9v-1.2v7.4c0,0.5,0.4,0.9,0.9,1
			l9.5,0.6c0.3,0,0.6,0.2,0.8,0.4l2.4-1.7c0.3-0.2,0.4-0.7,0.2-1c0,0-0.1-0.1-0.1-0.1C183.1,448.3,182.4,447.4,181.8,446.4z
			 M177.8,434L177.8,434c0,0.2,0.1,0.4,0.3,0.5l3.3,2.4c0.2-0.1,0.4-0.3,0.5-0.5c0.6-1,1.2-1.9,2-2.8c0.3-0.3,0.3-0.8,0-1
			c0,0-0.1-0.1-0.1-0.1l-5.6-4c-0.1-0.1-0.2-0.2-0.3-0.4V434z"/>
		<path class="st13" d="M221.4,434.5c-6.6-3.8-17.4-3.8-24,0c-4.2,2.4-5.7,5.8-4.6,8.9c0.5-1.7,2-3.4,4.6-4.9c6.6-3.8,17.4-3.8,24,0
			c2,1,3.6,2.6,4.7,4.5C227,440,225.4,436.8,221.4,434.5z"/>
		<path class="st5" d="M248.6,444.1c-0.1,0.4-0.4,0.8-0.9,0.8l-9.4,0.6c-0.2,0-0.3,0-0.5,0.1v6.2c0.1-0.1,0.3-0.1,0.5-0.1l9.4-0.6
			c0.5-0.1,0.9-0.5,0.9-0.9L248.6,444.1z M241,427.9L241,427.9c0,0.1,0,0.1,0,0.2c0,0.1-0.1,0.1-0.1,0.2c0,0-0.1,0.1-0.1,0.1l-5.6,4
			c-0.1,0-0.1,0.1-0.1,0.1c-0.1,0.1-0.1,0.2-0.2,0.4c0,0.1,0,0.2,0,0.2c0,0,0,0.1,0,0.1c0,0.1,0.1,0.2,0.2,0.3c0,0,0.1,0.1,0.1,0.1
			c0.7,0.8,1.4,1.7,1.9,2.6c0.1,0.2,0.3,0.4,0.4,0.5l3.2-2.3c0.2-0.1,0.3-0.3,0.3-0.5l0,0V427.9z M241,454.9c0,0.2-0.2,0.3-0.3,0.4
			l-7.1,4.1c-0.3,0.2-0.7,0.2-1.1,0.2v6.1c0.4,0,0.8,0,1.1-0.2l7.1-4.1c0.2-0.1,0.3-0.3,0.3-0.5V454.9z M194.7,456
			c-0.2,0-0.5,0.1-0.7,0.2l-7.2,3.3c-0.2,0.1-0.4,0.1-0.6,0.1v6.1c0.2,0,0.4,0,0.6-0.1l7.2-3.3c0.2-0.1,0.5-0.1,0.7-0.2L194.7,456z
			 M215.5,463.5c-0.2,0.3-0.5,0.5-0.9,0.5h-10.4c-0.2,0-0.5-0.1-0.6-0.2v6.2c0.2,0.1,0.4,0.2,0.6,0.2h10.4c0.4,0,0.7-0.2,0.9-0.5
			L215.5,463.5z"/>
		<path class="st32" d="M248.6,444.1c-0.1,0.4-0.4,0.8-0.9,0.8l-9.4,0.6c-0.2,0-0.3,0-0.5,0.1v6.2c0.1-0.1,0.3-0.1,0.5-0.1l9.4-0.6
			c0.5-0.1,0.9-0.5,0.9-0.9L248.6,444.1z M241,427.9L241,427.9c0,0.1,0,0.1,0,0.2c0,0.1-0.1,0.1-0.1,0.2c0,0-0.1,0.1-0.1,0.1l-5.6,4
			c-0.1,0-0.1,0.1-0.1,0.1c-0.1,0.1-0.1,0.2-0.2,0.4c0,0.1,0,0.2,0,0.2c0,0,0,0.1,0,0.1c0,0.1,0.1,0.2,0.2,0.3c0,0,0.1,0.1,0.1,0.1
			c0.7,0.8,1.4,1.7,1.9,2.6c0.1,0.2,0.3,0.4,0.4,0.5l3.2-2.3c0.2-0.1,0.3-0.3,0.3-0.5l0,0V427.9z M241,454.9c0,0.2-0.2,0.3-0.3,0.4
			l-7.1,4.1c-0.3,0.2-0.7,0.2-1.1,0.2v6.1c0.4,0,0.8,0,1.1-0.2l7.1-4.1c0.2-0.1,0.3-0.3,0.3-0.5V454.9z M194.7,456
			c-0.2,0-0.5,0.1-0.7,0.2l-7.2,3.3c-0.2,0.1-0.4,0.1-0.6,0.1v6.1c0.2,0,0.4,0,0.6-0.1l7.2-3.3c0.2-0.1,0.5-0.1,0.7-0.2L194.7,456z
			 M215.5,463.5c-0.2,0.3-0.5,0.5-0.9,0.5h-10.4c-0.2,0-0.5-0.1-0.6-0.2v6.2c0.2,0.1,0.4,0.2,0.6,0.2h10.4c0.4,0,0.7-0.2,0.9-0.5
			L215.5,463.5z"/>
		<path class="st5" d="M232.1,423.2l-7.2,3.3c-0.5,0.2-1.1,0.2-1.6,0.1c-1.8-0.6-3.7-1-5.6-1.3c-0.5-0.1-0.9-0.5-1-1l-0.9-4.7
			c-0.1-0.5-0.5-0.9-1.1-0.9h-10.5c-0.5,0-0.9,0.4-1.1,0.9l-0.9,4.7c-0.1,0.5-0.5,0.9-1,1c-1.9,0.3-3.8,0.8-5.6,1.3
			c-0.5,0.1-1.1,0.1-1.6-0.1l-7.2-3.3c-0.5-0.2-1.1-0.2-1.6,0.1l-7.1,4.1c-0.3,0.1-0.4,0.4-0.3,0.7c0.1,0.2,0.2,0.3,0.3,0.3l5.6,4
			c0.3,0.2,0.4,0.7,0.2,1c0,0-0.1,0.1-0.1,0.1c-0.8,0.8-1.4,1.8-2,2.8c-0.3,0.5-0.7,0.8-1.3,0.8l-9.4,0.6c-0.5,0.1-0.9,0.5-0.9,0.9
			v5.2c0,0.5,0.4,0.9,0.9,0.9l9.4,0.6c0.5,0.1,1,0.4,1.3,0.8c0.6,1,1.2,1.9,2,2.8c0.3,0.3,0.3,0.8,0,1c0,0-0.1,0.1-0.1,0.1l-5.6,4
			c-0.3,0.1-0.4,0.4-0.3,0.7c0.1,0.2,0.2,0.3,0.3,0.3l7.1,4.1c0.5,0.3,1.1,0.3,1.6,0.1l7.2-3.3c0.5-0.2,1.1-0.2,1.6-0.1
			c1.8,0.6,3.7,1,5.6,1.3c0.5,0.1,0.9,0.5,1,1l0.9,4.7c0.1,0.5,0.5,0.9,1.1,0.9h10.4c0.5,0,0.9-0.4,1.1-0.9l0.9-4.7
			c0.1-0.5,0.5-0.9,1-1c1.9-0.3,3.8-0.8,5.6-1.3c0.5-0.1,1.1-0.1,1.6,0.1l7.2,3.3c0.5,0.2,1.1,0.2,1.6-0.1l7.1-4.1
			c0.3-0.1,0.4-0.4,0.3-0.7c-0.1-0.2-0.2-0.3-0.3-0.3l-5.6-4c-0.3-0.2-0.4-0.7-0.2-1c0,0,0.1-0.1,0.1-0.1c0.8-0.8,1.4-1.8,2-2.8
			c0.3-0.5,0.7-0.8,1.3-0.9l9.4-0.6c0.5-0.1,0.9-0.5,0.9-0.9v-5.3c0-0.5-0.4-0.9-0.9-0.9l-9.4-0.6c-0.5-0.1-1-0.4-1.3-0.8
			c-0.6-1-1.2-1.9-2-2.8c-0.3-0.3-0.3-0.8,0-1c0,0,0.1-0.1,0.1-0.1l5.6-4c0.3-0.1,0.4-0.4,0.3-0.7c-0.1-0.2-0.2-0.3-0.3-0.3
			l-7.1-4.1C233.1,423,232.5,423,232.1,423.2z M221.4,434.5c6.6,3.8,6.6,10,0,13.8s-17.4,3.8-24,0s-6.6-10,0-13.8
			S214.8,430.6,221.4,434.5z"/>
		<g class="st33">
			<path class="st15" d="M232.1,423.2l-7.2,3.3c-0.5,0.2-1.1,0.2-1.6,0.1c-1.8-0.6-3.7-1-5.6-1.3c-0.5-0.1-0.9-0.5-1-1l-0.9-4.7
				c-0.1-0.5-0.5-0.9-1.1-0.9h-10.5c-0.5,0-0.9,0.4-1.1,0.9l-0.9,4.7c-0.1,0.5-0.5,0.9-1,1c-1.9,0.3-3.8,0.8-5.6,1.3
				c-0.5,0.1-1.1,0.1-1.6-0.1l-7.2-3.3c-0.5-0.2-1.1-0.2-1.6,0.1l-7.1,4.1c-0.3,0.1-0.4,0.4-0.3,0.7c0.1,0.2,0.2,0.3,0.3,0.3l5.6,4
				c0.3,0.2,0.4,0.7,0.2,1c0,0-0.1,0.1-0.1,0.1c-0.8,0.8-1.4,1.8-2,2.8c-0.3,0.5-0.7,0.8-1.3,0.8l-9.4,0.6c-0.5,0.1-0.9,0.5-0.9,0.9
				v5.2c0,0.5,0.4,0.9,0.9,0.9l9.4,0.6c0.5,0.1,1,0.4,1.3,0.8c0.6,1,1.2,1.9,2,2.8c0.3,0.3,0.3,0.8,0,1c0,0-0.1,0.1-0.1,0.1l-5.6,4
				c-0.3,0.1-0.4,0.4-0.3,0.7c0.1,0.2,0.2,0.3,0.3,0.3l7.1,4.1c0.5,0.3,1.1,0.3,1.6,0.1l7.2-3.3c0.5-0.2,1.1-0.2,1.6-0.1
				c1.8,0.6,3.7,1,5.6,1.3c0.5,0.1,0.9,0.5,1,1l0.9,4.7c0.1,0.5,0.5,0.9,1.1,0.9h10.4c0.5,0,0.9-0.4,1.1-0.9l0.9-4.7
				c0.1-0.5,0.5-0.9,1-1c1.9-0.3,3.8-0.8,5.6-1.3c0.5-0.1,1.1-0.1,1.6,0.1l7.2,3.3c0.5,0.2,1.1,0.2,1.6-0.1l7.1-4.1
				c0.3-0.1,0.4-0.4,0.3-0.7c-0.1-0.2-0.2-0.3-0.3-0.3l-5.6-4c-0.3-0.2-0.4-0.7-0.2-1c0,0,0.1-0.1,0.1-0.1c0.8-0.8,1.4-1.8,2-2.8
				c0.3-0.5,0.7-0.8,1.3-0.9l9.4-0.6c0.5-0.1,0.9-0.5,0.9-0.9v-5.3c0-0.5-0.4-0.9-0.9-0.9l-9.4-0.6c-0.5-0.1-1-0.4-1.3-0.8
				c-0.6-1-1.2-1.9-2-2.8c-0.3-0.3-0.3-0.8,0-1c0,0,0.1-0.1,0.1-0.1l5.6-4c0.3-0.1,0.4-0.4,0.3-0.7c-0.1-0.2-0.2-0.3-0.3-0.3
				l-7.1-4.1C233.1,423,232.5,423,232.1,423.2z M221.4,434.5c6.6,3.8,6.6,10,0,13.8s-17.4,3.8-24,0s-6.6-10,0-13.8
				S214.8,430.6,221.4,434.5z"/>
			<path class="st15" d="M214.6,464.4h-10.4c-0.7,0-1.3-0.5-1.4-1.2l-0.9-4.7c-0.1-0.4-0.4-0.7-0.8-0.7c-1.9-0.3-3.8-0.8-5.6-1.3
				c-0.5-0.1-1-0.1-1.4,0.1l-7.1,3.3c-0.6,0.2-1.3,0.2-1.9-0.1l-7.1-4.1c-0.4-0.2-0.6-0.7-0.4-1.2c0.1-0.2,0.2-0.3,0.3-0.4l5.6-4
				c0.1-0.1,0.2-0.2,0.2-0.3c0-0.1,0-0.3-0.1-0.4c-0.8-0.9-1.5-1.8-2.1-2.9c-0.2-0.4-0.6-0.6-1-0.7l-9.4-0.6
				c-0.7-0.1-1.2-0.6-1.2-1.3v-5.3c0-0.7,0.5-1.2,1.2-1.3l9.4-0.6c0.4-0.1,0.8-0.3,1-0.7c0.6-1,1.2-2,2.1-2.9
				c0.1-0.1,0.1-0.2,0.1-0.4c0-0.1-0.1-0.2-0.2-0.3l-5.6-4c-0.4-0.3-0.6-0.8-0.3-1.2c0.1-0.1,0.2-0.3,0.4-0.3l7.1-4.1
				c0.6-0.3,1.3-0.3,1.9-0.1l7.2,3.3c0.4,0.2,0.9,0.2,1.4,0.1c1.8-0.6,3.7-1,5.6-1.3c0.4-0.1,0.7-0.4,0.8-0.7l0.9-4.7
				c0.1-0.7,0.7-1.1,1.4-1.2h10.4c0.7,0,1.3,0.5,1.4,1.2l0.9,4.7c0.1,0.4,0.4,0.7,0.8,0.7c1.9,0.3,3.8,0.8,5.6,1.3
				c0.5,0.1,0.9,0.1,1.4-0.1l7.2-3.3c0.6-0.2,1.3-0.2,1.9,0.1l7.1,4.1c0.4,0.2,0.6,0.7,0.4,1.2c-0.1,0.2-0.2,0.3-0.3,0.4l-5.6,4
				c-0.1,0.1-0.2,0.2-0.2,0.3c0,0.1,0,0.3,0.1,0.4c0.8,0.9,1.5,1.8,2.1,2.9c0.2,0.4,0.6,0.6,1,0.7l9.4,0.6c0.7,0,1.2,0.6,1.2,1.3
				v5.2c0,0.7-0.5,1.2-1.2,1.3l-9.4,0.6c-0.4,0.1-0.8,0.3-1,0.7c-0.6,1-1.3,2-2.1,2.9c-0.1,0.1-0.1,0.2-0.1,0.4
				c0,0.1,0.1,0.2,0.2,0.3l5.6,4c0.3,0.2,0.4,0.5,0.4,0.8c0,0.3-0.2,0.6-0.5,0.8l-7.1,4.1c-0.6,0.3-1.3,0.3-1.9,0.1l-7.2-3.3
				c-0.4-0.2-0.9-0.2-1.4-0.1c-1.8,0.6-3.7,1-5.6,1.3c-0.4,0.1-0.7,0.4-0.8,0.7l-0.9,4.7C215.9,463.9,215.3,464.4,214.6,464.4z
				 M195,455.6c0.3,0,0.5,0,0.8,0.1c1.8,0.6,3.7,1,5.5,1.3c0.7,0.1,1.2,0.6,1.3,1.3l0.9,4.7c0.1,0.3,0.4,0.6,0.7,0.6h10.4
				c0.3,0,0.6-0.3,0.7-0.6l0.9-4.7c0.2-0.7,0.7-1.2,1.3-1.3c1.9-0.3,3.7-0.8,5.5-1.3c0.6-0.2,1.3-0.1,1.9,0.1l7.2,3.3
				c0.4,0.2,0.9,0.1,1.2-0.1l7.1-4.1c0.1-0.1,0.1-0.1,0.1-0.2c0-0.1-0.1-0.2-0.1-0.2l-5.6-4c-0.3-0.2-0.4-0.5-0.5-0.8
				c0-0.3,0.1-0.7,0.3-0.9c0.8-0.8,1.4-1.7,1.9-2.7c0.3-0.6,0.9-0.9,1.6-1l9.5-0.6c0.3,0,0.6-0.3,0.6-0.6v-5.3
				c0-0.3-0.3-0.6-0.6-0.6l-9.4-0.6c-0.7-0.1-1.2-0.4-1.6-1c-0.5-1-1.2-1.9-1.9-2.7c-0.2-0.2-0.3-0.6-0.3-0.9c0-0.3,0.2-0.6,0.5-0.8
				l5.6-4c0.1-0.1,0.1-0.1,0.1-0.2s-0.1-0.1-0.1-0.2l-7.1-4.1c-0.4-0.2-0.8-0.2-1.2-0.1l-7.2,3.2c-0.6,0.2-1.3,0.3-1.9,0.1
				c-1.8-0.6-3.7-1-5.5-1.3c-0.7-0.1-1.2-0.6-1.3-1.3l-0.9-4.7c-0.1-0.3-0.4-0.6-0.7-0.6h-10.4c-0.3,0-0.6,0.3-0.7,0.6l-0.9,4.7
				c-0.2,0.6-0.7,1.1-1.3,1.3c-1.9,0.3-3.7,0.8-5.5,1.3c-0.6,0.2-1.3,0.1-1.9-0.1l-7.2-3.3c-0.4-0.2-0.9-0.1-1.2,0.1l-7.1,4.1
				c-0.1,0.1-0.1,0.1-0.1,0.2s0.1,0.1,0.1,0.2l5.6,4c0.3,0.2,0.4,0.5,0.5,0.8c0,0.3-0.1,0.7-0.3,0.9c-0.8,0.8-1.4,1.7-2,2.7
				c-0.3,0.6-0.9,0.9-1.6,1l-9.5,0.6c-0.3,0-0.5,0.3-0.6,0.6v5.3c0,0.3,0.2,0.6,0.6,0.6l9.5,0.6c0.6,0.1,1.2,0.4,1.6,1
				c0.6,1,1.2,1.9,2,2.7c0.4,0.4,0.4,1.2,0,1.6c0,0-0.1,0.1-0.1,0.1l-5.6,4c-0.1,0.1-0.1,0.1-0.1,0.2s0.1,0.1,0.1,0.2l7.1,4.1
				c0.4,0.2,0.8,0.2,1.2,0.1l7.2-3.3C194.2,455.7,194.6,455.6,195,455.6z M209.4,451.5c-4.2,0.1-8.4-0.9-12.2-2.9
				c-3.3-1.9-5.1-4.5-5.1-7.2s1.8-5.3,5.1-7.2c6.7-3.9,17.6-3.9,24.3,0l0,0c3.3,1.9,5.1,4.5,5.1,7.2s-1.8,5.3-5.1,7.2
				C217.9,450.6,213.7,451.6,209.4,451.5L209.4,451.5z M209.4,431.9c-4.1-0.1-8.2,0.9-11.8,2.8c-3.1,1.8-4.8,4.1-4.8,6.6
				s1.7,4.8,4.8,6.6c6.5,3.8,17.1,3.8,23.6,0c3.1-1.8,4.8-4.1,4.8-6.6s-1.7-4.8-4.8-6.6C217.6,432.8,213.5,431.9,209.4,431.9
				L209.4,431.9z"/>
		</g>
		<path id="freepik--shadow--inject-61_00000014607390735198146100000006958702593373581452_" class="st20" d="M260.7,429.7
			c-0.1,0-0.3,0-0.4,0l-6.2-0.7c-2.2-0.2-3.9-2.2-3.6-4.5c0,0,0,0,0-0.1l0.1-1c-0.5-0.2-1-0.4-1.5-0.6l0,0H249l-4.7,1.5
			c-0.5,0.1-0.9,0.2-1.4,0.2c-1.2,0-2.4-0.4-3.3-1.1l-3.1-2.6c-1.6-1.3-1.9-3.6-0.6-5.1c0.3-0.4,0.8-0.8,1.3-1l1.1-0.5l-2.9-0.5
			c-2.1-0.3-3.6-2.4-3.2-4.5c0-0.2,0.1-0.4,0.1-0.6l0.9-2.7c0.6-1.8,2.3-3.1,4.2-3.1l5.2,0.2l-0.7-0.7c-1.4-1.5-1.4-3.8,0.1-5.2
			c0.4-0.3,0.8-0.6,1.2-0.8l4.9-2c0.6-0.2,1.2-0.3,1.8-0.3c1,0,2,0.3,2.9,0.8l3.2,2.1l0,0c0.9-0.1,1.9-0.3,2.8-0.4l1-1.9
			c0.8-1.5,2.4-2.5,4.1-2.5h0.5l6.1,0.6c2.2,0.2,3.9,2.3,3.6,4.5c0,0,0,0,0,0l-0.1,1c0.5,0.2,1,0.4,1.5,0.6l0,0h0.1l4.7-1.5
			c0.5-0.1,0.9-0.2,1.4-0.2c1.2,0,2.4,0.4,3.3,1.1l3.1,2.6c1.6,1.2,1.9,3.5,0.6,5.1c-0.4,0.5-0.8,0.8-1.3,1.1l-1.1,0.5l2.9,0.5
			c2.1,0.3,3.6,2.4,3.2,4.5c0,0.2-0.1,0.4-0.1,0.6l-0.9,2.7c-0.6,1.8-2.3,3.1-4.2,3.1l-5.2-0.2l0.7,0.7c1.4,1.5,1.4,3.8-0.1,5.2
			c-0.4,0.3-0.8,0.6-1.2,0.8l-4.9,2c-0.6,0.2-1.2,0.3-1.8,0.3c-1,0-2-0.3-2.9-0.8l-3.2-2l0,0c-0.9,0.2-1.9,0.3-2.8,0.4l-1,1.9
			C264,428.7,262.4,429.7,260.7,429.7z M262.3,407.1c-1.9,0-3.8,0.3-5.6,1c-2.2,0.9-3.1,2-3.2,2.6s0.6,1.4,1,1.7
			c1.7,1.4,4.6,2.2,7.8,2.2c1.9,0,3.8-0.3,5.6-1c2.2-0.9,3.1-2,3.2-2.6s-0.6-1.4-1-1.7C268.4,407.9,265.5,407.1,262.3,407.1
			L262.3,407.1z"/>
		<path class="st5" d="M271.9,395.5c-0.6-0.2-1-0.8-0.9-1.4l0.3-2.3c0.1-0.6-0.3-1.1-0.9-1.2c0,0,0,0,0,0l-6.2-0.6
			c-0.6,0-1.3,0.3-1.6,0.9l-1.2,2.4c-0.4,0.6-0.9,0.9-1.6,1c-1.1,0.1-2.1,0.2-3.2,0.4c-0.7,0.1-1.4,0-2-0.4l-3.3-2.2
			c-0.6-0.3-1.3-0.4-1.9-0.2l-4.9,2c-0.3,0.1-0.5,0.3-0.5,0.6l0,0v0.1l0,0v5l0,0c0,0.2,0.1,0.4,0.2,0.5l0.3,0.3
			c-0.4,0.3-0.9,0.4-1.4,0.4l-5.6-0.2c-0.6,0-1.2,0.4-1.4,1l-0.9,2.7c0,0.1,0,0.2,0,0.3l0,0v5.1l0,0c0,0.4,0.3,0.8,0.8,0.9l4.4,0.7
			l-1.7,0.9c-0.3,0.1-0.4,0.3-0.4,0.6l0,0v5.1l0,0c0,0.2,0.1,0.4,0.3,0.6l3.1,2.6c0.5,0.4,1.2,0.5,1.9,0.4l4.8-1.5
			c0.7-0.2,1.4-0.1,2,0.1c0.8,0.4,1.7,0.7,2.6,0.9c0.2,0.1,0.5,0.2,0.6,0.5v3.4l0,0c0,0.6,0.4,1,1,1l6.2,0.6c0.7,0,1.3-0.3,1.6-0.9
			l1.2-2.4c0.3-0.6,0.9-0.9,1.6-1c1.1-0.1,2.1-0.2,3.2-0.4c0.7-0.1,1.4,0,2,0.4l3.3,2.2c0.6,0.3,1.3,0.4,1.9,0.2l4.9-2
			c0.3-0.1,0.5-0.3,0.5-0.6l0,0V417l0,0c0-0.2-0.1-0.4-0.2-0.5l-0.3-0.3c0.4-0.3,0.9-0.4,1.4-0.4l5.6,0.2c0.6,0,1.2-0.4,1.4-1
			l0.9-2.7c0-0.1,0-0.2,0-0.3l0,0v-5l0,0c0-0.5-0.3-0.9-0.8-0.9l-4.4-0.8l1.7-0.9c0.3-0.1,0.4-0.4,0.5-0.6l0,0v-5.1l0,0
			c0-0.2-0.1-0.4-0.3-0.6l-3.1-2.6c-0.5-0.4-1.2-0.5-1.9-0.4l-4.8,1.5c-0.7,0.2-1.4,0.1-2-0.1C273.6,396.1,272.7,395.8,271.9,395.5z
			 M251.4,408.3c1.1-1.4,2.5-2.4,4.2-3c5.3-2.1,12.7-1.4,16.4,1.7c0.5,0.4,0.9,0.8,1.2,1.3c-1.1,1.4-2.5,2.5-4.2,3.1
			c-5.3,2.1-12.7,1.4-16.4-1.7C252.2,409.2,251.8,408.8,251.4,408.3L251.4,408.3z"/>
		<path class="st31" d="M271.9,395.5c-0.6-0.2-1-0.8-0.9-1.4l0.3-2.3c0.1-0.6-0.3-1.1-0.9-1.2c0,0,0,0,0,0l-6.2-0.6
			c-0.6,0-1.3,0.3-1.6,0.9l-1.2,2.4c-0.4,0.6-0.9,0.9-1.6,1c-1.1,0.1-2.1,0.2-3.2,0.4c-0.7,0.1-1.4,0-2-0.4l-3.3-2.2
			c-0.6-0.3-1.3-0.4-1.9-0.2l-4.9,2c-0.3,0.1-0.5,0.3-0.5,0.6l0,0v0.1l0,0v5l0,0c0,0.2,0.1,0.4,0.2,0.5l0.3,0.3
			c-0.4,0.3-0.9,0.4-1.4,0.4l-5.6-0.2c-0.6,0-1.2,0.4-1.4,1l-0.9,2.7c0,0.1,0,0.2,0,0.3l0,0v5.1l0,0c0,0.4,0.3,0.8,0.8,0.9l4.4,0.7
			l-1.7,0.9c-0.3,0.1-0.4,0.3-0.4,0.6l0,0v5.1l0,0c0,0.2,0.1,0.4,0.3,0.6l3.1,2.6c0.5,0.4,1.2,0.5,1.9,0.4l4.8-1.5
			c0.7-0.2,1.4-0.1,2,0.1c0.8,0.4,1.7,0.7,2.6,0.9c0.2,0.1,0.5,0.2,0.6,0.5v3.4l0,0c0,0.6,0.4,1,1,1l6.2,0.6c0.7,0,1.3-0.3,1.6-0.9
			l1.2-2.4c0.3-0.6,0.9-0.9,1.6-1c1.1-0.1,2.1-0.2,3.2-0.4c0.7-0.1,1.4,0,2,0.4l3.3,2.2c0.6,0.3,1.3,0.4,1.9,0.2l4.9-2
			c0.3-0.1,0.5-0.3,0.5-0.6l0,0V417l0,0c0-0.2-0.1-0.4-0.2-0.5l-0.3-0.3c0.4-0.3,0.9-0.4,1.4-0.4l5.6,0.2c0.6,0,1.2-0.4,1.4-1
			l0.9-2.7c0-0.1,0-0.2,0-0.3l0,0v-5l0,0c0-0.5-0.3-0.9-0.8-0.9l-4.4-0.8l1.7-0.9c0.3-0.1,0.4-0.4,0.5-0.6l0,0v-5.1l0,0
			c0-0.2-0.1-0.4-0.3-0.6l-3.1-2.6c-0.5-0.4-1.2-0.5-1.9-0.4l-4.8,1.5c-0.7,0.2-1.4,0.1-2-0.1C273.6,396.1,272.7,395.8,271.9,395.5z
			 M251.4,408.3c1.1-1.4,2.5-2.4,4.2-3c5.3-2.1,12.7-1.4,16.4,1.7c0.5,0.4,0.9,0.8,1.2,1.3c-1.1,1.4-2.5,2.5-4.2,3.1
			c-5.3,2.1-12.7,1.4-16.4-1.7C252.2,409.2,251.8,408.8,251.4,408.3L251.4,408.3z"/>
		<path class="st13" d="M242.5,407.7c-0.2-0.6-0.7-1.1-1.3-1.2l-5.4-0.9c-0.4-0.1-0.8-0.4-0.8-0.8v5c0,0.4,0.3,0.8,0.8,0.9l4.4,0.8
			l2.2-1.1c0.5-0.3,0.7-0.9,0.5-1.4c0,0,0,0,0,0C242.8,408.4,242.6,408.1,242.5,407.7z M243.8,399.5L243.8,399.5
			c0,0.2,0.1,0.4,0.2,0.6l0.3,0.3c0.2-0.1,0.3-0.2,0.5-0.4c0.4-0.4,0.9-0.8,1.4-1.2c0.4-0.3,0.5-1,0.2-1.4c0,0,0,0,0,0l-2.2-2.4
			c-0.2-0.1-0.2-0.3-0.2-0.5L243.8,399.5z"/>
		<path class="st13" d="M255.6,400.2c-4.6,1.9-6.2,5.2-4.2,8.1c1.1-1.4,2.5-2.4,4.2-3c5.3-2.1,12.7-1.4,16.4,1.7
			c0.5,0.4,0.9,0.8,1.2,1.3c1.4-2,1.1-4.5-1.2-6.4C268.3,398.8,261,398,255.6,400.2z"/>
		<path class="st5" d="M263.9,417.7c-0.2,0.2-0.4,0.4-0.5,0.6l-1.2,2.4c-0.2,0.4-0.5,0.6-0.9,0.8v5.1c0.4-0.1,0.7-0.4,0.9-0.8
			l1.2-2.4c0.1-0.2,0.3-0.4,0.5-0.6L263.9,417.7z M280.8,417L280.8,417c0,0.3-0.2,0.6-0.5,0.7l-4.9,2c-0.4,0.1-0.9,0.2-1.3,0v5.1
			c0.4,0.1,0.9,0.1,1.3,0l4.9-2c0.3-0.1,0.5-0.3,0.5-0.6L280.8,417z M248.2,414.9l-4.7,1.5c-0.4,0.1-0.8,0.1-1.2,0v5.1
			c0.4,0.1,0.8,0.1,1.2,0l4.7-1.5L248.2,414.9z M289.6,406.9c0,0.1,0,0.2-0.1,0.3l-0.8,2.7c-0.2,0.6-0.8,1-1.4,1l-5.6-0.2
			c-0.3,0-0.6,0.1-0.9,0.2v5.1c0.3-0.1,0.6-0.2,0.9-0.2l5.6,0.2c0.6,0,1.2-0.4,1.4-1l0.9-2.7c0-0.1,0-0.2,0-0.3L289.6,406.9z
			 M286.6,398.7c0,0.2-0.1,0.3-0.2,0.4c-0.1,0.1-0.2,0.1-0.2,0.2l-4,2c-0.1,0-0.2,0.1-0.2,0.2c-0.1,0.1-0.2,0.3-0.3,0.4
			c-0.1,0.1-0.1,0.3-0.1,0.4c0,0.1,0,0.1,0,0.2c0,0.1,0.1,0.2,0.1,0.3c0.2,0.3,0.3,0.7,0.4,1.1c0.2,0.6,0.7,1.1,1.3,1.3l1,0.2
			l1.7-0.9c0.3-0.1,0.4-0.4,0.5-0.6l0,0L286.6,398.7z"/>
		<path class="st32" d="M263.9,417.7c-0.2,0.2-0.4,0.4-0.5,0.6l-1.2,2.4c-0.2,0.4-0.5,0.6-0.9,0.8v5.1c0.4-0.1,0.7-0.4,0.9-0.8
			l1.2-2.4c0.1-0.2,0.3-0.4,0.5-0.6L263.9,417.7z M280.8,417L280.8,417c0,0.3-0.2,0.6-0.5,0.7l-4.9,2c-0.4,0.1-0.9,0.2-1.3,0v5.1
			c0.4,0.1,0.9,0.1,1.3,0l4.9-2c0.3-0.1,0.5-0.3,0.5-0.6L280.8,417z M248.2,414.9l-4.7,1.5c-0.4,0.1-0.8,0.1-1.2,0v5.1
			c0.4,0.1,0.8,0.1,1.2,0l4.7-1.5L248.2,414.9z M289.6,406.9c0,0.1,0,0.2-0.1,0.3l-0.8,2.7c-0.2,0.6-0.8,1-1.4,1l-5.6-0.2
			c-0.3,0-0.6,0.1-0.9,0.2v5.1c0.3-0.1,0.6-0.2,0.9-0.2l5.6,0.2c0.6,0,1.2-0.4,1.4-1l0.9-2.7c0-0.1,0-0.2,0-0.3L289.6,406.9z
			 M286.6,398.7c0,0.2-0.1,0.3-0.2,0.4c-0.1,0.1-0.2,0.1-0.2,0.2l-4,2c-0.1,0-0.2,0.1-0.2,0.2c-0.1,0.1-0.2,0.3-0.3,0.4
			c-0.1,0.1-0.1,0.3-0.1,0.4c0,0.1,0,0.1,0,0.2c0,0.1,0.1,0.2,0.1,0.3c0.2,0.3,0.3,0.7,0.4,1.1c0.2,0.6,0.7,1.1,1.3,1.3l1,0.2
			l1.7-0.9c0.3-0.1,0.4-0.4,0.5-0.6l0,0L286.6,398.7z"/>
		<path class="st5" d="M281.2,395.1l-4.8,1.5c-0.7,0.2-1.4,0.1-2-0.1c-0.8-0.4-1.7-0.7-2.6-1c-0.6-0.2-1-0.8-0.9-1.4l0.3-2.3
			c0.1-0.6-0.3-1.1-0.9-1.2c0,0,0,0,0,0l-6.2-0.5c-0.6,0-1.3,0.3-1.6,0.9l-1.2,2.4c-0.4,0.6-0.9,0.9-1.6,1c-1.1,0.1-2.1,0.2-3.2,0.4
			c-0.7,0.1-1.4,0-2-0.4l-3.3-2.2c-0.6-0.3-1.3-0.4-1.9-0.2l-4.9,2c-0.4,0.1-0.6,0.5-0.5,0.9c0,0.1,0.1,0.3,0.2,0.4l2.2,2.4
			c0.4,0.4,0.3,1-0.1,1.4c0,0,0,0,0,0c-0.5,0.4-0.9,0.8-1.4,1.2c-0.5,0.5-1.1,0.8-1.8,0.8l-5.6-0.2c-0.6,0-1.2,0.4-1.4,1l-0.9,2.7
			c-0.2,0.5,0.1,1,0.6,1.2c0.1,0,0.1,0,0.2,0l5.4,0.9c0.6,0.2,1.1,0.6,1.3,1.2c0.1,0.4,0.2,0.7,0.4,1.1c0.3,0.5,0.1,1.2-0.4,1.4
			c0,0,0,0,0,0l-3.9,2c-0.3,0.1-0.5,0.5-0.4,0.8c0,0.1,0.2,0.3,0.3,0.4l3.1,2.6c0.5,0.4,1.2,0.5,1.9,0.4l4.8-1.5
			c0.7-0.2,1.4-0.1,2,0.1c0.8,0.4,1.7,0.7,2.6,0.9c0.6,0.2,1,0.8,0.9,1.4l-0.3,2.3c-0.1,0.6,0.4,1.1,1,1.2c0,0,0,0,0,0l6.2,0.6
			c0.6,0,1.3-0.3,1.6-0.9l1.2-2.4c0.3-0.6,0.9-0.9,1.6-1c1.1-0.1,2.1-0.2,3.2-0.4c0.7-0.1,1.4,0.1,2,0.4l3.3,2.2
			c0.6,0.3,1.3,0.4,1.9,0.2l4.9-2c0.4-0.1,0.6-0.5,0.5-0.9c0-0.1-0.1-0.3-0.2-0.4l-2.2-2.4c-0.4-0.4-0.3-1,0.1-1.4c0,0,0,0,0,0
			c0.5-0.4,0.9-0.8,1.4-1.2c0.5-0.5,1.1-0.7,1.8-0.8l5.6,0.2c0.6,0,1.2-0.4,1.4-1l0.9-2.7c0.2-0.5-0.1-1-0.6-1.2c-0.1,0-0.1,0-0.2,0
			l-5.4-0.9c-0.6-0.2-1.1-0.6-1.3-1.2c-0.1-0.4-0.2-0.7-0.4-1.1c-0.3-0.5-0.1-1.2,0.4-1.4c0,0,0,0,0,0l4-2c0.3-0.1,0.5-0.5,0.4-0.8
			c0-0.1-0.1-0.3-0.3-0.4l-3.1-2.6C282.6,395.1,281.9,394.9,281.2,395.1z M272,401.9c3.7,3.1,2.4,7.3-3,9.5s-12.7,1.4-16.4-1.7
			s-2.4-7.3,3-9.5S268.3,398.8,272,401.9z"/>
		<g class="st33">
			<path class="st15" d="M281.2,395.1l-4.8,1.5c-0.7,0.2-1.4,0.1-2-0.1c-0.8-0.4-1.7-0.7-2.6-1c-0.6-0.2-1-0.8-0.9-1.4l0.3-2.3
				c0.1-0.6-0.3-1.1-0.9-1.2c0,0,0,0,0,0l-6.2-0.5c-0.6,0-1.3,0.3-1.6,0.9l-1.2,2.4c-0.4,0.6-0.9,0.9-1.6,1
				c-1.1,0.1-2.1,0.2-3.2,0.4c-0.7,0.1-1.4,0-2-0.4l-3.3-2.2c-0.6-0.3-1.3-0.4-1.9-0.2l-4.9,2c-0.4,0.1-0.6,0.5-0.5,0.9
				c0,0.1,0.1,0.3,0.2,0.4l2.2,2.4c0.4,0.4,0.3,1-0.1,1.4c0,0,0,0,0,0c-0.5,0.4-0.9,0.8-1.4,1.2c-0.5,0.5-1.1,0.8-1.8,0.8l-5.6-0.2
				c-0.6,0-1.2,0.4-1.4,1l-0.9,2.7c-0.2,0.5,0.1,1,0.6,1.2c0.1,0,0.1,0,0.2,0l5.4,0.9c0.6,0.2,1.1,0.6,1.3,1.2
				c0.1,0.4,0.2,0.7,0.4,1.1c0.3,0.5,0.1,1.2-0.4,1.4c0,0,0,0,0,0l-3.9,2c-0.3,0.1-0.5,0.5-0.4,0.8c0,0.1,0.2,0.3,0.3,0.4l3.1,2.6
				c0.5,0.4,1.2,0.5,1.9,0.4l4.8-1.5c0.7-0.2,1.4-0.1,2,0.1c0.8,0.4,1.7,0.7,2.6,0.9c0.6,0.2,1,0.8,0.9,1.4l-0.3,2.3
				c-0.1,0.6,0.4,1.1,1,1.2c0,0,0,0,0,0l6.2,0.6c0.6,0,1.3-0.3,1.6-0.9l1.2-2.4c0.3-0.6,0.9-0.9,1.6-1c1.1-0.1,2.1-0.2,3.2-0.4
				c0.7-0.1,1.4,0.1,2,0.4l3.3,2.2c0.6,0.3,1.3,0.4,1.9,0.2l4.9-2c0.4-0.1,0.6-0.5,0.5-0.9c0-0.1-0.1-0.3-0.2-0.4l-2.2-2.4
				c-0.4-0.4-0.3-1,0.1-1.4c0,0,0,0,0,0c0.5-0.4,0.9-0.8,1.4-1.2c0.5-0.5,1.1-0.7,1.8-0.8l5.6,0.2c0.6,0,1.2-0.4,1.4-1l0.9-2.7
				c0.2-0.5-0.1-1-0.6-1.2c-0.1,0-0.1,0-0.2,0l-5.4-0.9c-0.6-0.2-1.1-0.6-1.3-1.2c-0.1-0.4-0.2-0.7-0.4-1.1
				c-0.3-0.5-0.1-1.2,0.4-1.4c0,0,0,0,0,0l4-2c0.3-0.1,0.5-0.5,0.4-0.8c0-0.1-0.1-0.3-0.3-0.4l-3.1-2.6
				C282.6,395.1,281.9,394.9,281.2,395.1z M272,401.9c3.7,3.1,2.4,7.3-3,9.5s-12.7,1.4-16.4-1.7s-2.4-7.3,3-9.5
				S268.3,398.8,272,401.9z"/>
			<path class="st15" d="M260.7,422h-0.2l-6.1-0.6c-0.8-0.1-1.4-0.8-1.3-1.6c0,0,0,0,0-0.1l0.3-2.3c0-0.4-0.2-0.8-0.6-0.9
				c-0.9-0.3-1.8-0.6-2.6-1c-0.6-0.2-1.2-0.2-1.7-0.1l-4.8,1.5c-0.8,0.2-1.6,0-2.3-0.5l-3.1-2.6c-0.3-0.2-0.5-0.6-0.5-1
				c0.1-0.4,0.3-0.7,0.7-0.9l3.9-2c0.3-0.2,0.4-0.6,0.3-0.9c0,0,0,0,0,0c-0.2-0.4-0.3-0.7-0.4-1.1c-0.2-0.5-0.5-0.8-1-1l-5.3-0.9
				c-0.4-0.1-0.8-0.3-1-0.6c-0.2-0.3-0.3-0.8-0.1-1.1l0.9-2.7c0.3-0.8,1-1.3,1.9-1.3l5.6,0.2c0.6,0,1.1-0.3,1.5-0.6
				c0.4-0.4,0.9-0.9,1.4-1.2c0.1-0.1,0.2-0.2,0.2-0.4c0-0.1,0-0.3-0.1-0.4l-2.2-2.4c-0.5-0.4-0.5-1.1-0.1-1.6
				c0.1-0.1,0.3-0.3,0.5-0.3l4.9-2c0.8-0.3,1.6-0.2,2.3,0.2l3.3,2.2c0.5,0.3,1.1,0.4,1.7,0.3c1-0.2,2.1-0.3,3.2-0.4
				c0.5-0.1,1-0.4,1.2-0.8l1.2-2.4c0.4-0.7,1.2-1.1,2-1.1l6.1,0.6c0.8,0.1,1.4,0.8,1.3,1.6c0,0,0,0,0,0l-0.3,2.3
				c0,0.4,0.2,0.8,0.6,0.9c0.9,0.3,1.8,0.6,2.6,1c0.6,0.2,1.2,0.3,1.7,0.1l4.8-1.5c0.8-0.2,1.6,0,2.3,0.5l3.1,2.6
				c0.3,0.2,0.5,0.6,0.5,1c-0.1,0.4-0.3,0.7-0.7,0.9l-4,2c-0.3,0.2-0.4,0.6-0.3,0.9c0,0,0,0,0,0c0.2,0.4,0.3,0.7,0.4,1.1
				c0.1,0.5,0.5,0.8,1,1l5.4,0.9c0.8,0.1,1.3,0.8,1.2,1.5c0,0.1,0,0.1,0,0.2l-0.9,2.7c-0.3,0.8-1,1.3-1.9,1.3l-5.6-0.2
				c-0.6,0-1.1,0.3-1.5,0.6c-0.4,0.4-0.9,0.9-1.4,1.2c-0.1,0.1-0.2,0.3-0.2,0.4c0,0.1,0.1,0.3,0.2,0.4l2.2,2.4
				c0.3,0.3,0.4,0.7,0.3,1.1c-0.1,0.4-0.4,0.7-0.8,0.8l-4.9,2c-0.8,0.3-1.6,0.2-2.3-0.2l-3.3-2.2c-0.5-0.3-1.1-0.4-1.7-0.3
				c-1,0.2-2.1,0.3-3.2,0.4c-0.5,0.1-1,0.4-1.2,0.8l-1.2,2.4C262.2,421.6,261.5,422,260.7,422z M249,414.3c0.5,0,1,0.1,1.4,0.3
				c0.8,0.4,1.7,0.7,2.5,0.9c0.8,0.3,1.3,1,1.2,1.9l-0.3,2.3c0,0.2,0,0.3,0.1,0.5c0.1,0.1,0.3,0.2,0.4,0.2l6.1,0.6
				c0.5,0,0.9-0.2,1.2-0.6l1.2-2.4c0.4-0.7,1.1-1.2,1.9-1.3c1.1-0.1,2.1-0.2,3.1-0.4c0.8-0.1,1.6,0,2.3,0.5l3.3,2.2
				c0.5,0.3,1,0.3,1.5,0.2l4.9-2c0.1,0,0.2-0.1,0.2-0.2c0-0.1,0-0.2-0.1-0.3l-2.3-2.3c-0.3-0.3-0.4-0.7-0.4-1c0-0.4,0.2-0.8,0.6-1
				c0.5-0.4,0.9-0.8,1.3-1.2c0.6-0.6,1.3-0.9,2.1-0.9l5.6,0.2c0.4,0,0.8-0.3,1-0.7l0.9-2.7c0.1-0.1,0-0.3,0-0.4
				c-0.1-0.1-0.2-0.2-0.4-0.2l-5.4-0.9c-0.8-0.2-1.4-0.8-1.6-1.5c-0.1-0.3-0.2-0.7-0.4-1c-0.4-0.7-0.1-1.6,0.6-2l4-2
				c0.1-0.1,0.2-0.1,0.2-0.2s0-0.2-0.1-0.3l-3.1-2.6c-0.4-0.3-1-0.4-1.5-0.3l-4.8,1.5c-0.8,0.2-1.6,0.1-2.3-0.1
				c-0.8-0.3-1.6-0.6-2.5-0.9c-0.8-0.3-1.3-1-1.2-1.9l0.3-2.3c0-0.2,0-0.3-0.1-0.5c-0.1-0.1-0.3-0.2-0.4-0.2l-6.1-0.6
				c-0.5,0-0.9,0.2-1.2,0.6l-1.2,2.4c-0.4,0.7-1.1,1.2-1.9,1.3c-1.1,0.1-2.1,0.2-3.1,0.4c-0.8,0.1-1.6,0-2.3-0.5l-3.3-2.2
				c-0.5-0.3-1-0.3-1.5-0.2l-4.9,2c-0.1,0-0.2,0.1-0.2,0.2c0,0.1,0,0.2,0.1,0.3l2.2,2.4c0.3,0.3,0.4,0.6,0.4,1c0,0.4-0.2,0.8-0.6,1
				c-0.5,0.4-0.9,0.7-1.3,1.2c-0.6,0.6-1.3,0.9-2.1,0.9l-5.6-0.2c-0.4,0-0.8,0.3-1,0.7l-0.9,2.7c-0.1,0.1-0.1,0.3,0,0.4
				c0.1,0.1,0.2,0.2,0.4,0.2l5.4,0.9c0.8,0.2,1.4,0.8,1.6,1.6c0.1,0.3,0.2,0.7,0.4,1c0.4,0.7,0.1,1.6-0.6,2l-4,2
				c-0.1,0.1-0.2,0.1-0.2,0.2c0,0.1,0.1,0.2,0.2,0.3l3.1,2.6c0.4,0.3,1,0.4,1.5,0.3l4.8-1.5C248.3,414.3,248.7,414.3,249,414.3z
				 M262.4,413c-3.8,0-7.6-1-10-3c-1.6-1.1-2.4-3-2.2-4.9c0.3-2.2,2.3-4.1,5.3-5.3c5.5-2.2,13-1.4,16.8,1.8l0,0
				c1.6,1.1,2.4,3,2.2,4.9c-0.3,2.2-2.3,4.1-5.3,5.3C267,412.6,264.7,413,262.4,413z M262.4,399.4c-2.2,0-4.5,0.4-6.5,1.2
				c-2.7,1.1-4.4,2.8-4.7,4.6c-0.2,1.6,0.6,3.2,1.9,4.1c3.6,3,10.7,3.7,15.9,1.6c2.7-1.1,4.5-2.8,4.7-4.6c0.2-1.6-0.6-3.2-1.9-4.1
				C269.5,400.4,266,399.4,262.4,399.4L262.4,399.4z"/>
		</g>
	</g>
</g>
<g id="freepik--Icons--inject-61">
	<g id="freepik--question-marks--inject-61">
		<path class="st5" d="M338.9,280.3c-1.1,0.4-2.3,0.7-3.5,0.8c-1.1,0.1-2.3,0-3.4-0.3c-1.1-0.3-2-0.8-2.9-1.5
			c-0.9-0.8-1.6-1.8-1.9-2.9c-0.3-0.9-0.5-1.8-0.5-2.7c0-0.8,0.2-1.6,0.5-2.4c0.3-0.7,0.6-1.5,1-2.1c0.4-0.7,0.7-1.3,1.1-1.9
			c0.3-0.6,0.6-1.2,0.8-1.8c0.2-0.6,0.2-1.2,0.1-1.7c-0.1-0.3,0-0.6,0.1-0.8c0.1-0.2,0.3-0.4,0.5-0.5l2.8-1c0.3-0.1,0.6-0.1,0.8,0
			c0.3,0.1,0.5,0.3,0.5,0.6c0.3,0.9,0.4,1.8,0.3,2.7c-0.1,0.8-0.3,1.6-0.5,2.4c-0.3,0.7-0.6,1.5-1,2.1c-0.4,0.7-0.8,1.3-1.1,1.9
			c-0.3,0.6-0.5,1.1-0.7,1.7c-0.2,0.5-0.1,1.1,0,1.6c0.3,0.9,1.1,1.6,2,1.8c1.1,0.3,2.3,0.2,3.4-0.3c2-0.7,3.4-2.6,3.4-4.8
			c0-0.3,0.1-0.5,0.2-0.7c0.1-0.2,0.3-0.4,0.6-0.5l2.9-1.1c0.2-0.1,0.4-0.1,0.6,0c0.2,0.1,0.4,0.3,0.5,0.5c0.3,0.9,0.4,1.9,0.2,2.9
			c-0.2,1.1-0.6,2.2-1.1,3.1c-0.6,1.1-1.4,2-2.3,2.9C341.3,279.2,340.2,279.9,338.9,280.3z M329.7,260.2c-0.3,0.1-0.6,0.1-0.8,0
			c-0.3-0.1-0.4-0.3-0.5-0.6l-1.2-3.2c-0.1-0.3-0.1-0.5,0-0.8c0.1-0.3,0.3-0.5,0.6-0.6l3.1-1.2c0.3-0.1,0.5-0.1,0.8,0
			c0.3,0.1,0.5,0.3,0.5,0.6l1.2,3.2c0.1,0.3,0.1,0.5,0,0.8c-0.1,0.3-0.3,0.5-0.6,0.5L329.7,260.2z"/>
		<g class="st27">
			<path class="st15" d="M338.9,280.3c-1.1,0.4-2.3,0.7-3.5,0.8c-1.1,0.1-2.3,0-3.4-0.3c-1.1-0.3-2-0.8-2.9-1.5
				c-0.9-0.8-1.6-1.8-1.9-2.9c-0.3-0.9-0.5-1.8-0.5-2.7c0-0.8,0.2-1.6,0.5-2.4c0.3-0.7,0.6-1.5,1-2.1c0.4-0.7,0.7-1.3,1.1-1.9
				c0.3-0.6,0.6-1.2,0.8-1.8c0.2-0.6,0.2-1.2,0.1-1.7c-0.1-0.3,0-0.6,0.1-0.8c0.1-0.2,0.3-0.4,0.5-0.5l2.8-1c0.3-0.1,0.6-0.1,0.8,0
				c0.3,0.1,0.5,0.3,0.5,0.6c0.3,0.9,0.4,1.8,0.3,2.7c-0.1,0.8-0.3,1.6-0.5,2.4c-0.3,0.7-0.6,1.5-1,2.1c-0.4,0.7-0.8,1.3-1.1,1.9
				c-0.3,0.6-0.5,1.1-0.7,1.7c-0.2,0.5-0.1,1.1,0,1.6c0.3,0.9,1.1,1.6,2,1.8c1.1,0.3,2.3,0.2,3.4-0.3c2-0.7,3.4-2.6,3.4-4.8
				c0-0.3,0.1-0.5,0.2-0.7c0.1-0.2,0.3-0.4,0.6-0.5l2.9-1.1c0.2-0.1,0.4-0.1,0.6,0c0.2,0.1,0.4,0.3,0.5,0.5c0.3,0.9,0.4,1.9,0.2,2.9
				c-0.2,1.1-0.6,2.2-1.1,3.1c-0.6,1.1-1.4,2-2.3,2.9C341.3,279.2,340.2,279.9,338.9,280.3z M329.7,260.2c-0.3,0.1-0.6,0.1-0.8,0
				c-0.3-0.1-0.4-0.3-0.5-0.6l-1.2-3.2c-0.1-0.3-0.1-0.5,0-0.8c0.1-0.3,0.3-0.5,0.6-0.6l3.1-1.2c0.3-0.1,0.5-0.1,0.8,0
				c0.3,0.1,0.5,0.3,0.5,0.6l1.2,3.2c0.1,0.3,0.1,0.5,0,0.8c-0.1,0.3-0.3,0.5-0.6,0.5L329.7,260.2z"/>
		</g>
		<path class="st5" d="M360.5,233c0.6-0.4,1.3-0.2,1.7,0.3l2.3,3.4c0.4,0.6,0.2,1.3-0.3,1.7l-3.3,2.2c-0.6,0.4-1.3,0.2-1.7-0.3
			l-2.3-3.4c-0.2-0.3-0.3-0.6-0.2-0.9c0.1-0.3,0.2-0.6,0.5-0.8L360.5,233z M344.3,212.4c1.2-0.8,2.5-1.4,3.8-1.9
			c1.3-0.4,2.6-0.6,4-0.6c1.3,0.1,2.6,0.4,3.7,1c1.2,0.6,2.3,1.6,3,2.8c0.6,0.9,1.1,1.9,1.3,3c0.2,0.9,0.2,1.9,0.1,2.8
			c-0.1,0.9-0.3,1.8-0.5,2.7l-0.7,2.5c-0.2,0.8-0.4,1.5-0.4,2.3c-0.1,0.7,0.1,1.4,0.4,2c0.1,0.3,0.2,0.7,0.1,1
			c0,0.3-0.2,0.6-0.5,0.8l-2.9,2c-0.3,0.2-0.6,0.3-1,0.2c-0.3,0-0.6-0.2-0.8-0.5c-0.6-0.9-1-1.9-1.1-3c-0.1-1-0.1-2,0-2.9
			c0.1-0.9,0.3-1.9,0.6-2.8c0.3-0.9,0.5-1.7,0.7-2.5c0.2-0.7,0.3-1.5,0.4-2.2c0-0.6-0.1-1.3-0.5-1.8c-0.6-1-1.7-1.5-2.8-1.6
			c-1.4,0-2.8,0.4-3.9,1.2c-2.1,1.4-3.2,4-2.6,6.5c0.1,0.3,0.1,0.6,0,0.9c-0.1,0.3-0.3,0.5-0.6,0.7l-3.1,2.1
			c-0.2,0.2-0.5,0.2-0.7,0.2c-0.3,0-0.5-0.2-0.7-0.4c-0.6-1-0.9-2.1-1-3.3c-0.1-1.3,0-2.7,0.4-3.9c0.4-1.4,1-2.7,1.8-3.9
			C341.9,214.4,343,213.3,344.3,212.4L344.3,212.4z"/>
		<g class="st34">
			<path class="st15" d="M360.5,233c0.6-0.4,1.3-0.2,1.7,0.3l2.3,3.4c0.4,0.6,0.2,1.3-0.3,1.7l-3.3,2.2c-0.6,0.4-1.3,0.2-1.7-0.3
				l-2.3-3.4c-0.2-0.3-0.3-0.6-0.2-0.9c0.1-0.3,0.2-0.6,0.5-0.8L360.5,233z M344.3,212.4c1.2-0.8,2.5-1.4,3.8-1.9
				c1.3-0.4,2.6-0.6,4-0.6c1.3,0.1,2.6,0.4,3.7,1c1.2,0.6,2.3,1.6,3,2.8c0.6,0.9,1.1,1.9,1.3,3c0.2,0.9,0.2,1.9,0.1,2.8
				c-0.1,0.9-0.3,1.8-0.5,2.7l-0.7,2.5c-0.2,0.8-0.4,1.5-0.4,2.3c-0.1,0.7,0.1,1.4,0.4,2c0.1,0.3,0.2,0.7,0.1,1
				c0,0.3-0.2,0.6-0.5,0.8l-2.9,2c-0.3,0.2-0.6,0.3-1,0.2c-0.3,0-0.6-0.2-0.8-0.5c-0.6-0.9-1-1.9-1.1-3c-0.1-1-0.1-2,0-2.9
				c0.1-0.9,0.3-1.9,0.6-2.8c0.3-0.9,0.5-1.7,0.7-2.5c0.2-0.7,0.3-1.5,0.4-2.2c0-0.6-0.1-1.3-0.5-1.8c-0.6-1-1.7-1.5-2.8-1.6
				c-1.4,0-2.8,0.4-3.9,1.2c-2.1,1.4-3.2,4-2.6,6.5c0.1,0.3,0.1,0.6,0,0.9c-0.1,0.3-0.3,0.5-0.6,0.7l-3.1,2.1
				c-0.2,0.2-0.5,0.2-0.7,0.2c-0.3,0-0.5-0.2-0.7-0.4c-0.6-1-0.9-2.1-1-3.3c-0.1-1.3,0-2.7,0.4-3.9c0.4-1.4,1-2.7,1.8-3.9
				C341.9,214.4,343,213.3,344.3,212.4L344.3,212.4z"/>
		</g>
		<path class="st5" d="M458.4,268c0.6,0.3,0.9,1,0.6,1.6l-1.7,3.7c-0.3,0.6-1,0.9-1.6,0.6l-3.6-1.6c-0.3-0.1-0.5-0.4-0.6-0.7
			c-0.1-0.3-0.1-0.6,0-1l1.7-3.7c0.1-0.3,0.4-0.5,0.7-0.6c0.3-0.1,0.6-0.1,1,0L458.4,268z M467.4,243.4c1.3,0.6,2.5,1.3,3.6,2.3
			c1,0.9,1.9,1.9,2.6,3.1c0.6,1.1,1,2.4,1.1,3.7c0.1,1.4-0.2,2.8-0.8,4c-0.4,1-1,1.9-1.8,2.7c-0.7,0.7-1.5,1.2-2.4,1.6
			c-0.8,0.4-1.7,0.7-2.6,1l-2.5,0.7c-0.8,0.2-1.5,0.5-2.2,0.9c-0.6,0.3-1.2,0.8-1.5,1.4c-0.2,0.3-0.4,0.5-0.7,0.6
			c-0.3,0.1-0.6,0.1-0.9,0l-3.2-1.4c-0.3-0.1-0.5-0.4-0.7-0.7c-0.1-0.3-0.1-0.7,0-0.9c0.5-1,1.2-1.9,2-2.6c0.8-0.6,1.6-1.2,2.5-1.6
			c0.9-0.4,1.7-0.7,2.6-1c0.9-0.2,1.7-0.5,2.5-0.7c0.7-0.2,1.4-0.5,2-0.9c0.6-0.3,1-0.8,1.3-1.4c0.5-1,0.4-2.2-0.2-3.2
			c-0.7-1.2-1.8-2.1-3.1-2.6c-2.4-1.1-4.7-0.7-6.9,1.2c-0.2,0.2-0.5,0.4-0.8,0.5c-0.3,0.1-0.6,0-0.9-0.1l-3.4-1.5
			c-0.2-0.1-0.4-0.3-0.5-0.6c-0.1-0.2-0.1-0.5,0-0.8c0.5-1,1.3-1.9,2.2-2.6c1.1-0.8,2.3-1.4,3.5-1.7c1.4-0.4,2.9-0.6,4.3-0.5
			C464.4,242.4,466,242.8,467.4,243.4L467.4,243.4z"/>
		<g class="st34">
			<path class="st15" d="M458.4,268c0.6,0.3,0.9,1,0.6,1.6l-1.7,3.7c-0.3,0.6-1,0.9-1.6,0.6l-3.6-1.6c-0.3-0.1-0.5-0.4-0.6-0.7
				c-0.1-0.3-0.1-0.6,0-1l1.7-3.7c0.1-0.3,0.4-0.5,0.7-0.6c0.3-0.1,0.6-0.1,1,0L458.4,268z M467.4,243.4c1.3,0.6,2.5,1.3,3.6,2.3
				c1,0.9,1.9,1.9,2.6,3.1c0.6,1.1,1,2.4,1.1,3.7c0.1,1.4-0.2,2.8-0.8,4c-0.4,1-1,1.9-1.8,2.7c-0.7,0.7-1.5,1.2-2.4,1.6
				c-0.8,0.4-1.7,0.7-2.6,1l-2.5,0.7c-0.8,0.2-1.5,0.5-2.2,0.9c-0.6,0.3-1.2,0.8-1.5,1.4c-0.2,0.3-0.4,0.5-0.7,0.6
				c-0.3,0.1-0.6,0.1-0.9,0l-3.2-1.4c-0.3-0.1-0.5-0.4-0.7-0.7c-0.1-0.3-0.1-0.7,0-0.9c0.5-1,1.2-1.9,2-2.6c0.8-0.6,1.6-1.2,2.5-1.6
				c0.9-0.4,1.7-0.7,2.6-1c0.9-0.2,1.7-0.5,2.5-0.7c0.7-0.2,1.4-0.5,2-0.9c0.6-0.3,1-0.8,1.3-1.4c0.5-1,0.4-2.2-0.2-3.2
				c-0.7-1.2-1.8-2.1-3.1-2.6c-2.4-1.1-4.7-0.7-6.9,1.2c-0.2,0.2-0.5,0.4-0.8,0.5c-0.3,0.1-0.6,0-0.9-0.1l-3.4-1.5
				c-0.2-0.1-0.4-0.3-0.5-0.6c-0.1-0.2-0.1-0.5,0-0.8c0.5-1,1.3-1.9,2.2-2.6c1.1-0.8,2.3-1.4,3.5-1.7c1.4-0.4,2.9-0.6,4.3-0.5
				C464.4,242.4,466,242.8,467.4,243.4L467.4,243.4z"/>
		</g>
	</g>
</g>
</svg>
