<?xml version="1.0" encoding="utf-8"?>
<!-- Generator: Adobe Illustrator 28.2.0, SVG Export Plug-In . SVG Version: 6.00 Build 0)  -->
<svg version="1.1" id="Layer_1" xmlns="http://www.w3.org/2000/svg" xmlns:xlink="http://www.w3.org/1999/xlink" x="0px" y="0px"
	 viewBox="0 0 446.5 602.2" style="enable-background:new 0 0 446.5 602.2;" xml:space="preserve">
<style type="text/css">
	.st0{fill:url(#SVGID_1_);}
	.st1{display:none;}
	.st2{display:inline;fill:#EBEBEB;}
	.st3{display:inline;fill:#FAFAFA;}
	.st4{display:inline;fill:#E6E6E6;}
	.st5{display:inline;fill:#F5F5F5;}
	.st6{display:inline;fill:#F0F0F0;}
	.st7{display:inline;fill:#E0E0E0;}
	.st8{fill:#AC6AFF;}
	.st9{opacity:0.3;enable-background:new    ;}
	.st10{opacity:0.3;fill:#FFFFFF;enable-background:new    ;}
	.st11{fill:#FFFFFF;}
	.st12{fill:#263238;}
	.st13{opacity:0.4;fill:#FFFFFF;enable-background:new    ;}
	.st14{fill:#FFB573;}
	.st15{fill:#ED893E;}
	.st16{opacity:0.2;enable-background:new    ;}
</style>
<linearGradient id="SVGID_1_" gradientUnits="userSpaceOnUse" x1="168.2" y1="140.3" x2="448.2" y2="140.3" gradientTransform="matrix(1 0 0 -1 0 602)">
	<stop  offset="5.061400e-07" style="stop-color:#FFC876"/>
	<stop  offset="1" style="stop-color:#FF776F"/>
</linearGradient>
<path class="st0" d="M377.4,601.7H238.9c-39.1,0-70.7-31.7-70.7-70.7v-24.8c0-101.9,82.6-184.5,184.5-184.5h24.8
	c39.1,0,70.7,31.7,70.7,70.7V531C448.2,570,416.5,601.7,377.4,601.7z"/>
<g id="freepik--background-complete--inject-2" class="st1">
	<rect x="49.5" y="567.1" class="st2" width="500" height="0.2"/>
	<rect x="101.9" y="576.6" class="st2" width="26" height="0.2"/>
	<rect x="195.8" y="573.9" class="st2" width="54.1" height="0.2"/>
	<rect x="128.9" y="585.9" class="st2" width="26.3" height="0.2"/>
	<rect x="480.1" y="584.2" class="st2" width="19.2" height="0.2"/>
	<rect x="440.9" y="584.2" class="st2" width="30.3" height="0.2"/>
	<rect x="307.7" y="580" class="st2" width="54.6" height="0.2"/>
	<path class="st2" d="M286.5,522.5H93.4c-3.1,0-5.7-2.6-5.7-5.7V245.4c0-3.1,2.6-5.7,5.7-5.7h193.1c3.2,0,5.7,2.6,5.7,5.7l0,0v271.4
		C292.2,520,289.6,522.5,286.5,522.5z M93.4,239.9c-3,0-5.5,2.4-5.4,5.5v271.4c0,3,2.4,5.5,5.4,5.5h193.1c3,0,5.5-2.4,5.5-5.5V245.4
		c0-3-2.4-5.5-5.5-5.5H93.4z"/>
	<path class="st2" d="M502.8,522.5H309.7c-3.2,0-5.7-2.6-5.7-5.7V245.4c0-3.1,2.6-5.7,5.7-5.7h193.1c3.1,0,5.7,2.5,5.7,5.7v271.4
		C508.5,520,505.9,522.5,502.8,522.5z M309.7,239.9c-3,0-5.5,2.4-5.5,5.5v271.4c0,3,2.4,5.5,5.5,5.5h193.1c3,0,5.5-2.4,5.5-5.5
		V245.4c0-3-2.4-5.5-5.5-5.5H309.7z"/>
	<circle class="st3" cx="452.8" cy="348.1" r="25.6"/>
	<path class="st4" d="M183.6,310.5c-1.2,0.1-2.4,0.3-3.6,0.7c-0.3-2.4-3.2-3.9-8.3-3.7c-2.9,0.1-5.7,0.6-8.4,1.4
		c1.8-3.6,0-6.2-5-6.2c-3.3,0.1-6.6,0.9-9.7,2.2c-0.7-2.4-3.5-3.9-8.1-3.9c-7.4,0-17.3,3.8-24.9,9.1c-3.7,0.1-10.7,2.2-11.9,4.1H185
		l0.4-0.4C187.4,311.9,186.6,310.4,183.6,310.5z"/>
	<path class="st5" d="M502.6,361c-1.4,0.1-2.7,0.3-4,0.8c-0.3-2.6-3.5-4.3-9.2-4.1c-3.2,0.1-6.3,0.7-9.3,1.5c2-4,0-6.8-5.6-6.8
		c-3.7,0.1-7.3,1-10.7,2.4c-0.8-2.7-3.9-4.3-9-4.3c-8.1,0-19.1,4.2-27.6,10.1c-4,0.1-11.8,2.4-13.1,4.5h90c0.1-0.1,0.3-0.2,0.4-0.4
		C506.8,362.5,505.9,360.9,502.6,361z"/>
	<path class="st6" d="M455.5,299.6c-2,0.1-3.9,0.6-5.8,1.3c1-4.5-2.4-7.2-10.2-6.9c-4.6,0.3-9.1,1.1-13.4,2.6l0,0
		c4.9-6.7,3.7-11.5-3.8-11.5c-4.3,0-9.9,1.5-15.8,4.1c0.4-4.5-2.8-7.3-9.8-7.3c-8.6,0-20.9,4.3-32.8,10.8c-0.3-1.9-2.1-3-5.4-3
		c-4.6,0-11,2.1-17.4,5.5c-0.4,0-0.8,0-1.3,0c-8.1,0.6-19.5,4.9-26.1,9.9h143.1C460.3,301.9,459.8,299.5,455.5,299.6z"/>
	<path class="st3" d="M203.6,355.4c-0.8,0.1-1.6,0.2-2.4,0.5c0.4-1.8-1-3-4.2-2.8c-1.9,0.1-3.7,0.5-5.5,1.1l0,0
		c2-2.8,1.5-4.7-1.6-4.7c-2.3,0.1-4.5,0.7-6.5,1.7c0.2-1.9-1.2-3-4-3c-3.5,0-8.6,1.8-13.5,4.5c-0.1-0.8-0.9-1.2-2.2-1.2
		c-2.5,0.2-5,1-7.2,2.3H156c-3.9,0.4-7.6,1.8-10.8,4.1h59C205.5,356.4,205.3,355.4,203.6,355.4z"/>
	<path class="st7" d="M116.9,376.9c-5.7-1.4-9.2-4.4-13.3,0.6c5.6-3.8,13,1.8,13,1.8s8.3-4.2,13.2,0.5
		C126.8,374.2,122.8,376.5,116.9,376.9z"/>
	<path class="st7" d="M143.1,393.3c-3.6-0.9-5.9-2.8-8.4,0.4c3.6-2.4,8.3,1.1,8.3,1.1s5.3-2.7,8.4,0.3
		C149.4,391.5,146.9,393,143.1,393.3z"/>
	<path class="st7" d="M443.6,265.1c-4.8-1.2-7.7-3.6-11.1,0.5c4.7-3.2,10.9,1.5,10.9,1.5s6.9-3.5,11,0.4
		C451.8,262.8,448.5,264.7,443.6,265.1z"/>
	<polygon class="st7" points="180.1,441.2 237.7,441.2 237.7,567.1 138.3,567.1 138.3,472.9 	"/>
	<rect x="195.9" y="472.9" class="st2" width="83.5" height="94.2"/>
	<rect x="195.9" y="472.9" class="st7" width="83.5" height="2.5"/>
	<polygon class="st2" points="237.7,441.2 279.4,472.9 195.9,472.9 	"/>
	<rect x="208.8" y="489.3" class="st7" width="57.7" height="17.8"/>
	<rect x="258.9" y="525.4" class="st7" width="7.6" height="23.4"/>
	<rect x="227.3" y="530.8" class="st7" width="20.8" height="36.3"/>
	<rect x="208.8" y="525.4" class="st7" width="7.6" height="23.4"/>
	<rect x="150.5" y="437.7" class="st7" width="15.8" height="27.9"/>
	<polygon class="st5" points="459.9,495.5 422,495.5 410.2,504.4 410.2,500.8 402.9,500.8 402.9,510 394.5,516.4 394.5,516.4 
		394.5,518 394.5,567.1 415.2,567.1 422,567.1 487.3,567.1 487.3,516.4 	"/>
	<polygon class="st6" points="357.9,446.9 406.1,446.9 421,458.2 421,453.6 430.3,453.6 430.3,465.3 440.9,473.4 440.9,473.4 
		440.9,475.4 440.9,567.1 414.7,567.1 406.1,567.1 323.1,567.1 323.1,473.4 	"/>
</g>
<g id="freepik--Shadow--inject-2" class="st1">
	<ellipse id="freepik--path--inject-2" class="st5" cx="299.5" cy="601" rx="193.9" ry="11.3"/>
</g>
<g id="freepik--Drone--inject-2">
	
		<rect x="145.4" y="183.1" transform="matrix(0.9573 -0.2892 0.2892 0.9573 -46.511 52.7196)" class="st8" width="19.5" height="1.3"/>
	
		<rect x="169.7" y="177.2" transform="matrix(0.9573 -0.2892 0.2892 0.9573 -43.9612 58.1814)" class="st8" width="10.4" height="1.3"/>
	
		<rect x="97.1" y="98.1" transform="matrix(0.9566 -0.2915 0.2915 0.9566 -34.0409 48.6176)" class="st8" width="98.1" height="80.9"/>
	
		<rect x="192.3" y="78.5" transform="matrix(0.9566 -0.2915 0.2915 0.9566 -25.5266 66.5688)" class="st8" width="36.7" height="80.9"/>
	
		<rect x="192.3" y="78.5" transform="matrix(0.9566 -0.2915 0.2915 0.9566 -25.5266 66.5688)" class="st9" width="36.7" height="80.9"/>
	
		<rect x="173.6" y="122.6" transform="matrix(0.9573 -0.2892 0.2892 0.9573 -30.758 62.5378)" class="st10" width="45.3" height="25.5"/>
	
		<rect x="103.2" y="118.6" transform="matrix(0.9566 -0.2915 0.2915 0.9566 -32.1989 38.0788)" class="st11" width="17" height="17"/>
	
		<rect x="123.1" y="112.5" transform="matrix(0.9566 -0.2915 0.2915 0.9566 -29.5561 43.6141)" class="st11" width="17" height="17"/>
	<path class="st8" d="M138.4,47.1L138.4,47.1c6.6-1.1,11.1-7.3,10.1-13.9L145.6,15c-1.1-6.6-7.3-11.1-13.9-10.1l0,0
		c-6.6,1.1-11.1,7.3-10.1,13.9l2.9,18.3C125.6,43.7,131.8,48.2,138.4,47.1z"/>
	<path class="st9" d="M127.3,26.8c0.7,4.2,4.7,7.1,9,6.4c4.2-0.7,7.1-4.7,6.4-9c-0.7-4.2-4.7-7.1-8.9-6.4
		C129.5,18.6,126.6,22.6,127.3,26.8z"/>
	<path class="st12" d="M130,26.4c0.4,2.8,3,4.6,5.8,4.2s4.6-3,4.2-5.8c-0.4-2.8-3-4.6-5.8-4.2C131.4,21.1,129.5,23.6,130,26.4z"/>
	<path class="st11" d="M134.9,23.9c0.1,0.8,0.9,1.4,1.8,1.3c0.8-0.1,1.4-0.9,1.3-1.8l0,0c-0.1-0.8-0.9-1.4-1.8-1.3
		C135.3,22.2,134.7,23,134.9,23.9z"/>
	<path class="st11" d="M132.4,28.2c0.1,0.4,0.4,0.7,0.9,0.7l0,0c0.4-0.1,0.7-0.5,0.6-0.9c-0.1-0.4-0.5-0.7-0.9-0.6
		C132.6,27.4,132.3,27.7,132.4,28.2L132.4,28.2z"/>
	<polygon class="st8" points="201.2,16.3 168.1,19.6 168.8,24.4 201.9,20.7 	"/>
	<polygon class="st10" points="201.2,16.3 168.1,19.6 168.8,24.4 201.9,20.7 	"/>
	<path class="st8" d="M203.2,28.1L203.2,28.1c3-0.5,5.1-3.3,4.6-6.3l-1.3-8.3c-0.5-3-3.3-5.1-6.4-4.6l0,0c-3,0.5-5.1,3.3-4.6,6.4
		l1.3,8.3C197.4,26.5,200.2,28.6,203.2,28.1z"/>
	<path class="st8" d="M168.2,16.5l-22.6-1.4l2.6,16.2l21.3-3.4c1.4-0.2,2.4-1.6,2.2-3l0,0l-1-6.2C170.4,17.5,169.4,16.6,168.2,16.5z
		"/>
	<path class="st8" d="M197.5,5.3c0.2,1.1,1.2,1.9,2.4,1.7c1.1-0.2,1.9-1.2,1.7-2.4c-0.2-1.1-1.2-1.9-2.4-1.7l0,0
		C198.1,3.1,197.3,4.1,197.5,5.3z"/>
	<path class="st8" d="M205,5.7l16.5-2.6c0.9-0.1,1.4-1,1.3-1.8l0,0c-0.1-0.9-0.9-1.4-1.8-1.3l0,0l-16.5,2.6c-0.9,0.1-1.4,1-1.3,1.8
		l0,0C203.4,5.2,204.2,5.8,205,5.7z"/>
	<path class="st8" d="M178,10l16.5-2.6c0.9-0.1,1.4-0.9,1.3-1.8l0,0l0,0c-0.1-0.9-0.9-1.4-1.8-1.3l0,0l-16.5,2.6
		c-0.9,0.1-1.4,0.9-1.3,1.8l0,0l0,0C176.4,9.6,177.2,10.1,178,10z"/>
	<polygon class="st8" points="69.1,37.4 101.6,30.2 102.4,35 69.8,41.8 	"/>
	<polygon class="st10" points="69.1,37.4 101.6,30.2 102.4,35 69.8,41.8 	"/>
	<path class="st8" d="M70.8,49.2L70.8,49.2c-3,0.5-5.9-1.6-6.4-4.6l-1.3-8.3c-0.5-3,1.6-5.9,4.6-6.4l0,0c3-0.5,5.9,1.6,6.4,4.6
		l1.3,8.3C75.9,45.9,73.8,48.8,70.8,49.2z"/>
	<path class="st8" d="M100.6,27.3l21-8.3l2.6,16.2l-21.3,3.4c-1.4,0.2-2.8-0.7-3-2.2l0,0l-1-6.2C98.7,29,99.4,27.8,100.6,27.3z"/>
	<path class="st8" d="M69.2,25.7c0.2,1.1-0.6,2.2-1.7,2.4c-1.1,0.2-2.2-0.6-2.4-1.7s0.6-2.2,1.7-2.4c0,0,0,0,0.1,0
		C68,23.8,69,24.6,69.2,25.7z"/>
	<path class="st8" d="M62.2,28.4L45.6,31c-0.8,0.2-1.6-0.4-1.8-1.3l0,0c-0.1-0.8,0.5-1.6,1.3-1.8l16.5-2.6c0.9-0.1,1.7,0.5,1.8,1.3
		l0,0C63.6,27.5,63,28.3,62.2,28.4L62.2,28.4z"/>
	<path class="st8" d="M89.1,24.1l-16.5,2.6c-0.9,0.1-1.7-0.4-1.8-1.3l0,0c-0.1-0.9,0.5-1.7,1.3-1.8L88.6,21c0.9-0.1,1.7,0.4,1.8,1.3
		l0,0l0,0C90.5,23.2,90,24,89.1,24.1L89.1,24.1z"/>
	<path class="st12" d="M210.7,73.9c-0.2,0-0.3,0-0.5-0.1l-70.8-20.2c-0.9-0.3-1.4-1.3-1-2.2c0.3-0.8,1.1-1.3,2-1.1l70.7,20.3
		c0.9,0.3,1.4,1.2,1.2,2.1C212.1,73.4,211.5,73.9,210.7,73.9z"/>
	<path class="st12" d="M180.2,81.6c-0.4,0-0.7-0.1-1-0.3l-40.3-27.9c-0.8-0.5-1.1-1.6-0.6-2.4c0.5-0.8,1.6-1.1,2.4-0.6
		c0.1,0,0.1,0.1,0.2,0.1l40.2,27.9c0.8,0.5,1,1.6,0.4,2.4C181.2,81.3,180.7,81.6,180.2,81.6L180.2,81.6z"/>
	<path class="st12" d="M89.8,110.8c-0.9,0-1.7-0.7-1.7-1.7c0-0.4,0.1-0.8,0.4-1.2l50.1-57.2c0.6-0.7,1.7-0.8,2.4-0.2
		s0.8,1.7,0.2,2.4l-50.1,57.2C90.8,110.6,90.3,110.8,89.8,110.8z"/>
</g>
<g id="freepik--Character--inject-2">
	<path class="st8" d="M248.3,508.3h-0.4c-1.4,0-2.6,1.2-2.6,2.6c0,0.3,0,0.5,0.1,0.8l9.2,29.3h3.6L248.3,508.3z"/>
	<path class="st8" d="M246.1,572.9h2.8l-17.3-56.6l0,0c-2.6,0-4.6,2.1-4.6,4.7c0,0.4,0.1,0.9,0.2,1.3l14.5,47.3
		C242.3,571.6,244.1,572.9,246.1,572.9z"/>
	<path class="st8" d="M315.7,516.3h-16.5l-2.4-7.9h-11.9l-4.4-14.2c-0.2-0.6-0.8-0.9-1.4-0.7c-0.6,0.2-0.9,0.8-0.7,1.4l4.1,13.5
		h-20.9l-8.8-28.6c-0.1-0.6-0.7-1-1.3-0.9s-1,0.7-0.9,1.3c0,0.1,0,0.2,0.1,0.2l8.5,28h-11l2.4,7.9h-19.1l17.4,56.7h84L315.7,516.3z"
		/>
	<path class="st13" d="M315.7,516.3h-16.5l-2.4-7.9h-11.9l-4.4-14.2c-0.2-0.6-0.8-0.9-1.4-0.7c-0.6,0.2-0.9,0.8-0.7,1.4l4.1,13.5
		h-20.9l-8.8-28.6c-0.1-0.6-0.7-1-1.3-0.9s-1,0.7-0.9,1.3c0,0.1,0,0.2,0.1,0.2l8.5,28h-11l2.4,7.9h-19.1l17.4,56.7h84L315.7,516.3z"
		/>
	<path class="st14" d="M387.1,474.9c2.6,4,4.8,7.9,7,11.8s4.4,8,6.4,12c4.1,8.1,7.9,16.5,11.2,25.1c1.7,4.3,3.2,8.8,4.6,13.2
		l0.3,0.9l0.4,1.4c0.2,1,0.4,1.9,0.5,2.9c0.2,2,0.2,4-0.1,6c-0.6,3.6-1.9,7-3.9,10c-3.2,4.7-7.5,8.7-12.4,11.5
		c-2.1,1.3-4.3,2.4-6.6,3.4c-2.3,1-4.7,1.8-7.1,2.5l-5.2-11c3-2.5,5.9-5.3,8.6-8.1c2.3-2.3,4.1-5,5.3-8c0.3-0.8,0.4-1.6,0.3-2.5
		c-0.1-0.2-0.2-0.4-0.3-0.6c0-0.1-0.1-0.2-0.2-0.3c0-0.1,0-0.1,0-0.2l-0.3-0.7c-1.6-3.8-3.3-7.6-5-11.5c-3.6-7.6-7.5-15.3-11.6-22.8
		l-6.2-11.3l-6.4-11L387.1,474.9z"/>
	<path class="st14" d="M387.6,563.7l-11.6-3l-0.7,18.7c0,0,9,1.3,14.6-4.2L387.6,563.7z"/>
	<polygon class="st14" points="359.7,557.5 362.3,573.9 375.4,579.3 376.1,560.7 	"/>
	<path class="st12" d="M311.8,399.8c-0.3,1.3-1.1,2.2-2,2c-0.8-0.2-1.3-1.3-1-2.6c0.3-1.3,1.1-2.2,2-2
		C311.6,397.4,312.1,398.6,311.8,399.8z"/>
	<path class="st15" d="M310.8,402c-2.3,3.6-5.1,6.9-8.3,9.7c1.5,1.6,3.7,2.5,5.9,2.4L310.8,402z"/>
	<path class="st12" d="M318,393.7c0.2,0,0.4-0.1,0.5-0.2c0.3-0.3,0.3-0.8,0-1.1c-1.7-1.9-4.1-2.8-6.6-2.5c-0.4,0.1-0.7,0.5-0.6,0.9
		s0.5,0.7,0.9,0.6l0,0c1.9-0.2,3.9,0.6,5.2,2C317.4,393.6,317.7,393.7,318,393.7z"/>
	<path class="st14" d="M348.2,417.8c-2.3,11.8-4.6,33.5,3.7,41.4c0,0-3.2,12-25.2,12c-24.2,0-11.6-12-11.6-12
		c13.2-3.1,12.9-12.9,10.6-22.1L348.2,417.8z"/>
	<path class="st8" d="M356.7,461.4c1.8-3.3,3.7-7-0.3-8.2c-4.4-1.3-32.9-3.7-41.2-1.3c2.6,4.6-1.8,10.2-1.8,10.2L356.7,461.4z"/>
	<path class="st8" d="M428.3,1012.9c-1.3,0.5-2.8,0.4-4-0.2c-0.5-0.5-0.6-1.2-0.4-1.8c0.1-0.5,0.5-0.9,1-1.1c2.2-1,7.2,1,7.4,1.1
		c0.1,0,0.2,0.2,0.2,0.3c0,0.2-0.1,0.3-0.2,0.4C431,1012.2,429.7,1012.6,428.3,1012.9z M425.6,1010.3c-0.2,0-0.3,0.1-0.4,0.1
		c-0.3,0.1-0.5,0.4-0.6,0.7c-0.2,0.7,0,0.9,0.1,1c0.9,0.7,4.1,0,6.4-0.9C429.4,1010.5,427.5,1010.2,425.6,1010.3z"/>
	<path class="st8" d="M432.2,1011.6H432c-1.8-0.5-5.7-3.3-5.8-5.1c0-0.6,0.4-1.1,1-1.3s1.2-0.1,1.7,0.1c2.2,1.1,3.5,5.6,3.6,5.8
		c0.1,0.1,0.1,0.3,0,0.4L432.2,1011.6z M427.6,1005.9h-0.2c-0.5,0.2-0.5,0.4-0.5,0.5c0,1.1,2.6,3.3,4.4,4.1
		c-0.5-1.8-1.5-3.4-2.9-4.6C428.2,1005.9,427.9,1005.8,427.6,1005.9L427.6,1005.9z"/>
	<path class="st8" d="M308.9,1015.6c-2.1,0-4.1-0.3-4.8-1.2c-0.4-0.5-0.4-1.2,0-1.7c0.3-0.4,0.7-0.8,1.2-0.9
		c2.7-0.7,8.3,2.5,8.6,2.6c0.2,0.1,0.2,0.2,0.2,0.4s-0.2,0.3-0.3,0.3C312.2,1015.5,310.5,1015.6,308.9,1015.6z M306.3,1012.5
		c-0.2,0-0.5,0-0.7,0c-0.3,0.1-0.6,0.2-0.8,0.5c-0.3,0.5-0.2,0.7,0,0.9c0.7,1,4.8,1.1,7.9,0.6
		C310.7,1013.4,308.5,1012.7,306.3,1012.5L306.3,1012.5z"/>
	<path class="st8" d="M313.8,1015.2h-0.2c-1.9-0.9-5.8-4.4-5.5-6.2c0-0.4,0.4-1,1.4-1.1c0.8-0.1,1.6,0.1,2.2,0.7
		c2,1.7,2.5,6.1,2.5,6.2c0,0.1,0,0.3-0.2,0.4C314,1015.2,313.9,1015.2,313.8,1015.2z M309.8,1008.6h-0.3c-0.7,0-0.7,0.3-0.7,0.4
		c-0.2,1.1,2.4,3.9,4.4,5c-0.2-1.8-1-3.6-2.2-5C310.7,1008.8,310.2,1008.6,309.8,1008.6L309.8,1008.6z"/>
	<polygon class="st14" points="331.5,1014.8 315.4,1014.8 313.8,977.4 329.9,977.4 	"/>
	<polygon class="st14" points="450.2,1007.3 434.4,1010.7 418.6,975.9 434.4,972.4 	"/>
	<path class="st12" d="M432.8,1009.1l17.8-3.9c0.6-0.1,1.3,0.2,1.6,0.8l6.2,13.4c0.5,1.2,0,2.6-1.2,3.1c-0.2,0.1-0.3,0.1-0.5,0.2
		c-6.2,1.2-9.3,1.5-17.1,3.2c-4.8,1-15.7,3.7-22.3,5.1c-6.6,1.5-8.9-5-6.3-6.1c11.6-5.3,16.4-10,19.6-14.3
		C431,1009.9,431.9,1009.3,432.8,1009.1z"/>
	<path class="st12" d="M315.5,1012.9h17.6c0.7,0,1.2,0.5,1.4,1.1l3.2,14.4c0.3,1.3-0.5,2.5-1.8,2.8c-0.2,0-0.4,0.1-0.5,0.1
		c-6.4,0-15.6-0.5-23.6-0.5c-9.4,0-17.5,0.5-28.4,0.5c-6.6,0-8.5-6.7-5.7-7.3c12.7-2.8,23-3.1,33.9-9.8
		C312.7,1013.4,314.1,1013,315.5,1012.9z"/>
	<path class="st8" d="M380.8,462.9c15.2,3.5,27.6,42.2,27.6,42.2L378,528.3c-7.9-8.4-13.5-18.7-16.2-29.9
		C356.7,478.1,365.3,459.3,380.8,462.9z"/>
	<path class="st16" d="M367.9,491.3c8.2,8.1,11,23,11.6,35.9l-1.3,1c-7.9-8.4-13.5-18.7-16.2-29.9c-0.3-1.2-0.6-2.4-0.8-3.6
		L367.9,491.3z"/>
	<path class="st8" d="M290.2,463.7c0,0-17.2,19.4-0.9,139.8h86.5c0.6-13.2-7.7-78.1,5.1-140.6c-9.6-1.8-19.2-3.1-28.9-3.7
		c-12.3-0.7-24.5-0.7-36.8,0C306.7,460.1,298.4,461.6,290.2,463.7z"/>
	<polygon class="st16" points="313.8,977.4 314.6,996.7 330.8,996.7 330,977.4 	"/>
	<polygon class="st16" points="434.4,972.4 418.6,975.9 426.8,993.8 442.6,990.4 	"/>
	<path class="st14" d="M355,405.8c-4.2,15.5-5.8,24.8-15.4,31.2c-14.4,9.7-32.3-1.4-32.9-17.9c-0.5-14.8,6.4-37.7,23-40.8
		c11.9-2.3,23.4,5.4,25.7,17.3C356.1,399,356,402.5,355,405.8z"/>
	<path class="st12" d="M321.4,405.8c-1.5-5.5-5-15.4,2.5-18.4c10-3.7,30.4-2.2,38.6,3.3c7.8,13.6-1.7,25.8-6.6,31.4
		s-5.2,9.2-8.5,10.6c-6.1,2.8-19.3-0.3-21-5.7C324.3,420.3,315.4,414.1,321.4,405.8z"/>
	<path class="st12" d="M359.7,392.3c0,0,6.8-3.4,5.3-13.2C370.5,385.8,367.4,399.2,359.7,392.3z"/>
	<path class="st12" d="M361.4,395.8c0,0,3.3,0.2,6.9,7.3C368.5,396.9,364.6,389.3,361.4,395.8z"/>
	<path class="st12" d="M331.9,388.6c-11,1-18.3-2.8-22.5-9.3c2.4,0.6,4.8,0.6,7.2,0c-2-2.2-4.8-3.4-7.8-3.2
		c3.6-2.8,8.2-3.8,12.6-2.8c-2.1-3.8-2.6-8.3-1.6-12.6c1.7,4.1,11.2,8.5,14.6,8.5c0,0-4.8-5.5-3.1-11.3c3.5,5.3,12,15.2,23,17.4
		c9.1,1.8,17.7,20.1,2.2,19.4C336,394,331.9,388.6,331.9,388.6z"/>
	<path class="st14" d="M328.7,405.1c-1.1,3.9-3.4,7.3-6.6,9.7c-4.2,3.1-7.4,0-7-4.7c0.3-4.3,2.8-11,7.4-12.4
		C327.1,396.3,329.8,400.4,328.7,405.1z"/>
	<path class="st8" d="M320,603.5c0,0,18.3,123.6,28.4,169.8c11,50.6,70.2,218.4,70.2,218.4l28.9-6.3c0,0-41.4-136.7-50.6-207.6
		c-7.1-54.4-21.1-174.5-21.1-174.5L320,603.5z"/>
	<path class="st12" d="M411.7,982.1c-0.1,0,5.4,10.5,5.4,10.5l32.6-7.1l-2.8-9.8L411.7,982.1z"/>
	<path class="st9" d="M331.6,647.5c21.2,4.2,19,83.3,16.4,124c-6.1-28.8-15.1-84.1-21.2-123.4C328.3,647.3,330,647.1,331.6,647.5z"
		/>
	<path class="st8" d="M289.3,603.5c0,0-2.2,120.9-0.5,170.2c1.8,51.3,19.8,219.2,19.8,219.2H336c0,0,1-165,2.2-215.3
		c1.3-55,8-174.1,8-174.1H289.3z"/>
	<path class="st12" d="M303.3,982c-0.1,0,1.5,11.4,1.5,11.4h33.3l0.9-10.1L303.3,982z"/>
	<path class="st12" d="M289.8,462c-4.2,1.9-8.3,5.4-9.5,16.8c-1.2,11,1.1,107,3.9,137.7c0.1,2,1.6,3.7,3.6,4.2
		c17.1,3.4,68.6,2.8,87.1,0.4c2.2-0.4,3.8-2.2,3.8-4.4c1.5-29.7,5.8-81.9,5.8-112.8c0-20.1,2.2-40.9-13.2-44.5
		C359.9,456.8,306.4,454.5,289.8,462z"/>
	<path class="st14" d="M307.3,490.1c-0.7,4.6-1.7,8.8-2.6,13.2c-1,4.4-2,8.7-3.3,13c-2.4,8.9-5.6,17.5-9.4,25.9
		c-2.1,4.6-4.6,9-7.5,13.1c-1.8,2.4-3.8,4.6-6.1,6.6c-1.4,1.2-2.9,2.3-4.6,3.2c-0.8,0.4-1.7,0.8-2.5,1.1c-0.9,0.3-1.8,0.6-2.7,0.8
		c-3.9,1-7.9,0.9-11.7-0.3c-3.3-1.1-6.3-2.8-8.8-5.2c-2.1-1.9-3.9-4.2-5.3-6.6c-0.6-1.2-1.3-2.3-1.8-3.5s-0.9-2.3-1.4-3.9l10.7-5.7
		c0.6,0.4,1.4,1.1,2,1.6c0.7,0.5,1.4,1.1,2.2,1.6c1.2,0.9,2.6,1.6,4,2.2c0.9,0.4,1.8,0.5,2.7,0.3c0.5-0.2,0.6-0.5,0.9-0.8l0.6-0.6
		l0.6-0.6c0.8-0.9,1.6-2,2.2-3.1c1.8-3,3.4-6.2,4.6-9.5c2.9-7.5,5.3-15.1,7.2-22.8c1-4,2-7.9,2.9-12c0.9-4,1.8-8.2,2.6-12
		L307.3,490.1z"/>
	<path class="st8" d="M318.7,479.5c13.2,26.4-18.1,56.3-18.1,56.3l-34.8-18.2c2.4-14,6.4-27.7,11.9-40.8
		C287.9,454.3,311.2,464.3,318.7,479.5z"/>
	<path class="st14" d="M244.7,552.4l-12.7-6.3l6.7-16.4c0,0,14,4.6,13.2,16.4L244.7,552.4z"/>
	<polygon class="st14" points="228.9,542.1 227.7,527.4 238.7,529.8 232,546.1 	"/>
</g>
</svg>
